<?xml version="1.0" encoding="UTF-8"?>
<svg width="58px" height="14px" viewBox="0 0 58 14" version="1.1" xmlns="http://www.w3.org/2000/svg" xmlns:xlink="http://www.w3.org/1999/xlink">
    <title>power-bi-vector-logo 2</title>
    <g id="Home-Page" stroke="none" stroke-width="1" fill="none" fill-rule="evenodd">
        <g id="Home-Page---All-Apps---DownloadApp-3" transform="translate(-1350.000000, -588.000000)" fill="#231815" fill-rule="nonzero">
            <g id="power-bi-vector-logo-2" transform="translate(1350.000000, 588.000000)">
                <path d="M12.4068966,7.86896552 C12.4068966,6.75862069 12.4068966,5.66034483 12.4068966,4.55 C12.4068966,4.1637931 12.237931,3.93448276 11.8758621,3.82586207 C8.60517241,2.8362069 5.34655172,1.83448276 2.07586207,0.856896552 C1.56896552,0.7 1.17068966,1.00172414 1.17068966,1.53275862 C1.17068966,2.99310345 1.17068966,4.44137931 1.17068966,5.90172414 C1.17068966,6.02241379 1.18275862,6.17931034 1.12241379,6.27586207 C1.05,6.38448276 0.905172414,6.49310345 0.784482759,6.49310345 C0.675862069,6.49310345 0.531034483,6.37241379 0.446551724,6.27586207 C0.386206897,6.20344828 0.386206897,6.08275862 0.386206897,5.97413793 C0.386206897,4.52586207 0.374137931,3.08965517 0.386206897,1.64137931 C0.398275862,0.482758621 1.26724138,-0.144827586 2.37758621,0.181034483 C2.84827586,0.313793103 3.31896552,0.470689655 3.78965517,0.615517241 C6.49310345,1.4362069 9.19655172,2.25689655 11.9,3.07758621 C12.7931034,3.34310345 13.1551724,3.77758621 13.1551724,4.71896552 C13.1672414,6.85517241 13.1672414,8.97931034 13.1551724,11.1155172 C13.1551724,12.1051724 12.5155172,12.8051724 11.6465517,12.6965517 C11.1517241,12.6362069 10.6689655,12.4310345 10.1982759,12.2741379 C10.0051724,12.2137931 9.95689655,12.0206897 10.0172414,11.8275862 C10.0896552,11.6224138 10.2586207,11.562069 10.4517241,11.6103448 C10.7534483,11.6948276 11.0551724,11.7793103 11.3568966,11.887931 C11.9965517,12.1051724 12.3948276,11.8275862 12.3948276,11.1637931 L12.3948276,7.86896552 L12.4068966,7.86896552 Z" id="Path"></path>
                <path d="M53.3931034,6.87931034 C54.3465517,7.12068966 54.8172414,7.6637931 54.8534483,8.53275862 C54.8896552,9.31724138 54.3103448,10.1017241 53.4775862,10.3672414 C53.1758621,10.4637931 52.837931,10.5241379 52.5241379,10.5362069 C51.787931,10.5603448 51.0517241,10.5482759 50.3155172,10.5362069 C50.2793103,10.5362069 50.2310345,10.512069 50.1827586,10.5 C50.1706897,10.3913793 50.1706897,10.2827586 50.1706897,10.1862069 C50.1706897,8.13448276 50.1827586,6.07068966 50.1586207,4.01896552 C50.1586207,3.71724138 50.2431034,3.64482759 50.5327586,3.65689655 C51.3655172,3.69310345 52.1982759,3.65689655 53.0189655,3.72931034 C53.887931,3.8137931 54.4672414,4.39310345 54.5396552,5.12931034 C54.5758621,5.73275862 54.3344828,6.45689655 53.3931034,6.87931034 M51.3413793,7.45862069 C51.3413793,8.14655172 51.3413793,8.77413793 51.3534483,9.40172414 C51.3534483,9.46206897 51.4741379,9.58275862 51.5344828,9.58275862 C51.9206897,9.58275862 52.3189655,9.59482759 52.6931034,9.53448276 C53.2241379,9.46206897 53.55,9.05172414 53.55,8.53275862 C53.55,8.00172414 53.2724138,7.65172414 52.7051724,7.56724138 C52.2827586,7.49482759 51.8362069,7.48275862 51.3413793,7.45862069 M51.3413793,5.57586207 L51.3413793,5.57586207 C51.3413793,5.81724138 51.3293103,6.05862069 51.3534483,6.3 C51.3534483,6.37241379 51.462069,6.49310345 51.5224138,6.49310345 C51.8724138,6.49310345 52.2224138,6.50517241 52.5603448,6.43275862 C53.212069,6.27586207 53.5017241,5.41896552 53.0913793,4.94827586 C52.862069,4.68275862 51.8241379,4.44137931 51.4862069,4.67068966 C51.3293103,4.77931034 51.3896552,5.18965517 51.3534483,5.46724138 C51.3413793,5.51551724 51.3413793,5.53965517 51.3413793,5.57586207" id="Shape"></path>
                <path d="M34.2517241,7.0362069 C33.9258621,8.14655172 33.6241379,9.17241379 33.3344828,10.2103448 C33.262069,10.4637931 33.1655172,10.5603448 32.887931,10.5603448 C32.0551724,10.5603448 32.0431034,10.5844828 31.8137931,9.78793103 C31.4275862,8.49655172 31.0534483,7.20517241 30.6793103,5.9137931 C30.6551724,5.84137931 30.6431034,5.75689655 30.6189655,5.6362069 C30.9931034,5.6362069 31.3310345,5.62413793 31.6810345,5.64827586 C31.7534483,5.64827586 31.85,5.79310345 31.8741379,5.87758621 C32.1396552,6.87931034 32.3810345,7.86896552 32.6344828,8.87068966 C32.6586207,8.97931034 32.6948276,9.08793103 32.7793103,9.20862069 C32.9603448,8.59310345 33.1293103,7.96551724 33.3103448,7.35 C33.4551724,6.84310345 33.587931,6.3362069 33.7568966,5.82931034 C33.7810345,5.74482759 33.9137931,5.6362069 33.9982759,5.6362069 C34.8793103,5.57586207 34.8793103,5.57586207 35.0965517,6.42068966 C35.337931,7.3862069 35.5793103,8.35172414 35.8206897,9.36551724 C36.1103448,8.19482759 36.4,7.07241379 36.6655172,5.93793103 C36.7258621,5.69655172 36.8224138,5.61206897 37.0637931,5.62413793 C37.3172414,5.64827586 37.5586207,5.62413793 37.8603448,5.62413793 C37.7275862,6.10689655 37.5948276,6.52931034 37.462069,6.9637931 C37.1362069,8.05 36.8103448,9.1362069 36.5086207,10.2344828 C36.4482759,10.4517241 36.3637931,10.5603448 36.1103448,10.5482759 C35.1931034,10.5362069 35.1931034,10.5482759 34.9637931,9.67931034 C34.7344828,8.83448276 34.5051724,7.97758621 34.2517241,7.0362069" id="Path"></path>
                <path d="M20.1672414,10.5482759 C20.1551724,10.4034483 20.1431034,10.3068966 20.1431034,10.2224138 C20.1431034,8.17068966 20.1431034,6.10689655 20.1310345,4.05517241 C20.1310345,3.75344828 20.2275862,3.65689655 20.5293103,3.66896552 C21.3258621,3.70517241 22.1344828,3.65689655 22.9310345,3.74137931 C24.0775862,3.86206897 24.7534483,4.63448276 24.7775862,5.73275862 C24.8137931,6.80689655 24.1017241,7.76034483 23.0637931,7.97758621 C22.6051724,8.07413793 22.1224138,8.07413793 21.6517241,8.0862069 C21.4224138,8.09827586 21.35,8.17068966 21.35,8.4 C21.362069,9.01551724 21.35,9.61896552 21.362069,10.2344828 C21.362069,10.487931 21.2896552,10.5724138 21.0362069,10.5482759 C20.7586207,10.5241379 20.4810345,10.5482759 20.1672414,10.5482759 M21.362069,7.12068966 C21.8327586,7.08448276 22.2672414,7.08448276 22.6775862,7 C23.2206897,6.89137931 23.4982759,6.43275862 23.4982759,5.81724138 C23.4982759,5.22586207 23.2448276,4.85172414 22.6896552,4.74310345 C22.3155172,4.67068966 21.9172414,4.69482759 21.5310345,4.69482759 C21.4827586,4.69482759 21.3741379,4.80344828 21.3741379,4.8637931 C21.362069,5.58793103 21.362069,6.31206897 21.362069,7.12068966" id="Shape"></path>
                <path d="M7.36206897,9.31724138 C7.36206897,8.09827586 7.36206897,6.89137931 7.36206897,5.67241379 C7.36206897,5.26206897 7.57931034,4.9362069 7.92931034,4.81551724 C8.27931034,4.68275862 8.68965517,4.76724138 8.89482759,5.06896552 C9.01551724,5.25 9.11206897,5.49137931 9.11206897,5.70862069 C9.1362069,8.11034483 9.12413793,10.5241379 9.12413793,12.9137931 C9.12413793,13.3 8.99137931,13.6258621 8.61724138,13.7948276 C8.29137931,13.9396552 7.97758621,13.9155172 7.7,13.6982759 C7.44655172,13.5051724 7.36206897,13.2275862 7.36206897,12.9137931 L7.36206897,9.31724138 Z" id="Path"></path>
                <path d="M27.5775862,10.6568966 C26.0689655,10.6568966 25.0793103,9.66724138 25.0793103,8.14655172 C25.0793103,6.51724138 26.1051724,5.51551724 27.7706897,5.50344828 C29.2672414,5.50344828 30.1724138,6.46896552 30.1724138,8.06206897 C30.1724138,9.67931034 29.2068966,10.6568966 27.5775862,10.6568966 M29.0137931,8.12241379 C29.0017241,8.12241379 28.9775862,8.11034483 28.9655172,8.11034483 C28.9534483,7.94137931 28.9534483,7.77241379 28.9293103,7.60344828 C28.8689655,7.06034483 28.4827586,6.58965517 28.012069,6.48103448 C27.4086207,6.34827586 26.8413793,6.54137931 26.5517241,7.0362069 C26.1775862,7.7 26.1775862,8.41206897 26.5155172,9.08793103 C26.7448276,9.54655172 27.1793103,9.72758621 27.6741379,9.72758621 C28.1568966,9.72758621 28.5672414,9.52241379 28.7603448,9.05172414 C28.8931034,8.76206897 28.9293103,8.4362069 29.0137931,8.12241379" id="Shape"></path>
                <path d="M39.4775862,8.4362069 C39.4534483,9.14827586 39.9241379,9.67931034 40.6,9.73965517 C41.1431034,9.8 41.6741379,9.70344828 42.1448276,9.40172414 C42.1810345,9.37758621 42.2172414,9.35344828 42.2534483,9.34137931 C42.2775862,9.34137931 42.2896552,9.34137931 42.3741379,9.34137931 C42.3741379,9.59482759 42.3982759,9.86034483 42.362069,10.1137931 C42.35,10.1982759 42.2413793,10.3189655 42.1448276,10.3551724 C41.3,10.7293103 40.4310345,10.8017241 39.562069,10.4637931 C39.2362069,10.3431034 38.9224138,10.0775862 38.7172414,9.78793103 C38.0293103,8.88275862 37.9931034,7.02413793 39.0431034,6.09482759 C39.7431034,5.46724138 40.5517241,5.32241379 41.4206897,5.61206897 C42.2413793,5.88965517 42.5913793,6.55344828 42.7,7.37413793 C42.7362069,7.61551724 42.7241379,7.85689655 42.7482759,8.09827586 C42.7724138,8.35172414 42.6637931,8.42413793 42.4224138,8.42413793 C41.5534483,8.41206897 40.6965517,8.42413793 39.8275862,8.42413793 L39.4775862,8.42413793 L39.4775862,8.4362069 Z M41.5775862,7.57931034 C41.637931,6.89137931 41.2637931,6.42068966 40.6482759,6.38448276 C40.0448276,6.34827586 39.4775862,6.92758621 39.4775862,7.57931034 L41.5775862,7.57931034 Z" id="Shape"></path>
                <path d="M6.67413793,9.37758621 C6.67413793,10.2827586 6.67413793,11.187931 6.67413793,12.0931034 C6.67413793,12.4793103 6.49310345,12.7810345 6.11896552,12.937931 C5.78103448,13.0706897 5.43103448,13.0465517 5.18965517,12.7568966 C5.04482759,12.5758621 4.92413793,12.3103448 4.92413793,12.0810345 C4.9,10.2586207 4.91206897,8.4362069 4.92413793,6.6137931 C4.92413793,6.04655172 5.29827586,5.67241379 5.81724138,5.68448276 C6.31206897,5.69655172 6.67413793,6.08275862 6.67413793,6.62586207 C6.67413793,7.54310345 6.67413793,8.47241379 6.67413793,9.37758621" id="Path"></path>
                <path d="M4.21206897,9.34137931 C4.21206897,9.93275862 4.21206897,10.5241379 4.21206897,11.1034483 C4.21206897,11.6344828 3.82586207,12.0327586 3.34310345,12.0327586 C2.86034483,12.0448276 2.47413793,11.6344828 2.47413793,11.1034483 C2.47413793,9.92068966 2.47413793,8.72586207 2.47413793,7.54310345 C2.47413793,7.01206897 2.82413793,6.65 3.31896552,6.63793103 C3.82586207,6.62586207 4.21206897,7.01206897 4.21206897,7.53103448 C4.22413793,8.13448276 4.21206897,8.73793103 4.21206897,9.34137931" id="Path"></path>
                <path d="M57.2672414,10.5241379 L56.0482759,10.5241379 L56.0482759,3.66896552 C56.4103448,3.66896552 56.7724138,3.65689655 57.1344828,3.68103448 C57.1827586,3.68103448 57.2551724,3.85 57.2551724,3.94655172 C57.2672414,4.80344828 57.2551724,5.66034483 57.2551724,6.50517241 L57.2551724,10.0775862 L57.2551724,10.5241379 L57.2672414,10.5241379 Z" id="Path"></path>
                <path d="M44.9206897,10.5482759 C44.5706897,10.5482759 44.2689655,10.5482759 43.9793103,10.5482759 C43.9189655,10.5482759 43.8586207,10.5362069 43.7741379,10.5362069 L43.7741379,5.66034483 L44.9086207,5.66034483 L44.9086207,6.43275862 C45.0534483,6.23965517 45.137931,6.09482759 45.2465517,5.97413793 C45.5482759,5.61206897 45.9586207,5.49137931 46.4172414,5.58793103 C46.5017241,5.6 46.6224138,5.70862069 46.6344828,5.78103448 C46.6586207,6.08275862 46.6465517,6.38448276 46.6465517,6.71034483 C46.4775862,6.67413793 46.3448276,6.62586207 46.212069,6.6137931 C45.487931,6.54137931 44.9568966,7.10862069 44.9448276,7.96551724 C44.9327586,8.70172414 44.9448276,9.43793103 44.9448276,10.1862069 L44.9448276,10.5482759 L44.9206897,10.5482759 Z" id="Path"></path>
                <path d="M1.75,9.36551724 L1.75,10.3189655 C1.75,10.8258621 1.41206897,11.187931 0.929310345,11.2241379 C0.494827586,11.2482759 0.0362068966,10.8741379 0.024137931,10.3913793 C-8.74725639e-14,9.69137931 -8.74725639e-14,9.00344828 0.024137931,8.30344828 C0.0362068966,7.83275862 0.494827586,7.45862069 0.94137931,7.48275862 C1.42413793,7.50689655 1.75,7.88103448 1.76206897,8.38793103 L1.76206897,9.36551724 L1.75,9.36551724 Z" id="Path"></path>
            </g>
        </g>
    </g>
</svg>