<svg xmlns="http://www.w3.org/2000/svg" width="295" height="295" viewBox="0 0 295 295">
    <g fill="#00AB4E" fill-rule="evenodd">
        <path d="M288.842 0a6 6 0 0 1 6 6v282.843a6 6 0 0 1-6 6H66.421a6 6 0 0 1 0-12h162.736l53.685-53.685V12H12v39.992h261.421a6 6 0 0 1 0 12H12v224.851a6 6 0 0 1-12 0V6a6 6 0 0 1 6-6z"/>
        <path d="M27.681 27.751a6.086 6.086 0 0 0-1.75 4.25c0 1.58.64 3.12 1.75 4.24a6.062 6.062 0 0 0 4.24 1.75c1.58 0 3.13-.64 4.25-1.75a6.067 6.067 0 0 0 1.75-4.24 6.09 6.09 0 0 0-1.75-4.25 6.086 6.086 0 0 0-4.25-1.75c-1.57 0-3.12.64-4.24 1.75zM47.681 27.751a6.052 6.052 0 0 0-1.76 4.25c0 1.57.64 3.12 1.76 4.24a6.044 6.044 0 0 0 4.24 1.75c1.58 0 3.13-.64 4.24-1.75a6.033 6.033 0 0 0 1.76-4.24c0-1.58-.641-3.13-1.76-4.25a6.044 6.044 0 0 0-4.24-1.75c-1.58 0-3.129.64-4.24 1.75z"/>
        <rect width="23" height="12" x="29" y="283" rx="6"/>
        <g transform="translate(92 125)">
            <path d="M74.91 65.157c10.196-1.415 20.626.864 29.37 6.418l6.794-10.697c-11.277-7.162-24.738-10.098-37.907-8.272-21.172 2.942-39.154 17.966-45.81 38.277L39.4 94.828c5.159-15.745 19.097-27.391 35.51-29.671z"/>
            <circle cx="13.463" cy="12.89" r="12.672"/>
            <circle cx="91.871" cy="12.89" r="12.672"/>
        </g>
        <path d="M269 52h17v12h-17z"/>
    </g>
</svg>
