<?xml version="1.0" encoding="UTF-8"?>
<svg width="72px" height="50px" viewBox="0 0 72 50" version="1.1" xmlns="http://www.w3.org/2000/svg" xmlns:xlink="http://www.w3.org/1999/xlink">
    <g id="App-Settings" stroke="none" stroke-width="1" fill-rule="evenodd" fill="#268ecd">
        <path d="M59.141,24.996 C52.2894,24.996 46.715,30.5702 46.715,37.422 C46.715,44.2738 52.2892,49.844 59.141,49.844 C65.9928,49.844 71.567,44.2698 71.567,37.422 C71.563094,30.5704 65.9889,24.996 59.141,24.996 Z M64.7269,39.797 L64.715182,39.808719 L60.371382,35.461019 L60.371382,44.132919 L57.886982,44.132919 L57.886982,35.461019 L53.551082,39.796919 L53.551082,36.285219 L59.125282,30.711019 L64.726882,36.308719 L64.7269,39.797 Z M58.5902,16.727 L58.566762,16.727 C58.242542,12.2114 54.480862,8.6489 49.883162,8.6489 C48.363662,8.6489 46.933962,9.03952 45.687862,9.7231 C42.715162,4.0356 36.762062,0.1528 29.902862,0.1528 C20.254462,0.1528 12.406862,7.8286 12.109862,17.4028 C5.383262,17.93796 0.093862,23.559 0.093862,30.4228 C0.093862,37.6376 5.941562,43.4848 13.155862,43.4848 L45.018862,43.4848 C44.214172,41.6215 43.768862,39.5707 43.768862,37.4184 C43.768862,28.9379 50.667262,22.0434 59.143862,22.0434 C64.456362,22.0434 69.151862,24.7543 71.913862,28.8676 C71.284952,22.0629 65.562262,16.7266 58.589862,16.7266 L58.5902,16.727 Z M22.1372,9.9145 C22.03564,10.000438 21.93408,10.08247 21.84032,10.17622 C21.46532,10.5356 21.11766,10.91841 20.84813,11.36372 C19.80513,13.06682 19.60593,14.89492 19.83643,16.85982 C20.05518,18.74652 17.10203,18.72702 16.88723,16.85982 C16.48098,13.37152 17.59817,9.43402 20.64113,7.37932 C22.21143,6.31292 23.68023,8.85202 22.13723,9.91452 L22.1372,9.9145 Z" id="Shape"/>
    </g>
</svg>
