<?xml version="1.0" encoding="UTF-8"?>
<svg width="30px" height="39px" viewBox="0 0 30 39" version="1.1" xmlns="http://www.w3.org/2000/svg" xmlns:xlink="http://www.w3.org/1999/xlink">
    <!-- Generator: Sketch 50.2 (55047) - http://www.bohemiancoding.com/sketch -->
    <title>icons/fill-icons/config-file</title>
    <desc>Created with Sketch.</desc>
    <defs></defs>
    <g id="Config-Uploads" stroke="none" stroke-width="1" fill="none" fill-rule="evenodd">
        <g id="3-CU-Success-Upload" transform="translate(-1655.000000, -171.000000)" fill="#1AB571">
            <g id="icons/fill-icons/config-file" transform="translate(1655.000000, 171.000000)">
                <g id="Group-6">
                    <path d="M29.9219085,9.70048685 C29.9188658,9.63962999 29.9066944,9.57877313 29.8869157,9.52248101 C29.88083,9.50574528 29.8777873,9.48748822 29.8701803,9.47227264 L29.8701803,9.47075131 C29.8427945,9.40685258 29.8032358,9.3475147 29.7560732,9.29578734 L21.3167353,0.208348199 C21.3136927,0.20530555 21.3091283,0.202262512 21.3060853,0.199219864 C21.2954352,0.187048491 21.2817426,0.17944148 21.2680499,0.168791431 C21.2239291,0.127712561 21.1737207,0.0942403116 21.1189515,0.0683785784 C21.0991727,0.0577289192 21.0778726,0.050121519 21.0565718,0.0440358325 C21.0002796,0.0227361246 20.9409418,0.0105647517 20.8800888,0.00752171373 C20.8663961,0.00600031159 20.8557461,-8.52969814e-05 20.8420534,-8.52969814e-05 L2.01751587,-8.52969814e-05 C0.941878092,0.00143610516 0.0700962025,0.871696592 0.0700962025,1.94733437 L0.0700962025,37.0008884 C0.0700962025,38.0765262 0.941878092,38.9467891 2.01751587,38.9483081 L27.9820728,38.9483081 C29.0577106,38.9467868 29.9294925,38.0765262 29.9294925,37.0008884 L29.9294925,9.73701305 C29.9294925,9.72332035 29.9234068,9.7126703 29.9218855,9.70049893 L29.9219085,9.70048685 Z M3.32132425,36.3513145 C2.96378968,36.3528362 2.67166504,36.0637663 2.66862707,35.7062512 C2.66710574,35.3471938 2.95617527,35.055073 3.3152483,35.053554 L3.32133398,35.053554 C3.68039143,35.053554 3.97099318,35.3441441 3.97099318,35.7032132 C3.97099318,36.0607478 3.68040312,36.3513535 3.32133398,36.3513535 L3.32132425,36.3513145 Z M3.32132425,33.7542356 L3.32132425,33.7557574 C2.96378968,33.7572787 2.67166504,33.4682092 2.66862707,33.1091361 C2.66710574,32.7500826 2.95617527,32.4579579 3.3152483,32.4564389 L3.32133398,32.4564389 C3.68039143,32.4564389 3.97099318,32.747029 3.97099318,33.1060981 C3.97099318,33.4651673 3.68040312,33.7557574 3.32133398,33.7557574 L3.32132425,33.7542356 Z M3.32132425,31.1571568 L3.32132425,31.1586781 C2.96378968,31.1601994 2.67166504,30.8711299 2.66862707,30.5120569 C2.66710574,30.1545223 2.95617527,29.8623977 3.3152483,29.8608787 L3.32133398,29.8608787 C3.68039143,29.8608787 3.97099318,30.1514687 3.97099318,30.5090189 C3.97099318,30.8680763 3.68040312,31.1586781 3.32133398,31.1586781 L3.32132425,31.1571568 Z M3.32132425,28.5600779 L3.32132425,28.5615992 C2.96378968,28.5631209 2.67166504,28.274051 2.66862707,27.9165359 C2.66710574,27.5574785 2.95617527,27.2653577 3.3152483,27.2638388 L3.32133398,27.2638388 C3.68039143,27.2638388 3.97099318,27.5544288 3.97099318,27.913498 C3.97099318,28.2710325 3.68040312,28.5616382 3.32133398,28.5616382 L3.32132425,28.5600779 Z M3.32132425,25.962999 L3.32132425,25.9660421 C2.96378968,25.9675634 2.67166504,25.6784939 2.66862707,25.3194208 C2.66710574,24.9603673 2.95617527,24.6682426 3.3152483,24.6667237 L3.32133398,24.6667237 C3.68039143,24.6667237 3.97099318,24.9573137 3.97099318,25.3163829 C3.97099318,25.675452 3.68040312,25.9660421 3.32133398,25.9660421 L3.32132425,25.962999 Z M3.32132425,23.3659202 L3.32132425,23.3689628 C2.96378968,23.3704841 2.67166504,23.0814146 2.66862707,22.7223416 C2.66710574,22.364807 2.95617527,22.0726824 3.3152483,22.0711634 L3.32133398,22.0711634 C3.68039143,22.0711634 3.97099318,22.3617535 3.97099318,22.7193036 C3.97099318,23.0783611 3.68040312,23.3689628 3.32133398,23.3689628 L3.32132425,23.3659202 Z M3.32132425,20.7688413 L3.32132425,20.7718839 C2.96378968,20.7734056 2.67166504,20.4843357 2.66862707,20.1268206 C2.66710574,19.7677632 2.95617527,19.4756425 3.3152483,19.4741235 L3.32133398,19.4741235 C3.68039143,19.4741235 3.97099318,19.7647135 3.97099318,20.1237827 C3.97099318,20.4813172 3.68040312,20.7719229 3.32133398,20.7719229 L3.32132425,20.7688413 Z M3.32132425,18.1717624 L3.32132425,18.1763268 C2.96378968,18.1778481 2.67166504,17.8887786 2.66862707,17.5297056 C2.66710574,17.170652 2.95617527,16.8785274 3.3152483,16.8770084 L3.32133398,16.8770084 C3.68039143,16.8770084 3.97099318,17.1675984 3.97099318,17.5266676 C3.97099318,17.8857367 3.68040312,18.1763268 3.32133398,18.1763268 L3.32132425,18.1717624 Z M3.32132425,15.5746835 L3.32132425,15.5792479 C2.96378968,15.5807692 2.67166504,15.2916997 2.66862707,14.9326267 C2.66710574,14.5750921 2.95617527,14.2829675 3.3152483,14.2814485 L3.32133398,14.2814485 C3.68039143,14.2814485 3.97099318,14.5720386 3.97099318,14.9295887 C3.97099318,15.2886462 3.68040312,15.5792479 3.32133398,15.5792479 L3.32132425,15.5746835 Z M3.32132425,12.9776047 L3.32132425,12.982169 C2.96378968,12.9836907 2.67166504,12.6946208 2.66862707,12.3371057 C2.66710574,11.9780483 2.95617527,11.6859276 3.3152483,11.6844086 L3.32133398,11.6844086 C3.68039143,11.6844086 3.97099318,11.9749986 3.97099318,12.3340678 C3.97099318,12.6916023 3.68040312,12.982208 3.32133398,12.982208 L3.32132425,12.9776047 Z M3.32132425,10.3805258 L3.32132425,10.3866115 C2.96378968,10.3881328 2.67166504,10.0990633 2.66862707,9.73999026 C2.66710574,9.38093671 2.95617527,9.08881207 3.3152483,9.08729309 L3.32133398,9.08729309 C3.68039143,9.08729309 3.97099318,9.37788315 3.97099318,9.73695229 C3.97099318,10.0960214 3.68040312,10.3866115 3.32133398,10.3866115 L3.32132425,10.3805258 Z M3.32132425,7.78344693 L3.32132425,7.78953262 C2.96378968,7.79105394 2.67166504,7.50198442 2.66862707,7.14291139 C2.66710574,6.78537683 2.95617527,6.49325219 3.3152483,6.4917332 L3.32133398,6.4917332 C3.68039143,6.4917332 3.97099318,6.78232327 3.97099318,7.13987342 C3.97099318,7.49893087 3.68040312,7.78953262 3.32133398,7.78953262 L3.32132425,7.78344693 Z M20.2549172,27.4629017 C20.104296,27.5161519 19.9841052,27.630259 19.9232483,27.7778345 C19.8623914,27.9254138 19.8654333,28.0912483 19.9338983,28.2342707 C20.2731739,28.9462863 20.1271174,29.7922064 19.57028,30.3490516 C19.0134426,30.9058968 18.1659957,31.0519533 17.4554991,30.7141928 C17.3109655,30.6472483 17.1451272,30.6426874 16.9990629,30.7035427 C16.8514835,30.7643996 16.7373803,30.8845905 16.6841301,31.0336927 C16.3874524,31.7122516 15.7119392,32.1458641 14.971024,32.1321542 L14.9360315,32.1321542 C14.2042302,32.156497 13.5241523,31.7502769 13.2001017,31.0914921 C13.1498933,30.918051 13.0266606,30.7765593 12.8623451,30.7035311 C12.7147657,30.6411513 12.5489313,30.6457161 12.4059089,30.7141811 C11.6938933,31.0519377 10.8479731,30.9058812 10.2911279,30.3490399 C9.73428277,29.7921947 9.58822629,28.9462746 9.92598676,28.234259 C9.99445024,28.0912444 9.999015,27.9254099 9.93815813,27.7778228 C9.87730127,27.6302434 9.75558754,27.5161402 9.60648919,27.46289 C8.89447361,27.1251334 8.46086115,26.3887712 8.50954664,25.6022084 C8.50498228,24.8871548 8.93096826,24.2390146 9.59126037,23.9621305 C9.74796534,23.9104031 9.87424382,23.7947731 9.93662356,23.6426329 C9.99900331,23.4950536 9.99443856,23.3292191 9.92597352,23.1861967 C9.58821694,22.4741811 9.73427342,21.628261 10.2911147,21.0714158 C10.8479599,20.5145706 11.69388,20.3685141 12.4058956,20.7062746 C12.5489102,20.7732191 12.7147447,20.7777799 12.8623318,20.7169246 C13.0083883,20.6560678 13.1224954,20.5358769 13.1772647,20.3867747 C13.4359054,19.6397445 14.1403416,19.1422567 14.9299424,19.1483326 C15.7195431,19.1422473 16.4254828,19.6397445 16.684139,20.3867747 C16.7373893,20.535873 16.8514964,20.6560678 16.9990719,20.7169246 C17.1451283,20.7777815 17.3109628,20.7732167 17.4555081,20.7062746 C18.1660047,20.368518 19.0134438,20.5145745 19.56877,21.0698929 C20.1256152,21.6267381 20.2716717,22.4741772 19.9354341,23.1846738 C19.8669706,23.3292074 19.8624058,23.4950458 19.9232627,23.64111 C19.9841196,23.7886894 20.1043104,23.9027965 20.2534127,23.9560428 C20.9958469,24.2207712 21.4918547,24.9221577 21.4918547,25.7102395 C21.4918547,26.4968023 20.9958859,27.199704 20.2549316,27.4629172 L20.2549172,27.4629017 Z M26.684518,36.350925 C26.3254606,36.3524467 26.0333398,36.0633768 26.0318208,35.7058617 C26.0302991,35.3468043 26.319369,35.0546835 26.6784421,35.0531646 L26.6845278,35.0531646 C27.0435852,35.0531646 27.334187,35.3437546 27.334187,35.7028238 C27.334187,36.0603583 27.0435969,36.350964 26.6845278,36.350964 L26.684518,36.350925 Z M26.684518,33.7538462 L26.684518,33.7553679 C26.3254606,33.7568892 26.0333398,33.4678197 26.0318208,33.1087466 C26.0302991,32.7496931 26.319369,32.4575685 26.6784421,32.4560495 L26.6845278,32.4560495 C27.0435852,32.4560495 27.334187,32.7466395 27.334187,33.1057087 C27.334187,33.4647778 27.0435969,33.7553679 26.6845278,33.7553679 L26.684518,33.7538462 Z M26.684518,31.1567673 L26.684518,31.1582886 C26.3254606,31.1598099 26.0333398,30.8707404 26.0318208,30.5116674 C26.0302991,30.1541328 26.319369,29.8620082 26.6784421,29.8604892 L26.6845278,29.8604892 C27.0435852,29.8604892 27.334187,30.1510793 27.334187,30.5086294 C27.334187,30.8676869 27.0435969,31.1582886 26.6845278,31.1582886 L26.684518,31.1567673 Z M26.684518,28.5596884 L26.684518,28.5612097 C26.3254606,28.5627315 26.0333398,28.2736615 26.0318208,27.9161464 C26.0302991,27.557089 26.319369,27.2649683 26.6784421,27.2634493 L26.6845278,27.2634493 C27.0435852,27.2634493 27.334187,27.5540393 27.334187,27.9131085 C27.334187,28.270643 27.0435969,28.5612487 26.6845278,28.5612487 L26.684518,28.5596884 Z M26.684518,25.9626095 L26.684518,25.9656526 C26.3254606,25.9671739 26.0333398,25.6781044 26.0318208,25.3190314 C26.0302991,24.9599778 26.319369,24.6678532 26.6784421,24.6663342 L26.6845278,24.6663342 C27.0435852,24.6663342 27.334187,24.9569242 27.334187,25.3159934 C27.334187,25.6750625 27.0435969,25.9656526 26.6845278,25.9656526 L26.684518,25.9626095 Z M26.684518,23.3655307 L26.684518,23.3685733 C26.3254606,23.3700946 26.0333398,23.0810251 26.0318208,22.7219521 C26.0302991,22.3644175 26.319369,22.0722929 26.6784421,22.0707739 L26.6845278,22.0707739 C27.0435852,22.0707739 27.334187,22.361364 27.334187,22.7189141 C27.334187,23.0779716 27.0435969,23.3685733 26.6845278,23.3685733 L26.684518,23.3655307 Z M26.684518,20.7684518 L26.684518,20.7714944 C26.3254606,20.7730162 26.0333398,20.4839463 26.0318208,20.1264312 C26.0302991,19.7673737 26.319369,19.475253 26.6784421,19.473734 L26.6845278,19.473734 C27.0435852,19.473734 27.334187,19.7643241 27.334187,20.1233932 C27.334187,20.4809278 27.0435969,20.7715334 26.6845278,20.7715334 L26.684518,20.7684518 Z M26.684518,18.1713729 L26.684518,18.1759373 C26.3254606,18.1774586 26.0333398,17.8883891 26.0318208,17.5293161 C26.0302991,17.1702625 26.319369,16.8781379 26.6784421,16.8766189 L26.6845278,16.8766189 C27.0435852,16.8766189 27.334187,17.167209 27.334187,17.5262781 C27.334187,17.8853472 27.0435969,18.1759373 26.6845278,18.1759373 L26.684518,18.1713729 Z M26.684518,15.5742941 L26.684518,15.5788584 C26.3254606,15.5803797 26.0333398,15.2913102 26.0318208,14.9322372 C26.0302991,14.5747026 26.319369,14.282578 26.6784421,14.281059 L26.6845278,14.281059 C27.0435852,14.281059 27.334187,14.5716491 27.334187,14.9291992 C27.334187,15.2882567 27.0435969,15.5788584 26.6845278,15.5788584 L26.684518,15.5742941 Z M22.1400195,9.08704966 C21.7824849,9.08704966 21.4918793,8.79645959 21.4918793,8.43890944 L21.4918793,2.30142162 L27.7921714,9.08704966 L22.1400195,9.08704966 Z" id="Shape" fill-rule="nonzero"></path>
                    <path d="M19.8198637,25.1793574 C19.3223759,25.0028705 18.925258,24.6255501 18.7229211,24.1386952 C18.5220954,23.6518403 18.5357858,23.1025901 18.7624771,22.627926 C18.8644129,22.413406 18.8202921,22.1562999 18.6514119,21.9889387 C18.4825355,21.8200623 18.2269523,21.7759377 18.0124245,21.8778734 C17.5362025,22.1045648 16.9885102,22.118259 16.5016553,21.9159089 C16.0148004,21.7150832 15.6374684,21.3164541 15.4609932,20.8204853 C15.3849231,20.593794 15.1704031,20.4431727 14.9300097,20.4477375 C14.691147,20.4416518 14.4766115,20.593794 14.4005453,20.8204853 C14.2240584,21.3164541 13.8452191,21.7150909 13.3583642,21.9159089 C12.8730282,22.1182574 12.3238169,22.1045671 11.8475949,21.8778734 C11.633075,21.7759377 11.3774878,21.8200584 11.2086076,21.9889387 C11.0397313,22.157815 10.9956066,22.4133982 11.0990652,22.627926 C11.3242337,23.104148 11.3379279,23.6533593 11.1371007,24.1386952 C10.9347521,24.6255501 10.537646,25.0044012 10.0416771,25.1793574 C9.88344927,25.2402142 9.81498578,25.4714703 9.80737916,25.6494645 L9.80737916,25.6509858 C9.7815147,25.8944132 9.89410166,26.1317648 10.101015,26.2641114 C10.5726411,26.4451591 10.9484541,26.8133616 11.1371202,27.2819498 C11.3379459,27.7688047 11.3242555,28.316497 11.0990847,28.792719 C10.997149,29.0072389 11.0412697,29.2643451 11.2086271,29.4317063 C11.3775034,29.6005827 11.6330867,29.6447073 11.8476144,29.5412487 C12.3238364,29.3160802 12.8730477,29.302386 13.3583836,29.5032132 C13.8452386,29.7055618 14.2240896,30.104187 14.4005648,30.5986368 C14.5283622,30.7720779 14.7383213,30.8618423 14.951334,30.8344576 C15.164335,30.8481503 15.3651607,30.7416514 15.4762415,30.5606037 C15.6557702,30.0798247 16.0270107,29.6979747 16.5016748,29.5032327 C16.9885297,29.302407 17.536222,29.3160974 18.012444,29.5412682 C18.226964,29.6447229 18.4840701,29.6006021 18.6514314,29.4317258 C18.8203077,29.2628495 18.8644323,29.0072662 18.7624966,28.7927385 C18.5358053,28.3165165 18.522111,27.7673052 18.7229406,27.2819692 C18.9252892,26.7951143 19.3223953,26.4162633 19.8198832,26.2397881 C20.0435326,26.1606761 20.1941538,25.9476752 20.1941538,25.7103237 C20.1941538,25.471461 20.0435326,25.2600023 19.8198832,25.1793402 L19.8198637,25.1793574 Z M15.0031159,28.2359104 L15.0015945,28.2374317 C13.9533375,28.2374317 13.0070084,27.6045204 12.6053725,26.6353675 C12.2021788,25.6662146 12.4243248,24.5494863 13.1667747,23.807052 C13.9092245,23.0646177 15.0244183,22.8424561 15.9950902,23.2441309 C16.964243,23.6457667 17.5971544,24.5920958 17.5971544,25.6418719 C17.5956327,27.0735369 16.4347786,28.2343548 15.0015945,28.2374317 L15.0031159,28.2359104 Z" id="Shape" fill-rule="nonzero"></path>
                    <path d="M16.2993184,25.6420643 C16.2993184,27.3703992 13.7052775,27.3703992 13.7052775,25.6420643 C13.7052775,23.9137293 16.2993184,23.9137293 16.2993184,25.6420643" id="Shape" fill-rule="nonzero"></path>
                </g>
            </g>
        </g>
    </g>
</svg>