<?xml version="1.0" encoding="UTF-8"?>
<svg width="165px" height="120px" viewBox="0 0 165 120" version="1.1" xmlns="http://www.w3.org/2000/svg" xmlns:xlink="http://www.w3.org/1999/xlink">
    <g id="Create-Application" stroke="none" stroke-width="1" fill="none" fill-rule="evenodd">
        <g id="Create-Application----All-Success" transform="translate(-878.000000, -157.000000)">
            <g id="Group-2-Copy-3" transform="translate(878.000000, 157.000000)">
                <g id="Group-2-Copy-2">
                    <path d="M141.754547,93.9838328 C140.946282,102.24499 136.270249,110.516064 135.06529,111.478048 C133.860332,112.440031 131.683472,111.91937 130.176034,111.91937 L10.7016541,111.91937 C7.65702596,106.603668 4.29504249,101.565651 2.61405076,95.7590394 C-2.08181701,79.5838328 12.8586789,68.6449898 22.5132243,58.2962295 C28.0371913,52.3458163 28.4636375,43.8367254 33.2388441,37.5094526 C39.7892574,28.8466427 50.8619846,24.3292873 61.4338855,23.6251551 C73.5826458,22.8168906 83.9115714,27.1904444 91.2950425,37.0135849 C97.364464,45.1160642 100.825621,57.6466427 110.366117,62.5210229 C113.787604,64.2664774 117.754547,64.4797006 121.458679,65.4962295 C133.547935,68.7392047 142.999175,81.2598658 141.754547,93.9838328 Z" id="Shape" fill="#000000" fill-rule="nonzero" opacity="0.05"></path>
                    <path d="M34.7909103,71.873089 L44.133059,71.873089 L44.133059,111.324329 L32.3859516,111.324329 L32.3859516,74.2780477 C32.3859516,72.9498257 33.4626883,71.873089 34.7909103,71.873089 Z" id="Shape" fill="#3F72BA" fill-rule="nonzero" opacity="0.2"></path>
                    <path d="M40.6619846,7.54416337 C39.2660183,7.76721513 37.8590012,7.91453809 36.4471086,7.98548568 C35.0388441,8.05986585 33.6355384,8.10945263 32.2272739,8.04498982 L32.1578524,8.04498982 C31.8307093,8.02879355 31.5586584,7.78765751 31.503307,7.46482453 L31.503307,7.46482453 C31.2895114,6.15588618 30.8658838,4.89002678 30.2487615,3.7160642 C29.6548815,2.6585569 28.6647387,1.88071501 27.4966954,1.55408073 C26.3850306,1.28733877 25.2180427,1.67121636 24.4818194,2.54581626 C23.8272739,3.39870883 23.8371913,4.7375518 23.9561995,6.09622949 L22.4685962,6.09622949 C22.5321443,5.41207902 22.3569376,4.72702106 21.9727284,4.15738651 C21.605176,3.61477591 21.0176667,3.26118239 20.3661169,3.19044436 C19.7539973,3.09349954 19.1356321,3.32280214 18.7347119,3.79540304 C18.348707,4.25201861 18.2387828,4.88123961 18.4471086,5.44168403 L17.0834722,6.04168403 C17.0564884,6.00110752 17.0161304,5.97127772 16.9694227,5.95738651 C16.8768756,5.93231628 16.7793251,5.93231628 16.686778,5.95738651 C16.4397775,6.05979061 16.2472242,6.26134171 16.1561995,6.51275841 C16.0125513,6.85404765 15.9513927,7.22439698 15.9776871,7.59375015 C16.0016793,7.97321295 16.1101026,8.34252978 16.2950425,8.67474188 L16.2950425,8.67474188 C16.493344,9.04037122 16.3579734,9.49752452 15.9925632,9.69622949 C15.8871553,9.75322756 15.7701418,9.78544867 15.6504144,9.79044436 C14.3611582,9.82019643 13.0768607,9.79044436 11.7925632,9.79044436 C10.5082656,9.79044436 9.21900943,9.73589891 7.93471191,9.68135345 C5.37603423,9.60697329 2.80248051,9.48796502 0.233885468,9.30945263 C0.167161977,9.30566568 0.104792947,9.27510261 0.0609168452,9.22469177 C0.0170407431,9.17428093 -0.00462623224,9.10829199 0.000827616499,9.04168403 C0.0102703795,8.91709036 0.109291801,8.81806894 0.233885468,8.80862618 C2.80248051,8.62515511 5.37603423,8.51110552 7.94462927,8.41689064 C9.22892679,8.36234519 10.518183,8.3375518 11.8024805,8.30779973 C13.086778,8.27804767 14.3710756,8.30779973 15.6603317,8.30779973 L15.0157036,9.41854354 L15.0157036,9.41854354 C14.7224,8.88987713 14.5528557,8.30155852 14.5198359,7.69788238 C14.4778109,7.08519455 14.5832344,6.47135737 14.8272739,5.90779973 C15.0976033,5.24548757 15.650933,4.73948209 16.3347119,4.52928734 C16.7208167,4.43342711 17.1268257,4.45588718 17.5000012,4.59375015 C17.9203821,4.74980201 18.2624094,5.06510838 18.4520673,5.4714361 L18.4520673,5.4714361 C18.5774083,5.71699614 18.5566404,6.01174286 18.3981042,6.2373008 C18.2395679,6.46285874 17.9692732,6.58222247 17.6957751,6.54745342 C17.422277,6.51268437 17.190446,6.32948681 17.0933896,6.0714361 L17.0933896,6.0714361 C16.6596605,5.00158349 16.8502626,3.77982406 17.5892574,2.8929237 C17.943061,2.45232841 18.4114499,2.11776489 18.9429764,1.92598155 C19.4550631,1.73997367 20.0037447,1.6771216 20.5446293,1.74251048 C21.6199221,1.86126072 22.590211,2.44234791 23.2024805,3.33424602 C23.7890771,4.19288213 24.0574165,5.22940872 23.9611582,6.26482453 C23.9244216,6.67228481 23.5655181,6.97358647 23.1578524,6.93920469 C22.7960357,6.90473457 22.5103514,6.61696504 22.4785136,6.25490717 C22.4111362,5.51097509 22.4111362,4.76247562 22.4785136,4.01854354 C22.5367516,3.17609763 22.8229989,2.36534935 23.3066127,1.67308899 C23.8318111,0.991668466 24.5536033,0.487971734 25.3743813,0.230113784 C26.1755885,-0.0290616923 27.0313728,-0.0701393364 27.8537202,0.111105519 C29.4247692,0.517156441 30.7656052,1.53976733 31.5727284,2.94746916 C32.2760444,4.25784223 32.7585457,5.67518966 33.0008276,7.14251048 L33.0008276,7.14251048 L32.2322326,6.55738651 C33.640497,6.4929237 35.0438028,6.55738651 36.4520673,6.61689064 C37.8639599,6.68783824 39.2709769,6.8351612 40.6669433,7.05821296 C40.7308769,7.06909559 40.7878067,7.10508564 40.82506,7.15817164 C40.8623134,7.21125765 40.8767983,7.27703358 40.8652904,7.34085759 C40.8477456,7.44501341 40.7661405,7.52661855 40.6619846,7.54416337 L40.6619846,7.54416337 Z" id="Shape" fill="#000000" fill-rule="nonzero"></path>
                    <path d="M135.600828,30.3838328 C136.591704,30.1617633 137.597826,30.014243 138.610745,29.9425105 C139.611343,29.8508291 140.617223,29.8309435 141.620662,29.8830063 L140.891737,30.4681303 L140.891737,30.4681303 C141.070161,29.3993427 141.423667,28.367307 141.938018,27.4135849 C142.544114,26.3604997 143.548479,25.5956095 144.724795,25.2912708 C145.346667,25.1532468 145.994277,25.1857987 146.599175,25.3854857 C147.226944,25.5813604 147.779216,25.9657006 148.180993,26.4863121 C148.549423,27.0063341 148.77044,27.6162737 148.820662,28.2516014 C148.873232,28.7957893 148.873232,29.3437771 148.820662,29.887965 C148.820662,30.2987553 148.487651,30.6317667 148.076861,30.6317667 C147.66607,30.6317667 147.333059,30.2987553 147.333059,29.887965 C147.257991,29.1013435 147.461572,28.3133422 147.908266,27.6615187 C148.142428,27.3215596 148.446797,27.0357911 148.800828,26.8235022 C149.154269,26.6134549 149.547892,26.4799948 149.9562,26.4317667 C150.376614,26.3833685 150.802526,26.4325775 151.200828,26.5755683 C151.824832,26.8103906 152.327964,27.2866364 152.596668,27.8968178 C152.865372,28.5069992 152.876999,29.1996873 152.628927,29.8185435 C152.467349,30.2019478 152.025554,30.3817738 151.64215,30.2201963 C151.258746,30.0586188 151.07892,29.6168238 151.240497,29.2334196 L151.240497,29.2334196 L151.240497,29.2334196 C151.39599,28.8894846 151.683918,28.6230165 152.038844,28.4945766 C152.343807,28.3825701 152.675151,28.3635869 152.99091,28.4400311 C153.551556,28.6024753 154.007789,29.0112603 154.23058,29.5507749 C154.420035,29.984328 154.501701,30.4573067 154.468596,30.9292873 C154.44104,31.3925423 154.308799,31.8435185 154.081819,32.2482956 L154.081819,32.2482956 L153.437191,31.1325931 C154.354547,31.0978824 155.271902,31.1325931 156.189257,31.1325931 C157.106613,31.1325931 158.023968,31.1871386 158.941323,31.241684 C160.776034,31.3358989 162.610745,31.4549072 164.445456,31.6383782 C164.511345,31.6446346 164.571998,31.6769758 164.613909,31.7282008 C164.655821,31.7794259 164.675511,31.8452819 164.668596,31.9111055 C164.655438,32.0284617 164.562812,32.1210882 164.445456,32.134246 C162.610745,32.3177171 160.776034,32.4317667 158.941323,32.5259816 C158.023968,32.5854857 157.106613,32.6053204 156.189257,32.6350725 C155.271902,32.6648245 154.354547,32.6350725 153.437191,32.6350725 L153.437191,32.6350725 C153.024663,32.6110763 152.708373,32.2593974 152.7281,31.8466427 C152.732787,31.7284379 152.765051,31.6129669 152.822315,31.5094526 L152.822315,31.5094526 C152.937949,31.3004998 153.005698,31.0684592 153.020662,30.8301138 C153.035103,30.6016088 152.997814,30.3727897 152.911571,30.1606923 C152.868278,30.041223 152.783914,29.9410406 152.673555,29.8780477 C152.647353,29.8729637 152.620418,29.8729637 152.594216,29.8780477 C152.594216,29.8780477 152.594216,29.8780477 152.633885,29.8235022 L151.275208,29.2235022 C151.385276,28.8966944 151.317678,28.5361717 151.096695,28.2714361 C150.852181,27.9859045 150.475364,27.8502502 150.10496,27.9144113 C149.701601,27.9569683 149.33812,28.176874 149.113224,28.5144113 C148.865116,28.8795437 148.751215,29.3193762 148.79091,29.7590394 L147.303307,29.7590394 C147.397522,28.7970559 147.382646,27.8945766 146.971076,27.3739154 C146.496264,26.81675 145.749822,26.5717641 145.037191,26.7392047 C144.256468,26.9534961 143.593984,27.4713403 143.197522,28.1772212 C142.774105,29.0035914 142.486142,29.8925954 142.344629,30.8102791 L142.344629,30.8102791 C142.296582,31.1273364 142.034803,31.368503 141.714877,31.3904444 L141.620662,31.3904444 C140.617185,31.4400296 139.611479,31.4201475 138.610745,31.3309402 C137.59743,31.2600387 136.59112,31.110833 135.600828,30.8846592 C135.463898,30.8846592 135.352894,30.7736555 135.352894,30.6367254 C135.352894,30.4997953 135.463898,30.3887915 135.600828,30.3887915 L135.600828,30.3838328 Z" id="Shape" fill="#000000" fill-rule="nonzero"></path>
                    <path d="M24.8636375,112.197056 L149.837191,112.197056" id="Shape" fill="#E5EEFD" fill-rule="nonzero"></path>
                    <path d="M12.8636375,111.864825 C18.0752078,111.711106 23.2768607,111.686312 28.4884309,111.691271 L44.1082656,111.691271 L75.3479351,111.666477 L106.587604,111.641684 L122.207439,111.641684 C127.414051,111.641684 132.620662,111.641684 137.832233,111.785486 C138.07323,111.785486 138.268596,111.980852 138.268596,112.221849 C138.268596,112.462846 138.07323,112.658213 137.832233,112.658213 C132.620662,112.792097 127.419009,112.802015 122.207439,112.806973 L106.587604,112.806973 L75.3479351,112.78218 L44.1082656,112.78218 L28.4884309,112.78218 C23.2818194,112.78218 18.0752078,112.78218 12.8636375,112.608626 C12.6944508,112.587995 12.5672625,112.444355 12.5672625,112.273915 C12.5672625,112.103475 12.6944508,111.959836 12.8636375,111.939205 L12.8636375,111.864825 Z" id="Shape" fill="#000000" fill-rule="nonzero"></path>
                    <path d="M21.7892574,112.197056 L22.1958689,112.197056" id="Shape" fill="#E5EEFD" fill-rule="nonzero"></path>
                    <path d="M21.7892574,111.701188 C21.8566588,111.691211 21.9251618,111.691211 21.9925632,111.701188 C22.0271152,111.696494 22.0621433,111.696494 22.0966954,111.701188 C22.1318382,111.710913 22.165284,111.725963 22.1958689,111.745816 C22.3139811,111.817777 22.396672,111.935797 22.4239773,112.071383 C22.4512826,112.206968 22.4207209,112.347796 22.3396706,112.459866 C22.3016586,112.515429 22.2527308,112.562669 22.1958689,112.598709 C22.1663598,112.620466 22.1325501,112.635681 22.0966954,112.643337 C22.0621354,112.647913 22.0271231,112.647913 21.9925632,112.643337 C21.9249994,112.650789 21.8568211,112.650789 21.7892574,112.643337 C21.6569948,112.616242 21.5414983,112.536389 21.4694395,112.422218 C21.3973807,112.308047 21.3749904,112.16943 21.4074392,112.038378 C21.4628421,111.864203 21.6095678,111.734627 21.7892574,111.701188 Z" id="Shape" fill="#000000" fill-rule="nonzero"></path>
                    <path d="M16.7859516,112.197056 L18.8140508,112.197056" id="Shape" fill="#E5EEFD" fill-rule="nonzero"></path>
                    <path d="M16.7859516,111.835072 C17.1112914,111.75777 17.4434956,111.712922 17.7776871,111.701188 C18.1115326,111.675027 18.4473683,111.708611 18.7694227,111.800362 C18.977885,111.867027 19.099197,112.083656 19.0471086,112.296229 C19.004484,112.427997 18.9011907,112.531291 18.7694227,112.573915 C18.4475387,112.666505 18.1112477,112.698453 17.7776871,112.66813 C17.4433017,112.65873 17.1108596,112.61385 16.7859516,112.534246 C16.5870377,112.48089 16.4677941,112.277734 16.518183,112.078048 C16.5624876,111.958244 16.6624199,111.867565 16.7859516,111.835072 L16.7859516,111.835072 Z" id="Shape" fill="#000000" fill-rule="nonzero"></path>
                    <path d="M60.9578524,118.846643 L99.9628111,118.846643" id="Shape" fill="#E5EEFD" fill-rule="nonzero"></path>
                    <path d="M72.9578524,118.509453 C74.5842987,118.355734 76.210745,118.335899 77.8322326,118.335899 L82.7115714,118.311106 L92.4603317,118.25656 L107.108266,118.25656 C108.734712,118.25656 110.3562,118.25656 111.982646,118.40532 C112.223643,118.40532 112.419009,118.600687 112.419009,118.841684 C112.419009,119.082681 112.223643,119.278048 111.982646,119.278048 C110.3562,119.406973 108.734712,119.416891 107.108266,119.426808 L92.4801665,119.426808 L82.7314061,119.377221 L77.8520673,119.352428 C76.2305797,119.352428 74.6041334,119.327634 72.9776871,119.173915 C72.8894342,119.166369 72.8078486,119.123894 72.7510527,119.055925 C72.6942569,118.987956 72.6669536,118.900122 72.6752078,118.811932 C72.6891558,118.658329 72.8055468,118.53377 72.9578524,118.509453 Z" id="Shape" fill="#000000" fill-rule="nonzero"></path>
                    <path d="M56.9115714,118.846643 L66.9082656,118.846643" id="Shape" fill="#000000" fill-rule="nonzero"></path>
                    <path d="M44.9115714,118.484659 C46.5776871,118.395403 48.2438028,118.365651 49.9099185,118.350775 C51.5760342,118.335899 53.2421499,118.350775 54.9082656,118.44499 C55.1300924,118.44499 55.3099185,118.624816 55.3099185,118.846643 C55.3099185,119.068469 55.1300924,119.248296 54.9082656,119.248296 C53.2421499,119.352428 51.5760342,119.357387 49.9099185,119.34251 C48.2438028,119.327634 46.5776871,119.292924 44.9115714,119.208626 C44.7116535,119.208626 44.549588,119.046561 44.549588,118.846643 C44.549588,118.646725 44.7116535,118.484659 44.9115714,118.484659 Z" id="Shape" fill="#000000" fill-rule="nonzero"></path>
                    <path d="M112.914877,61.2962295 C112.890084,61.6086262 112.875208,61.9259816 112.860332,62.2433369" id="Shape" fill="#93B9F4" fill-rule="nonzero"></path>
                    <path d="M49.1314061,62.1590394 L34.503307,27.0367254 C34.054486,25.9453921 34.5704753,24.696388 35.6586789,24.2400311 L71.5595053,9.33424602 C72.6467363,8.88168328 73.8951921,9.39392713 74.3512408,10.4797006 L92.3363648,53.7887915 C92.7877804,54.8787552 92.2706356,56.128337 91.1809929,56.580527 L63.4123979,68.11937" id="Shape" fill="#FFFFFF" fill-rule="nonzero"></path>
                    <path d="M52.6669433,72.5821799 L35.1132243,30.4334196 L34.0123979,27.795403 L33.8785136,27.4681303 L33.8041334,27.2945766 L33.7198359,27.0615187 C33.6293434,26.7542196 33.5875147,26.4346485 33.5958689,26.1144113 C33.6299689,25.1318614 34.1627582,24.2345321 35.0090921,23.734246 C35.1421902,23.6584906 35.2796161,23.5906055 35.4206623,23.5309402 L35.7528937,23.3970559 L37.071902,22.8466427 L39.7049598,21.7507749 L50.2520673,17.3772212 L71.3611582,8.61523775 C71.9672682,8.38597343 72.6331123,8.36849721 73.2504144,8.56565097 C73.8658241,8.76465328 74.3977698,9.16230447 74.7628111,9.69622949 C74.8511273,9.83057926 74.9290404,9.97148592 74.9958689,10.1177171 C75.0652904,10.2664774 75.0950425,10.3458163 75.1446293,10.4648245 L75.4173565,11.1243287 L75.9727284,12.4631716 L78.1595053,17.734246 L82.5380177,28.2813535 L91.2950425,49.365651 L92.3859516,52.0036675 L92.9363648,53.3226758 C93.0570822,53.5909677 93.1469149,53.8721108 93.2041334,54.1606923 C93.4135773,55.4730407 92.7075586,56.7606067 91.4884309,57.2896179 L90.8239681,57.5623452 L88.1859516,58.658213 L77.6438028,63.041684 L67.0966954,67.4152378 L61.8057863,69.5623452 C60.0454557,70.2763948 58.2702491,70.9606923 56.4355384,71.5061468 C56.2280186,71.5586176 56.0134072,71.4509906 55.931345,71.2532952 C55.8492828,71.0555999 55.9245896,70.8276295 56.1082656,70.7177171 C57.7892574,69.8053204 59.5247946,69.026808 61.2801665,68.2830063 L66.5314061,66.0516014 L77.0735549,61.6681303 L87.6157036,57.2896179 L90.2537202,56.1937501 L90.9082656,55.9259816 C91.0498986,55.862934 91.180487,55.7775492 91.2950425,55.673089 C91.5285278,55.4627488 91.6840534,55.1796573 91.7363648,54.8697832 C91.7611734,54.7170652 91.7611734,54.5613442 91.7363648,54.4086262 C91.6971065,54.237405 91.6388963,54.0710901 91.5628111,53.9127584 L91.0123979,52.5937501 L89.9214888,49.9557336 L81.164464,28.826808 L76.7859516,18.2797006 L74.5991747,13.0086262 L74.0487615,11.6896179 L73.7760342,11.0301138 C73.7314061,10.9309402 73.6768607,10.7871386 73.6471086,10.7276344 C73.6150529,10.6566902 73.5768928,10.5886657 73.533059,10.5243287 C73.1772058,9.99181599 72.5050647,9.76913096 71.9016541,9.98383279 L50.8272739,18.7507749 L40.2801665,23.1292873 L37.6471086,24.2201964 L36.3281003,24.7706097 L35.9958689,24.9044939 C35.9180378,24.9353426 35.8433205,24.9735314 35.7727284,25.0185435 C35.6361062,25.0923694 35.516238,25.1936665 35.4206623,25.3160642 C35.2156638,25.554016 35.0984058,25.8550364 35.0884309,26.1689568 C35.0834802,26.3232394 35.1035756,26.4773042 35.1479351,26.6251551 L35.1876045,26.734246 L35.2520673,26.8929237 L35.3859516,27.2201964 L36.486778,29.8532543 L54.040497,72.0020146 C54.1495312,72.2487402 54.116442,72.5351604 53.9540239,72.750526 C53.7916058,72.9658916 53.5253175,73.0764445 53.2581238,73.0394376 C52.9909301,73.0024307 52.7647131,72.8236647 52.6669433,72.5722625 L52.6669433,72.5821799 Z" id="Shape" fill="#000000" fill-rule="nonzero"></path>
                    <path d="M76.0520673,39.0516014 L53.7429764,48.3094526" id="Shape" fill="#E5EEFD" fill-rule="nonzero"></path>
                    <path d="M76.2008276,39.4135849 C74.4168572,40.3496297 72.5845359,41.1904782 70.7115714,41.9325931 L65.1132243,44.1987088 C63.2537202,44.9673039 61.3743813,45.6863121 59.5049598,46.4301138 C57.6355384,47.1739154 55.7512408,47.8929237 53.8669433,48.6020146 C53.7013086,48.6623123 53.5179584,48.5783688 53.4553731,48.4135849 C53.3963095,48.2561785 53.4702513,48.0800231 53.6239681,48.011932 C55.4520673,47.1788741 57.2900838,46.3524278 59.1380177,45.5325931 C60.9876045,44.734246 62.8223152,43.9061468 64.6768607,43.1325931 L70.2355384,40.7722625 C72.0844942,39.9685746 73.974749,39.2634533 75.8983483,38.6598658 C76.0931466,38.6016376 76.3004337,38.7001113 76.3783595,38.8878996 C76.4562853,39.075688 76.3796203,39.2919922 76.2008276,39.3887915 L76.2008276,39.4135849 Z" id="Shape" fill="#A3ACD6" fill-rule="nonzero"></path>
                    <path d="M64.8900838,37.1871386 L51.4421499,42.7706097" id="Shape" fill="#E5EEFD" fill-rule="nonzero"></path>
                    <path d="M65.0190094,37.4896179 C62.8948365,38.6768978 60.6795855,39.6933266 58.394216,40.5292873 C56.1429764,41.426808 53.8669433,42.2747419 51.5561995,43.0433369 C51.4123724,43.0800134 51.2635144,43.0050719 51.207314,42.8676932 C51.1511136,42.7303144 51.2047649,42.5725283 51.333059,42.4978824 C53.5049598,41.4020146 55.7115714,40.3904444 57.9380177,39.4284609 C60.1429834,38.400778 62.4262206,37.5501602 64.7661169,36.8846592 C64.9440993,36.8410163 65.1238097,36.9497301 65.1677698,37.1276344 C65.2020529,37.2677975 65.1419431,37.4140645 65.0190094,37.4896179 L65.0190094,37.4896179 Z" id="Shape" fill="#A3ACD6" fill-rule="nonzero"></path>
                    <path d="M73.7512408,33.5077997 L68.0884309,35.858213" id="Shape" fill="#E5EEFD" fill-rule="nonzero"></path>
                    <path d="M73.8851251,33.8549072 C73.047003,34.4515119 72.1244136,34.919492 71.1479351,35.2433369 C70.194548,35.6208864 69.2192167,35.9404771 68.2272739,36.2003617 C68.1312453,36.2259488 68.0289704,36.2120379 67.9432643,36.1617321 C67.8575583,36.1114264 67.7955513,36.028911 67.7710756,35.9325931 C67.7302256,35.7706309 67.8008623,35.6011027 67.9446293,35.5160642 C68.8280284,34.9967119 69.7421019,34.5313955 70.6818194,34.1226758 C71.6014766,33.658052 72.5861956,33.3353851 73.6024805,33.165651 C73.7747904,33.1455019 73.9394375,33.2425509 74.0052591,33.4030632 C74.0710807,33.5635755 74.0219726,33.7482794 73.8851251,33.8549072 Z" id="Shape" fill="#A3ACD6" fill-rule="nonzero"></path>
                    <path d="M51.7446293,36.1507749 L49.1413235,37.2317667" id="Shape" fill="#E5EEFD" fill-rule="nonzero"></path>
                    <path d="M51.8438028,36.3838328 C51.5082771,36.7415202 51.1120818,37.0369879 50.6735549,37.2565601 C50.4680586,37.3717874 50.2501309,37.4632837 50.0239681,37.5292873 C49.7863469,37.6007779 49.5368955,37.6243746 49.2900838,37.5987088 C49.0468178,37.5677576 48.8740984,37.3463225 48.903307,37.1028411 C48.9142607,37.0252827 48.9449995,36.9518512 48.9925632,36.8896179 C49.1468049,36.6871362 49.3408732,36.5183813 49.5628111,36.3937501 C49.7684523,36.2800809 49.9863904,36.1902438 50.2123979,36.1259816 C50.6734134,35.9690428 51.1586235,35.89517 51.6454557,35.9077997 C51.7195757,35.9090366 51.7899988,35.9403921 51.8405126,35.9946476 C51.8910263,36.0489032 51.9172781,36.1213837 51.9132243,36.195403 C51.9139284,36.264593 51.8892278,36.3316377 51.8438028,36.3838328 Z" id="Shape" fill="#A3ACD6" fill-rule="nonzero"></path>
                    <path d="M71.4504144,27.9689568 L55.4438028,34.6135849" id="Shape" fill="#E5EEFD" fill-rule="nonzero"></path>
                    <path d="M71.5595053,28.2317667 C70.2371913,28.8466427 68.9231417,29.4499485 67.6173565,30.041684 C66.2983483,30.626808 64.9842987,31.226808 63.6504144,31.7970559 L59.6834722,33.5127584 C58.366539,34.1162865 57.0035331,34.6137339 55.6074392,35.0003617 C55.3884188,35.0450843 55.1720345,34.9130899 55.1115714,34.6978824 C55.0551315,34.5066166 55.1371408,34.3015934 55.3099185,34.2020146 C56.5674546,33.484269 57.8807982,32.8690538 59.2371913,32.3623452 L63.2586789,30.7557336 C64.6024805,30.2201964 65.9561995,29.7144113 67.3000012,29.1887915 C68.6438028,28.6631716 70.0024805,28.1673039 71.3661169,27.7011882 C71.5093195,27.6541399 71.6645521,27.7256361 71.7218783,27.8650428 C71.7792044,28.0044496 71.719173,28.1644656 71.5842987,28.2317667 L71.5595053,28.2317667 Z" id="Shape" fill="#000000" fill-rule="nonzero"></path>
                    <path d="M78.4371913,44.7937501 L62.4305797,51.4433369" id="Shape" fill="#E5EEFD" fill-rule="nonzero"></path>
                    <path d="M78.5462822,45.0615187 C77.2239681,45.6763948 75.9115714,46.2797006 74.6090921,46.8714361 C73.2851251,47.4565601 71.9710756,48.0565601 70.6421499,48.626808 L66.6752078,50.3425105 C65.3599739,50.946026 63.9986165,51.4434769 62.6041334,51.8301138 C62.3999894,51.8794191 62.1903385,51.7727541 62.110003,51.5787128 C62.0296674,51.3846716 62.1025661,51.1610275 62.2818194,51.0516014 C63.5399458,50.3363902 64.853217,49.722867 66.2090921,49.2168906 L70.2355384,47.6102791 C71.5743813,47.0747419 72.9281003,46.5689568 74.271902,46.0433369 C75.6157036,45.5177171 76.9743813,45.0218493 78.3380177,44.5557336 C78.4812203,44.5086853 78.636453,44.5801815 78.6937791,44.7195883 C78.7511052,44.858995 78.6910739,45.019011 78.5561995,45.0863121 L78.5462822,45.0615187 Z" id="Shape" fill="#A3ACD6" fill-rule="nonzero"></path>
                    <path d="M59.7628111,52.549122 L56.6140508,53.858213" id="Shape" fill="#E5EEFD" fill-rule="nonzero"></path>
                    <path d="M59.8768607,52.811932 C59.4022688,53.1465062 58.9052283,53.4480441 58.3892574,53.7144113 C58.1363648,53.8482956 57.8933896,53.9722625 57.625621,54.0962295 C57.3679142,54.255098 57.0588395,54.3083867 56.7628111,54.2449898 C56.483844,54.1787494 56.310933,53.8994316 56.3760342,53.6201964 C56.3914614,53.5681978 56.4131054,53.5182501 56.440497,53.4714361 C56.6060122,53.2205915 56.8616883,53.0430387 57.1545466,52.9755683 C57.4223152,52.8813535 57.6950425,52.7871386 57.9677698,52.7028411 C58.5164333,52.5289267 59.0764402,52.3930671 59.6438028,52.2962295 C59.7202271,52.2818799 59.799205,52.299088 59.8627322,52.3439307 C59.9262595,52.3887735 59.9689215,52.457429 59.9809929,52.534246 C59.9981766,52.6387441 59.9585184,52.7444994 59.8768607,52.811932 Z" id="Shape" fill="#A3ACD6" fill-rule="nonzero"></path>
                    <path d="M69.1495879,22.4251551 L46.6123979,31.7821799" id="Shape" fill="#E5EEFD" fill-rule="nonzero"></path>
                    <path d="M69.2487615,22.6681303 C67.4041334,23.5309402 65.5545466,24.3788741 63.6950425,25.1970559 C61.8355384,26.0152378 60.0008276,26.8433369 58.1016541,27.6317667 C56.2024805,28.4201964 54.3677698,29.2482956 52.4834722,30.011932 C50.5991747,30.7755683 48.6950425,31.4995353 46.7512408,32.1144113 C46.660505,32.1439308 46.5617283,32.1359018 46.476951,32.0921157 C46.3921738,32.0483297 46.328451,31.9724304 46.3000012,31.8813535 C46.2456275,31.7144935 46.3187762,31.5326667 46.4735549,31.4499485 C48.2884309,30.5127584 50.1429764,29.6697832 52.0123979,28.8763948 C53.8818194,28.0830063 55.7809929,27.3441634 57.6603317,26.5755683 C59.5396706,25.8069733 61.4388441,25.087965 63.333059,24.334246 C65.2272739,23.580527 67.1363648,22.8813535 69.0454557,22.1821799 C69.1837278,22.1321568 69.3364686,22.2029931 69.3876045,22.3408576 C69.4333209,22.469451 69.3729989,22.6116385 69.2487615,22.6681303 Z" id="Shape" fill="#000000" fill-rule="nonzero"></path>
                    <path d="M108.402481,35.3524278 L100.04215,72.4631716 C99.7810404,73.6127183 98.638448,74.3337717 97.4884309,74.0747419 L59.5743813,65.5210229 C59.0212295,65.3956772 58.5405874,65.0555955 58.2383146,64.5756792 C57.9360418,64.095763 57.836931,63.5153756 57.9628111,62.9623452 L68.3115714,17.2235022 C68.5750166,16.0732726 69.7190623,15.3527012 70.8702491,15.611932 L100.215704,22.241684" id="Shape" fill="#FFFFFF" fill-rule="nonzero"></path>
                    <path d="M100.215704,22.241684 L108.44215,35.1937501" id="Shape" stroke="#000000" stroke-width="1.3" fill="#000000" fill-rule="nonzero" stroke-linecap="round" stroke-linejoin="round"></path>
                    <path d="M109.131406,35.5160642 L104.792563,54.780527 L102.645456,64.4102791 L101.559505,69.2251551 L101.019009,71.6301138 L100.880166,72.2350725 C100.83058,72.4433369 100.805786,72.6069733 100.71653,72.8995353 C100.543718,73.431577 100.217698,73.9007692 99.77934,74.2482956 C99.1199021,74.7753189 98.2635991,74.9889421 97.4338855,74.8334196 C97.1859516,74.7838328 97.0223152,74.7392047 96.8090921,74.6945766 L94.4041334,74.149122 L89.5892574,73.058213 L79.9595053,70.8813535 L60.6851251,66.5127584 L59.4801665,66.2400311 C58.9424831,66.1287639 58.4473283,65.8674322 58.0520673,65.4863121 C57.6477186,65.1023938 57.3664185,64.6070986 57.2438028,64.0631716 C57.176042,63.7927075 57.1525971,63.5130434 57.1743813,63.2350725 C57.1803355,63.0965375 57.1985891,62.9588057 57.2289268,62.8235022 L57.2933896,62.5111055 L58.3842987,57.6962295 L60.5661169,48.0714361 L64.9247946,28.826808 L67.1016541,19.2020146 L67.3743813,17.9970559 L67.5082656,17.3970559 L67.5776871,17.0945766 C67.6085565,16.9636503 67.6466309,16.8345281 67.6917367,16.7077997 C68.1857204,15.3457995 69.615695,14.5638817 71.0289268,14.8830063 L71.6338855,15.0168906 L72.8338855,15.2896179 L75.2438028,15.8350725 L84.8685962,18.0168906 L89.6735549,19.1524278 C91.2823786,19.5138189 92.869937,19.9640962 94.4289268,20.5011882 C94.6294558,20.5777312 94.7432124,20.7900528 94.6958589,20.9994051 C94.6485054,21.2087574 94.4544471,21.3514542 94.240497,21.334246 C92.6016245,21.1463801 90.9743601,20.8682718 89.3661169,20.5011882 L84.5413235,19.4598658 L74.9165301,17.287965 L72.5066127,16.7425105 L71.3066127,16.4697832 L70.7016541,16.3309402 C70.5713094,16.3035997 70.4379245,16.2935959 70.3049598,16.3011882 C69.7544526,16.3404336 69.2785261,16.6998066 69.0900838,17.2185435 C69.0652904,17.2830063 69.0553731,17.3325931 69.0305797,17.4218493 L68.9611582,17.7243287 L68.8223152,18.3243287 L68.5545466,19.5292873 L66.3727284,29.1590394 L62.0140508,48.4135849 L59.8371913,58.0433369 L58.7462822,62.8532543 L58.6818194,63.1458163 C58.6766663,63.2118316 58.6766663,63.2781481 58.6818194,63.3441634 C58.6709324,63.4774061 58.6826683,63.6115304 58.7165301,63.7408576 C58.7745301,64.0048888 58.9110975,64.2451782 59.1082656,64.4301138 C59.2025157,64.5245755 59.311343,64.603266 59.4305797,64.6631716 C59.5563524,64.7302342 59.6918943,64.7770882 59.8322326,64.8020146 L61.0371913,65.0747419 L80.2917367,69.4334196 L89.9214888,71.6152378 L94.7363648,72.7011882 L97.1413235,73.2466427 L97.7214888,73.3755683 C97.8546445,73.3953213 97.9899859,73.3953213 98.1231417,73.3755683 C98.6707522,73.3181954 99.1342123,72.9458761 99.3082656,72.4235022 C99.3380177,72.3243287 99.3925632,72.0813535 99.4371913,71.8929237 L99.5710756,71.287965 L100.111571,68.8830063 L101.157852,64.0830063 L103.324795,54.4532543 L107.663638,35.1937501 C107.721213,34.9342159 107.912876,34.7251127 108.166427,34.6452077 C108.419978,34.5653028 108.696898,34.6267355 108.892873,34.8063648 C109.088848,34.985994 109.174106,35.2565299 109.11653,35.5160642 L109.131406,35.5160642 Z" id="Shape" fill="#000000" fill-rule="nonzero"></path>
                    <path d="M100.939671,22.4102791 L98.5595053,32.9573865 L97.994216,32.0598658 C98.9363648,32.3028411 99.8785136,32.5557336 100.820662,32.8334196 C101.31653,32.9623452 101.76777,33.0863121 102.233885,33.2350725 C102.700001,33.3838328 103.161158,33.5474692 103.637191,33.6714361 C103.852399,33.7318992 103.984393,33.9482834 103.939671,34.1673039 C103.883479,34.3861096 103.664773,34.5217077 103.443803,34.4747419 C102.947935,34.3854857 102.452067,34.3408576 101.99091,34.2615187 C101.529753,34.1821799 101.023968,34.1077997 100.542976,34.0235022 C99.5809929,33.8499485 98.6140508,33.6863121 97.657026,33.4978824 C97.4668058,33.4607466 97.2992064,33.3493853 97.1912702,33.1884116 C97.083334,33.0274378 97.0439488,32.8301064 97.0818194,32.6400311 L97.0818194,32.6003617 L99.471902,22.0532543 C99.5636452,21.6520491 99.9632588,21.4011806 100.364464,21.4929238 C100.765669,21.5846669 101.016538,21.9842805 100.924795,22.3854857 L100.939671,22.4102791 Z" id="Shape" fill="#000000" fill-rule="nonzero"></path>
                    <path d="M73.0818194,38.6598658 L96.640497,43.995403" id="Shape" fill="#E5EEFD" fill-rule="nonzero"></path>
                    <path d="M73.1661169,38.2780477 C75.1679546,38.5442585 77.1542276,38.9166846 79.1165301,39.3937501 L84.9975218,40.7722625 C86.9809929,41.2235022 88.9099185,41.7243287 90.8636375,42.195403 C92.8173565,42.6664774 94.7710756,43.1871386 96.7198359,43.6830063 C96.8909985,43.7227161 96.9975621,43.8936619 96.9578524,44.0648245 C96.9181426,44.2359871 96.7471968,44.3425508 96.5760342,44.3028411 C94.5925632,43.9259816 92.6090921,43.5392047 90.6553731,43.1276344 C88.7016541,42.7160642 86.6884309,42.31937 84.7446293,41.8830063 L78.8438028,40.5937501 C76.8708191,40.1812321 74.9209967,39.6648106 73.0024805,39.0466427 C72.9038008,39.0138285 72.8222182,38.9431238 72.7757113,38.85011 C72.7292043,38.7570962 72.7215901,38.6494073 72.7545466,38.5507749 C72.8083233,38.3727376 72.9811992,38.2581813 73.1661169,38.2780477 Z" id="Shape" fill="#000000" fill-rule="nonzero"></path>
                    <path d="M81.1099185,46.6334196 L95.3115714,49.8466427" id="Shape" fill="#E5EEFD" fill-rule="nonzero"></path>
                    <path d="M81.1842987,46.3111055 C83.6029476,46.5759588 85.9970768,47.0302465 88.3446293,47.6697832 C90.7049598,48.2400311 93.0504144,48.8648245 95.3809929,49.5739154 C95.4554124,49.5967609 95.5176583,49.6483239 95.5539536,49.717192 C95.590249,49.7860601 95.5976006,49.8665539 95.5743813,49.9408576 C95.531766,50.0816309 95.3926816,50.1701392 95.2471086,50.149122 C92.8421499,49.7871386 90.457026,49.3358989 88.0818194,48.8350725 C85.6887673,48.4000201 83.3342026,47.7748997 81.040497,46.965651 C80.8897096,46.9046666 80.8052459,46.7434789 80.8409209,46.5847866 C80.8765959,46.4260942 81.0219187,46.316564 81.1842987,46.3259816 L81.1842987,46.3111055 Z" id="Shape" fill="#000000" fill-rule="nonzero"></path>
                    <path d="M71.7578524,44.5160642 L77.733059,45.8648245" id="Shape" fill="#E5EEFD" fill-rule="nonzero"></path>
                    <path d="M71.8371913,44.149122 C72.8673552,44.1456249 73.892138,44.2977541 74.8768607,44.6003617 C75.8745567,44.8407818 76.856566,45.1421742 77.8173565,45.5028411 C77.9122385,45.5392546 77.9883915,45.6124462 78.0285379,45.7058099 C78.0686843,45.7991737 78.0694206,45.9047945 78.0305797,45.9987088 C77.9701933,46.1545299 77.8154925,46.2529759 77.6487615,46.241684 C76.6278062,46.1489927 75.6129458,45.9983364 74.6090921,45.7904444 C73.5908583,45.6385341 72.601272,45.3343032 71.6735549,44.887965 C71.5833773,44.8387373 71.5164909,44.7556539 71.4876525,44.657045 C71.458814,44.5584361 71.4703934,44.4524052 71.5198359,44.3623452 C71.5813997,44.2409684 71.7015493,44.1602429 71.8371913,44.149122 L71.8371913,44.149122 Z" id="Shape" fill="#000000" fill-rule="nonzero"></path>
                    <path d="M91.240497,55.073089 L93.9876045,55.6978824" id="Shape" fill="#E5EEFD" fill-rule="nonzero"></path>
                    <path d="M91.2950425,54.8301138 C91.7739971,54.7364537 92.2655477,54.7263879 92.7479351,54.8003617 C92.9825272,54.8267811 93.2136041,54.8783163 93.4371913,54.9540807 C93.6717746,55.0346797 93.8888642,55.1592117 94.0768607,55.3210229 C94.257265,55.4882358 94.268354,55.7698965 94.1016541,55.9507749 C94.0471494,56.0082839 93.9788845,56.0509495 93.903307,56.0747419 C93.6647092,56.1413693 93.4152485,56.1599103 93.1694227,56.1292873 C92.9357704,56.1041176 92.7060098,56.0508398 92.4851251,55.9706097 C92.017665,55.831082 91.5780498,55.6112744 91.1859516,55.3210229 C91.1270803,55.2758974 91.0887103,55.209094 91.0793952,55.1355048 C91.0700802,55.0619157 91.0905944,54.9876586 91.1363648,54.9292873 C91.1742735,54.8767728 91.2312267,54.841177 91.2950425,54.8301138 Z" id="Shape" fill="#A3ACD6" fill-rule="nonzero"></path>
                    <path d="M70.4338855,50.3673039 L87.333059,54.1904444" id="Shape" fill="#000000" fill-rule="nonzero"></path>
                    <path d="M70.4933896,50.0846592 C71.9214888,50.3375518 73.3396706,50.580527 74.7578524,50.887965 C76.1760342,51.195403 77.594216,51.4433369 79.0074392,51.7408576 L83.2421499,52.6433369 C84.6655692,52.9104345 86.0651426,53.2918349 87.4272739,53.7838328 C87.6161244,53.8646948 87.7204815,54.0687084 87.6755307,54.2691644 C87.63058,54.4696204 87.4490992,54.6095371 87.2438028,54.6020146 C85.8024584,54.4573787 84.3748468,54.1987173 82.9743813,53.8284609 L78.764464,52.8367254 C77.3561995,52.5044939 75.9628111,52.1325931 74.5595053,51.7854857 C73.1561995,51.4383782 71.7628111,51.0565601 70.3694227,50.6697832 C70.2959642,50.6501365 70.2335204,50.6017199 70.1961965,50.5354699 C70.1588725,50.4692199 70.1498171,50.3907254 70.1710756,50.3177171 C70.1988203,50.1662865 70.3408912,50.0635582 70.4933896,50.0846592 Z" id="Shape" fill="#000000" fill-rule="nonzero"></path>
                    <path d="M74.4553731,32.595403 L91.3595053,36.4185435" id="Shape" fill="#E5EEFD" fill-rule="nonzero"></path>
                    <path d="M74.5198359,32.2978824 C75.9446293,32.5524278 77.364464,32.8201964 78.77934,33.1011882 C80.1925632,33.3838328 81.6157036,33.6565601 83.0289268,33.9540807 L87.2735549,34.8714361 C88.6971438,35.1377944 90.0967764,35.5192109 91.4586789,36.011932 C91.6634525,36.080628 91.7831579,36.2930026 91.7358976,36.5037581 C91.6886373,36.7145135 91.4897076,36.8554367 91.2752078,36.8301138 C89.833924,36.6850465 88.4063463,36.4263913 87.0057863,36.0565601 L82.7958689,35.0648245 C81.3876045,34.7325931 79.994216,34.3606923 78.5909103,34.0135849 C77.1876045,33.6664774 75.794216,33.2846592 74.4008276,32.8978824 C74.3273691,32.8782357 74.2649254,32.8298191 74.2276014,32.7635691 C74.1902775,32.6973191 74.181222,32.6188246 74.2024805,32.5458163 C74.2255013,32.391928 74.3649502,32.2829835 74.5198359,32.2978824 Z" id="Shape" fill="#000000" fill-rule="nonzero"></path>
                    <path d="M94.1710756,37.058213 L97.503307,37.811932" id="Shape" fill="#E5EEFD" fill-rule="nonzero"></path>
                    <path d="M94.2157036,36.7606923 C94.7928925,36.7626196 95.3693346,36.8023743 95.9413235,36.8797006 C96.2239681,36.9144113 96.5066127,36.9590394 96.7842987,37.0086262 C97.0865065,37.030902 97.3694798,37.1653143 97.5776871,37.3854857 C97.6750661,37.4862897 97.7252374,37.6235957 97.7157888,37.7634343 C97.7063403,37.9032729 97.6381544,38.0325817 97.5281003,38.11937 C97.4867674,38.1549097 97.4398572,38.1833909 97.3892574,38.2036675 C97.109035,38.3151819 96.7967525,38.3151819 96.5165301,38.2036675 C96.2438028,38.1243287 95.9661169,38.0449898 95.6983483,37.9557336 C95.1485786,37.7821315 94.611714,37.5700368 94.0917367,37.3210229 C94.0211284,37.2877597 93.9667389,37.2276616 93.9406645,37.1540946 C93.9145901,37.0805276 93.918993,36.9995917 93.9528937,36.9292873 C94.0024784,36.8287229 94.1036236,36.7638373 94.2157036,36.7606923 Z" id="Shape" fill="#000000" fill-rule="nonzero"></path>
                    <path d="M69.1099185,56.2185435 L84.1347119,59.6201964" id="Shape" fill="#E5EEFD" fill-rule="nonzero"></path>
                    <path d="M69.164464,55.9606923 C70.4388441,56.1590394 71.7082656,56.3673039 72.9677698,56.6102791 C74.2272739,56.8532543 75.4917367,57.1061468 76.7512408,57.349122 C79.2827514,57.8039375 81.7771581,58.4453563 84.2140508,59.2681303 C84.3042141,59.3015648 84.3773684,59.3695014 84.417371,59.4569491 C84.4573737,59.5443967 84.4609367,59.6441676 84.4272739,59.734246 C84.3702514,59.8876384 84.2185458,59.98473 84.0553731,59.9722625 C81.5017057,59.6621082 78.9742523,59.1649042 76.4933896,58.4846592 C75.2438028,58.1821799 74.0140508,57.8549072 72.7595053,57.5226758 C71.5049598,57.1904444 70.2801665,56.8433369 69.0504144,56.4763948 C68.911586,56.431272 68.8329034,56.284835 68.871902,56.1441634 C68.9116921,56.0198911 69.0352661,55.9423955 69.164464,55.9606923 Z" id="Shape" fill="#000000" fill-rule="nonzero"></path>
                    <path d="M66.010283,33.1595184 L66.010283,33.1595184 C68.0710811,33.1595184 69.741688,34.8301253 69.741688,36.8909233 L69.741688,70.8677828 C69.741688,72.9285809 68.0710811,74.5991878 66.010283,74.5991878 L66.010283,74.5991878 C63.949485,74.5991878 62.2788781,72.9285809 62.2788781,70.8677828 L62.2788781,36.8909233 C62.2788781,34.8301253 63.949485,33.1595184 66.010283,33.1595184 Z" id="Rectangle-path" fill="#4A90E2" fill-rule="nonzero" opacity="0.2" transform="translate(66.010283, 53.879353) rotate(-11.100000) translate(-66.010283, -53.879353) "></path>
                    <path d="M22.964464,93.195403 L13.3892574,45.041684 C13.2589091,44.4208106 13.3812838,43.7735886 13.7293157,43.2431658 C14.0773475,42.712743 14.6223569,42.3428287 15.2438028,42.2152378 L59.9760342,33.2896179 C61.1698315,33.0525342 62.3301691,33.8268321 62.5694227,35.0201964 L74.5198359,95.0201964 L25.3247946,104.863172 L24.5413235,101.00532" id="Shape" fill="#FFFFFF" fill-rule="nonzero"></path>
                    <path d="M22.4983483,93.2896179 C22.0619846,91.6367254 21.6504144,89.9838328 21.2636375,88.3309402 C20.8768607,86.6780477 20.4966954,85.0251551 20.1231417,83.3722625 C19.7611582,81.7111055 19.394216,80.0499485 19.0669433,78.3838328 C18.7396706,76.7177171 18.4471086,75.041684 18.1495879,73.3706097 C17.5595053,70.0235022 16.8801665,66.6962295 16.2206623,63.3590394 L14.2371913,53.3623452 L13.2454557,48.3590394 L12.7495879,45.8797006 L12.625621,45.2549072 C12.5726947,44.9839265 12.5527151,44.7075421 12.5661169,44.4317667 C12.6225477,43.2836318 13.3069012,42.2599611 14.3462822,41.7689568 C14.5945591,41.6468273 14.8580505,41.558441 15.1297532,41.5061468 L15.7545466,41.3821799 L18.2338855,40.8863121 L23.2322326,39.8945766 L43.2305797,35.9276344 L53.2322326,33.9441634 L58.2305797,32.9524278 L59.4801665,32.7044939 L59.7925632,32.6400311 C59.9282626,32.6128718 60.0658664,32.5962931 60.2041334,32.5904444 C60.4886698,32.5689206 60.7748208,32.5923481 61.0520673,32.6598658 C62.1835012,32.9279076 63.055108,33.8305049 63.2834722,34.9706097 L67.2851251,54.9639981 L71.3066127,74.9425105 C71.9809929,78.2697832 72.6057863,81.611932 73.3892574,84.91937 L74.5446293,89.8780477 C74.918183,91.5309402 75.2669433,93.1937501 75.5909103,94.8664774 L75.5909103,94.8664774 C75.6490162,95.1495216 75.5908452,95.4440419 75.4294917,95.6837404 C75.2681383,95.9234389 75.0171621,96.088172 74.733059,96.1408576 L62.4355384,98.5904444 C58.3347119,99.4086262 54.2338855,100.226808 50.1281003,101.000362 L37.8057863,103.355734 C35.7595053,103.752428 33.7049598,104.135899 31.6421499,104.506147 C29.5842987,104.858213 27.5165301,105.185486 25.4487615,105.497882 L25.394216,105.497882 C25.0624984,105.552206 24.7479337,105.332231 24.6851251,105.002015 L24.6851251,105.002015 C24.4818194,103.702841 24.2388441,102.413585 24.0851251,101.104494 C24.0505752,100.86 24.2126881,100.630984 24.4547651,100.582306 C24.6968421,100.533627 24.9348788,100.682178 24.9975218,100.921023 C25.364464,102.185486 25.6421499,103.469783 25.9595053,104.744163 L25.1958689,104.248296 C27.2289268,103.752428 29.2619846,103.25656 31.3000012,102.80532 C33.3380177,102.354081 35.3909103,101.922676 37.4388441,101.501188 L49.7165301,98.9623452 C53.8074392,98.0995353 57.9082656,97.2813535 62.0090921,96.4830063 L74.3066127,94.0036675 L73.4537202,95.273089 C73.1231417,93.6201964 72.8074392,91.9507749 72.5066127,90.2648245 L71.6735549,85.2317667 C71.1281003,81.8747419 70.4239681,78.5524278 69.7694227,75.2152378 L65.8024805,55.2168906 L61.8355384,35.2185435 C61.7246423,34.649282 61.2930201,34.196369 60.7297532,34.058213 C60.5936376,34.0245779 60.4530297,34.0128605 60.3132243,34.0235022 C60.2400682,34.027415 60.1672112,34.0356942 60.0950425,34.0482956 L59.7826458,34.1127584 L58.533059,34.3606923 L53.5347119,35.3524278 L43.533059,37.3358989 L23.5446293,41.3375518 L18.5462822,42.3292873 L16.0669433,42.8251551 L15.4421499,42.949122 C15.2969028,42.9794911 15.1555223,43.0260635 15.0206623,43.087965 C14.7553353,43.2307262 14.5341257,43.4433617 14.3809929,43.7028411 C14.2189099,43.9442602 14.1262816,44.2255756 14.1132243,44.5160642 C14.1057991,44.6640518 14.1174653,44.8123794 14.1479351,44.9573865 L14.271902,45.5821799 L14.7677698,48.0615187 L15.7595053,53.0598658 L17.7429764,63.0565601 C18.4123979,66.3838328 19.0619846,69.7210229 19.8008276,73.0383782 C20.1628111,74.6995353 20.5347119,76.3557336 20.871902,77.9970559 C21.2090921,79.6383782 21.5066127,81.3392047 21.8090921,83.0102791 C22.1115714,84.6813535 22.394216,86.3573865 22.657026,88.0383782 C22.9198359,89.71937 23.1876045,91.395403 23.4157036,93.0813535 C23.3932882,93.296849 23.2335621,93.4728421 23.0212433,93.5159871 C22.8089245,93.5591321 22.5931765,93.4594385 22.4884309,93.2697832 L22.4983483,93.2896179 Z" id="Shape" fill="#000000" fill-rule="nonzero"></path>
                    <path d="M27.3826458,50.5755683 L29.8619846,51.7259816 L28.2355384,52.0482956 L31.7760342,47.5160642 C32.0033382,47.1737389 32.4651139,47.0804958 32.8074392,47.3077997 C33.1497644,47.5351037 33.2430076,47.9968794 33.0157036,48.3392047 L30.1842987,53.3524278 L30.1396706,53.426808 C30.0073465,53.6627442 29.7864401,53.8362079 29.5258525,53.9088001 C29.2652648,53.9813924 28.9864906,53.9471255 28.7512408,53.8135849 C28.6836334,53.7741953 28.62046,53.7276465 28.5628111,53.6747419 L26.5446293,51.8152378 C26.2401406,51.5321282 26.2202385,51.0566886 26.5000012,50.749122 C26.7261037,50.5071619 27.0817652,50.4372284 27.3826458,50.5755683 Z" id="Shape" fill="#1AB571" fill-rule="nonzero"></path>
                    <path d="M35.703307,51.2549072 C35.7757751,51.9445272 35.7237077,52.6415582 35.5495879,53.3127584 C35.4594577,53.6523797 35.3417101,53.9840632 35.1975218,54.3044939 C35.0611421,54.6353334 34.8718982,54.9418082 34.6371913,55.211932 C33.7332727,56.3317789 32.4883341,57.1257537 31.0917367,57.473089 C29.6956657,57.8258885 28.2219956,57.7055533 26.9016541,57.1309402 C24.1868853,55.9612007 22.5963855,53.1137587 23.0239681,50.1887915 C23.2261154,48.7639577 23.9020955,47.4486786 24.9429764,46.4549072 C25.9788381,45.4747551 27.3046949,44.8570659 28.7214888,44.6945766 C30.1252361,44.4689426 31.552492,44.9256645 32.564464,45.9243287 C32.6317865,45.995229 32.6451126,46.1016986 32.5973413,46.1870044 C32.5495701,46.2723103 32.4518287,46.3165822 32.3561995,46.2962295 L32.3561995,46.2962295 C31.2213002,46.0196781 30.0498152,45.9242857 28.8851251,46.0135849 C26.6049521,46.3292465 24.812357,48.1218416 24.4966954,50.4020146 C24.258573,52.0729958 24.8671662,53.7529698 26.12026,54.8837378 C27.3733539,56.0145059 29.1067987,56.4479424 30.7446293,56.0400311 C31.8283939,55.7791999 32.7926621,55.1608105 33.4818194,54.2846592 C33.625621,54.0466427 33.8289268,53.858213 33.9776871,53.6251551 C34.1429151,53.3963173 34.2888704,53.1541643 34.4140508,52.9011882 C34.6798246,52.3782199 34.8653739,51.8182289 34.964464,51.2400311 L34.964464,51.2400311 C34.9940908,51.0604241 35.1493719,50.9286587 35.3314061,50.9286587 C35.5134403,50.9286587 35.6687215,51.0604241 35.6983483,51.2400311 L35.703307,51.2549072 Z" id="Shape" fill="#1AB571" fill-rule="nonzero"></path>
                    <path d="M39.794216,46.4697832 L50.7528937,44.287965" id="Shape" fill="#FFFFFF" fill-rule="nonzero"></path>
                    <path d="M39.7000012,45.9937501 C40.5078505,45.4885286 41.4137854,45.1606342 42.3578524,45.0317667 C43.2702491,44.8466427 44.1842987,44.6813535 45.1000012,44.5358989 C46.0157036,44.3904444 46.9363648,44.2433369 47.8619846,44.0945766 C48.7842987,43.9606923 49.7115714,43.841684 50.6438028,43.7623452 C50.9473974,43.7335052 51.2174538,43.9548629 51.2487615,44.258213 C51.2729445,44.5198077 51.1121361,44.763082 50.8619846,44.8433369 C49.9694227,45.1259816 49.0669433,45.3689568 48.164464,45.6020146 C47.2619846,45.8350725 46.3545466,46.0482956 45.4471086,46.2516014 C44.5396706,46.4549072 43.6223152,46.6433369 42.7099185,46.8218493 C41.7895341,47.0658982 40.8277889,47.1115346 39.8884309,46.9557336 C39.6803521,46.913769 39.5179377,46.7507663 39.4767257,46.5425372 C39.4355137,46.334308 39.5235941,46.1217283 39.7000012,46.0036675 L39.7000012,45.9937501 Z" id="Shape" fill="#000000" fill-rule="nonzero"></path>
                    <path d="M40.6173565,50.6003617 L54.7694227,47.7838328" id="Shape" fill="#FFFFFF" fill-rule="nonzero"></path>
                    <path d="M40.5231417,50.149122 C41.6399695,49.6913085 42.8041022,49.3586991 43.994216,49.1573865 C45.1743813,48.91937 46.3545466,48.6615187 47.5347119,48.4631716 C48.7148772,48.2648245 49.9049598,48.0367254 51.0851251,47.8235022 C52.2652904,47.6102791 53.4603317,47.426808 54.6504144,47.2532543 C54.8452865,47.2142799 55.0461484,47.282229 55.1773373,47.4315061 C55.3085263,47.5807831 55.3501115,47.7887092 55.2864282,47.9769606 C55.222745,48.165212 55.0634684,48.3051889 54.8685962,48.3441634 C53.7016541,48.641684 52.5314061,48.9210229 51.3578524,49.1821799 C50.1826458,49.4400311 49.0123979,49.7127584 47.8322326,49.9507749 C46.6520673,50.1887915 45.4768607,50.4466427 44.2966954,50.6697832 C43.1173005,50.9415473 41.9118983,51.084533 40.7016541,51.0962295 C40.4623839,51.0992548 40.2550843,50.930976 40.2088579,50.6961942 C40.1626314,50.4614125 40.2906661,50.2271093 40.5132243,50.1392047 L40.5231417,50.149122 Z" id="Shape" fill="#000000" fill-rule="nonzero"></path>
                    <path d="M52.9892574,43.841684 L58.0520673,42.8301138" id="Shape" fill="#FFFFFF" fill-rule="nonzero"></path>
                    <path d="M52.8950425,43.365651 C53.2871639,43.175852 53.7047295,43.0439012 54.1347119,42.9739154 L55.3991747,42.7210229 C56.2421499,42.5573865 57.0900838,42.4036675 57.9429764,42.2846592 C58.2442226,42.2257793 58.5361625,42.422256 58.5950425,42.7235022 C58.6539224,43.0247484 58.4574457,43.3166884 58.1561995,43.3755683 C57.3231417,43.5937501 56.4851251,43.7772212 55.6421499,43.9507749 L54.3776871,44.1987088 C53.9539045,44.2983024 53.5183108,44.338357 53.0834722,44.3177171 C52.8489341,44.3149596 52.6484083,44.1482478 52.6028695,43.9181566 C52.5573306,43.6880655 52.6792363,43.4575391 52.8950425,43.365651 L52.8950425,43.365651 Z" id="Shape" fill="#000000" fill-rule="nonzero"></path>
                    <path d="M30.9776871,68.6400311 L33.457026,69.7904444 L31.8355384,70.1127584 L35.3760342,65.580527 C35.6210832,65.2887568 36.0461648,65.2275396 36.3635857,65.438307 C36.6810065,65.6490744 36.7895281,66.0646042 36.6157036,66.4036675 L33.7842987,71.411932 L33.7396706,71.4912708 C33.6073465,71.727207 33.3864401,71.9006707 33.1258525,71.9732629 C32.8652648,72.0458552 32.5864906,72.0115883 32.3512408,71.8780477 C32.2820714,71.8387016 32.2172493,71.7921627 32.1578524,71.7392047 L30.1446293,69.8797006 C29.8732243,69.6285565 29.8240904,69.2176142 30.028636,68.9095637 C30.2331816,68.6015131 30.6309911,68.4873413 30.9677698,68.6400311 L30.9776871,68.6400311 Z" id="Shape" fill="#1AB571" fill-rule="nonzero"></path>
                    <path d="M39.2933896,69.31937 C39.3673671,70.0086952 39.316981,70.7057029 39.1446293,71.3772212 C39.053798,71.7166251 38.9360702,72.0482528 38.7925632,72.3689568 C38.6525562,72.6990374 38.4618254,73.0052107 38.2272739,73.2763948 C37.3323006,74.3932271 36.0983129,75.1886183 34.7115714,75.5425105 C32.5913739,76.0768577 30.3443978,75.5164043 28.723505,74.0489334 C27.1026121,72.5814625 26.3222198,70.4010962 26.6438028,68.2383782 C26.8426646,66.8249774 27.5096012,65.5190386 28.5380177,64.5292873 C29.5717673,63.5452151 30.8984384,62.9254055 32.3165301,62.7639981 C33.7202774,62.5383641 35.1475334,62.995086 36.1595053,63.9937501 C36.2019016,64.0356676 36.2257603,64.092808 36.2257603,64.1524278 C36.2257603,64.2120476 36.2019016,64.2691881 36.1595053,64.3111055 C36.1058069,64.3597607 36.0321847,64.3800068 35.9611582,64.365651 L35.9611582,64.365651 C34.8263657,64.0884384 33.6547753,63.9930375 32.4900838,64.0830063 C30.2099108,64.3986679 28.4173157,66.1912631 28.1016541,68.4714361 C27.7736338,70.7362076 29.0025805,72.9401864 31.1016541,73.8516014 C33.1938176,74.752154 35.6298301,74.1431509 37.0520673,72.3639981 C37.1958689,72.1259816 37.3991747,71.9375518 37.5479351,71.7044939 C37.7142637,71.47464 37.8602693,71.2307443 37.9842987,70.9755683 C38.250799,70.4546518 38.4363986,69.8961809 38.5347119,69.31937 L38.5347119,69.31937 C38.5747426,69.1200806 38.7656099,68.988448 38.9661169,69.0218493 C39.1301569,69.0350955 39.2646158,69.1573309 39.2933896,69.31937 L39.2933896,69.31937 Z" id="Shape" fill="#1AB571" fill-rule="nonzero"></path>
                    <path d="M43.394216,64.534246 L54.3528937,62.3524278" id="Shape" fill="#FFFFFF" fill-rule="nonzero"></path>
                    <path d="M43.3000012,64.058213 C44.1060989,63.5531019 45.0103969,63.2251883 45.9528937,63.0962295 C46.8702491,62.9127584 47.7826458,62.734246 48.7000012,62.6003617 C49.6173565,62.4664774 50.5347119,62.287965 51.4619846,62.1540807 C52.3892574,62.0201964 53.3066127,61.9061468 54.2438028,61.826808 C54.5304486,61.7956221 54.7932835,61.9889844 54.848837,62.2719194 C54.9043904,62.5548544 54.7341825,62.8332434 54.457026,62.9127584 C53.564464,63.2003617 52.6669433,63.4433369 51.764464,63.6763948 C50.8619846,63.9094526 49.9545466,64.1226758 49.0421499,64.3259816 C48.1297532,64.5292873 47.2223152,64.7177171 46.3099185,64.8962295 C45.389511,65.1401283 44.4277977,65.1857632 43.4884309,65.0301138 C43.3515932,65.0026161 43.2313107,64.921823 43.1541041,64.8055481 C43.0768976,64.6892732 43.0491073,64.5470652 43.0768607,64.4102791 C43.0959102,64.2658422 43.1775134,64.1370904 43.3000012,64.058213 Z" id="Shape" fill="#717791" fill-rule="nonzero"></path>
                    <path d="M44.2173565,68.6648245 L58.3694227,65.8482956" id="Shape" fill="#FFFFFF" fill-rule="nonzero"></path>
                    <path d="M44.133059,68.1887915 C45.2507116,67.7333612 46.4145785,67.4008278 47.6041334,67.1970559 C48.7842987,66.9639981 49.9595053,66.7259816 51.1446293,66.5077997 C52.3297532,66.2896179 53.5099185,66.0813535 54.6950425,65.8681303 C55.8801665,65.6549072 57.0702491,65.4714361 58.2603317,65.2978824 C58.561578,65.2376332 58.8546279,65.4329998 58.9148772,65.734246 C58.9751264,66.0354922 58.7797598,66.3285422 58.4785136,66.3887915 C57.3082656,66.6813535 56.1380177,66.9639981 54.9677698,67.226808 C53.7975218,67.4896179 52.6173565,67.7524278 51.4421499,67.995403 C50.2669433,68.2383782 49.086778,68.4912708 47.9066127,68.7144113 C46.727463,68.9869794 45.5217905,69.1283341 44.3115714,69.1358989 C44.0770333,69.1331415 43.8765075,68.9664296 43.8309686,68.7363385 C43.7854298,68.5062473 43.9073355,68.2757209 44.1231417,68.1838328 L44.133059,68.1887915 Z" id="Shape" fill="#717791" fill-rule="nonzero"></path>
                    <path d="M56.5892574,61.9061468 L61.6471086,60.8945766" id="Shape" fill="#FFFFFF" fill-rule="nonzero"></path>
                    <path d="M56.4950425,61.4301138 C56.8853709,61.2401816 57.3013217,61.1082133 57.7297532,61.0383782 L58.994216,60.7854857 C59.8421499,60.6218493 60.6851251,60.4681303 61.5380177,60.349122 C61.6876027,60.329572 61.8387515,60.371164 61.957276,60.4644904 C62.0758005,60.5578168 62.1516867,60.6949925 62.1677698,60.8449898 C62.2069604,61.1248013 62.0298241,61.3894387 61.7561995,61.4598658 C60.9231417,61.6780477 60.0851251,61.8615187 59.2421499,62.0350725 L57.9776871,62.2830063 C57.5539045,62.3825999 57.1183108,62.4226545 56.6834722,62.4020146 C56.5490216,62.3932874 56.4239106,62.330225 56.3369225,62.2273358 C56.2499343,62.1244465 56.2085589,61.9905896 56.2223152,61.8565601 C56.2283586,61.6752206 56.3329606,61.5116612 56.4950425,61.4301138 Z" id="Shape" fill="#717791" fill-rule="nonzero"></path>
                    <path d="M34.5776871,86.7044939 L37.057026,87.8549072 L35.4355384,88.1772212 L38.9760342,83.6449898 C39.2149307,83.3360406 39.6520814,83.264467 39.97703,83.4810994 C40.3019786,83.6977318 40.4040456,84.1287838 40.210745,84.4681303 L37.37934,89.4763948 L37.3396706,89.5557336 C37.2055486,89.7911625 36.9833849,89.9636591 36.7220654,90.0352662 C36.4607459,90.1068733 36.1816826,90.0717237 35.9462822,89.9375518 C35.8777515,89.9015773 35.8143729,89.8565452 35.7578524,89.8036675 L33.7446293,87.9441634 C33.4732243,87.6930193 33.4240904,87.282077 33.628636,86.9740265 C33.8331816,86.6659759 34.2309911,86.5518041 34.5677698,86.7044939 L34.5776871,86.7044939 Z" id="Shape" fill="#1AB571" fill-rule="nonzero"></path>
                    <path d="M42.8933896,87.3838328 C42.9673671,88.073158 42.916981,88.7701657 42.7446293,89.441684 C42.6542973,89.7818943 42.5348481,90.1136975 42.3876045,90.4334196 C42.2512248,90.7642591 42.0619808,91.0707338 41.8272739,91.3408576 C40.9218927,92.459068 39.6775497,93.252663 38.2818194,93.6020146 C36.8857169,93.9544359 35.4121706,93.8341108 34.0917367,93.2598658 C31.3806132,92.0860901 29.7918165,89.2416969 30.2140508,86.3177171 C30.4202189,84.8955951 31.0956482,83.583133 32.133059,82.5887915 C33.1681225,81.6037471 34.4966877,80.9838661 35.9165301,80.8235022 C37.3202774,80.5978682 38.7475334,81.0545901 39.7595053,82.0532543 C39.8019016,82.0951717 39.8257603,82.1523122 39.8257603,82.211932 C39.8257603,82.2715518 39.8019016,82.3286922 39.7595053,82.3706097 C39.7077488,82.4191592 39.6356142,82.4395049 39.5661169,82.4251551 L39.5661169,82.4251551 C38.4313244,82.1479426 37.259734,82.0525416 36.0950425,82.1425105 C34.9793375,82.3058942 33.9471558,82.8280772 33.1545466,83.6301138 C32.374447,84.4261485 31.865927,85.4483952 31.7016541,86.5507749 C31.4005243,88.8044634 32.6283944,90.985096 34.7115714,91.8962295 C35.7312568,92.3424686 36.8704517,92.4366746 37.9495879,92.1639981 C39.0236515,91.8993988 39.9784012,91.2832623 40.6619846,90.4135849 C40.8008276,90.1755683 41.0090921,89.9821799 41.1578524,89.7540807 C41.3224153,89.5230672 41.4683305,89.2793224 41.594216,89.0251551 C41.8624342,88.5045219 42.0497098,87.9460393 42.1495879,87.3689568 L42.1495879,87.3689568 C42.1847327,87.1898461 42.3446647,87.0627133 42.5270868,87.0688762 C42.7095088,87.0750391 42.8604959,87.2126759 42.8834722,87.3937501 L42.8933896,87.3838328 Z" id="Shape" fill="#1AB571" fill-rule="nonzero"></path>
                    <path d="M46.9892574,82.5987088 L57.9479351,80.411932" id="Shape" fill="#FFFFFF" fill-rule="nonzero"></path>
                    <path d="M46.8950425,82.1226758 C47.701883,81.6153852 48.6082776,81.2873245 49.5528937,81.1606923 C50.4652904,80.9772212 51.3826458,80.7987088 52.3000012,80.6648245 C53.2173565,80.5309402 54.1347119,80.3524278 55.057026,80.2235022 C55.97934,80.0945766 56.9066127,79.9755683 57.8388441,79.8912708 C58.1415942,79.8651788 58.4099663,80.085156 58.4438028,80.3871386 C58.4694297,80.6479432 58.3076252,80.89065 58.057026,80.9673039 C57.164464,81.2549072 56.2669433,81.4978824 55.3595053,81.7309402 C54.4520673,81.9639981 53.5495879,82.1772212 52.6421499,82.380527 C51.7347119,82.5838328 50.8223152,82.7722625 49.9099185,82.9507749 C48.989511,83.1946738 48.0277977,83.2403087 47.0884309,83.0846592 C46.9505426,83.0572256 46.8293917,82.9756954 46.7520522,82.8582885 C46.6747127,82.7408815 46.6476315,82.5973848 46.6768607,82.4598658 C46.6987791,82.3217288 46.7780157,82.1992722 46.8950425,82.1226758 L46.8950425,82.1226758 Z" id="Shape" fill="#717791" fill-rule="nonzero"></path>
                    <path d="M47.8173565,86.7292873 L61.9694227,83.9127584" id="Shape" fill="#FFFFFF" fill-rule="nonzero"></path>
                    <path d="M47.718183,86.2532543 C48.8361661,85.7987817 49.9999277,85.4662784 51.1892574,85.2615187 C52.364464,85.0235022 53.5446293,84.7904444 54.7297532,84.5722625 C55.9148772,84.3540807 57.0950425,84.1458163 58.2801665,83.9325931 C59.4652904,83.71937 60.6504144,83.5358989 61.8454557,83.3623452 C61.9914655,83.3411026 62.1399269,83.3788345 62.258076,83.4672138 C62.3762251,83.555593 62.4543494,83.6873544 62.4752078,83.8334196 C62.514345,84.1159272 62.3350347,84.382758 62.0586789,84.4532543 C60.8933896,84.7458163 59.7231417,85.0284609 58.5479351,85.2912708 C57.3727284,85.5540807 56.2024805,85.8168906 55.0223152,86.0598658 C53.8421499,86.3028411 52.6669433,86.5557336 51.486778,86.7788741 C50.3093214,87.0515198 49.1052829,87.1928779 47.8966954,87.2003617 C47.6228352,87.2003617 47.4008276,86.9783542 47.4008276,86.7044939 C47.4054584,86.503688 47.5307702,86.3255102 47.718183,86.2532543 L47.718183,86.2532543 Z" id="Shape" fill="#717791" fill-rule="nonzero"></path>
                    <path d="M60.1892574,79.965651 L65.2471086,78.9590394" id="Shape" fill="#FFFFFF" fill-rule="nonzero"></path>
                    <path d="M60.0950425,79.4896179 C60.4865116,79.3036152 60.902128,79.1734221 61.3297532,79.1028411 L62.594216,78.8499485 C63.4371913,78.6863121 64.2851251,78.5325931 65.1380177,78.4135849 C65.4392639,78.3533356 65.7323139,78.5487023 65.7925631,78.8499485 C65.8528123,79.1511947 65.6574457,79.4442447 65.3561995,79.5044939 C64.5231417,79.7226758 63.6801665,79.9061468 62.8421499,80.0797006 L61.5727284,80.3276344 C61.1508016,80.4280978 60.7164831,80.4665183 60.2834722,80.441684 C60.0489341,80.4389266 59.8484083,80.2722148 59.8028695,80.0421236 C59.7573306,79.8120324 59.8792363,79.581506 60.0950425,79.4896179 L60.0950425,79.4896179 Z" id="Shape" fill="#717791" fill-rule="nonzero"></path>
                    <path d="M23.5247946,95.8780477 L23.733059,96.9639981" id="Shape" fill="#FFFFFF" fill-rule="nonzero"></path>
                    <path d="M23.8272739,95.8235022 C23.9731084,95.9542665 24.0737886,96.1278531 24.1148772,96.31937 C24.1680383,96.5138983 24.1393755,96.7217032 24.0355384,96.8945766 C23.9825646,96.9876008 23.8946478,97.0556294 23.7913055,97.0835597 C23.6879633,97.11149 23.5777471,97.097011 23.4851251,97.0433369 L23.4355384,97.0135849 C23.2781041,96.8926253 23.1747532,96.714434 23.1479351,96.5177171 C23.1121195,96.3224322 23.1399297,96.1208078 23.2272739,95.9425105 C23.3218896,95.7640562 23.5378915,95.6884555 23.7231417,95.7689568 C23.76086,95.7807046 23.7961398,95.7991844 23.8272739,95.8235022 Z" id="Shape" fill="#000000" fill-rule="nonzero"></path>
                    <path d="M125.951241,49.9755683 L130.131406,50.9673039 C131.382633,51.2662454 132.155005,52.5224589 131.857026,53.7739154 L119.291737,106.435072 C119.148264,107.03574 118.771771,107.554678 118.245274,107.877459 C117.718778,108.200241 117.085517,108.300357 116.485125,108.155734 L73.5925632,97.9210229 C72.9918952,97.77755 72.4729579,97.4010571 72.1501765,96.8745606 C71.8273951,96.3480642 71.7272784,95.7148032 71.871902,95.1144113 L84.4371913,42.4631716 C84.7361328,41.2119448 85.9923463,40.4395733 87.2438028,40.7375518 L115.071902,47.3821799" id="Shape" fill="#FFFFFF" fill-rule="nonzero"></path>
                    <path d="M126.03058,49.6532543 C127.072534,49.7371005 128.107834,49.8894966 129.129753,50.1094526 C129.387604,50.1590394 129.625621,50.2185435 129.89339,50.273089 L130.275208,50.3623452 C130.436535,50.3993154 130.594199,50.4507635 130.746282,50.5160642 C132.015328,51.0548714 132.74796,52.3949519 132.51653,53.7540807 C132.486778,53.9276344 132.452067,54.0466427 132.427274,54.1706097 L132.333059,54.5524278 L132.154547,55.3111055 L131.435538,58.3507749 L128.549588,70.5094526 L122.787604,94.8069733 L121.344629,100.881353 L120.625621,103.921023 L120.263638,105.443337 L120.085125,106.202015 L119.995869,106.583833 C119.954898,106.752703 119.901869,106.918417 119.837191,107.079701 C119.28655,108.38735 117.909114,109.144838 116.509919,108.909453 C116.326447,108.879701 116.207439,108.84499 116.083472,108.815238 L115.701654,108.725982 L114.942976,108.547469 L113.425621,108.185486 L107.346282,106.747469 L83.0487615,100.980527 L76.9743813,99.5276344 L73.9347119,98.7987088 C73.6768607,98.734246 73.4636375,98.6995353 73.0966954,98.580527 C72.7729073,98.4643467 72.4698762,98.2969262 72.1991747,98.0846592 C71.6541364,97.6448447 71.2747195,97.0328821 71.1231417,96.349122 C71.047243,96.0090754 71.030469,95.6584981 71.0735549,95.3127584 C71.1281003,94.9358989 71.1925632,94.7226758 71.2520673,94.4598658 L71.6140508,92.9425105 L72.3429764,89.9077997 L73.7958689,83.8284609 L79.6074392,59.5309402 L82.5132243,47.3772212 L83.2371913,44.3425105 L83.6041334,42.8201964 C83.6685962,42.5573865 83.703307,42.3243287 83.8223152,41.9871386 C84.1726053,40.9880565 85.0115736,40.2389777 86.0438028,40.0036675 C86.3801957,39.9260718 86.727527,39.9076146 87.0702491,39.949122 C87.4421499,40.0036675 87.6603317,40.073089 87.918183,40.1276344 L90.9578524,40.8565601 L103.106613,43.7623452 C107.147935,44.7540807 111.243803,45.5524278 115.180993,46.9854857 C115.392404,47.0645722 115.502352,47.297662 115.428927,47.5111055 C115.361968,47.6897693 115.182178,47.8000949 114.992563,47.7788741 C110.832233,47.2830063 106.825621,46.1226758 102.764464,45.2003617 L90.610745,42.3044939 L87.5710756,41.580527 C87.1883897,41.4364969 86.7745967,41.3954596 86.3710756,41.4615187 C86.0233734,41.5406036 85.7124435,41.734498 85.4884309,42.011932 C85.377846,42.1505198 85.2907395,42.3063065 85.2305797,42.473089 C85.1809929,42.6020146 85.1165301,42.9044939 85.057026,43.1474692 L84.6950425,44.6697832 L83.9710756,47.7044939 L81.0752078,59.858213 L75.2884309,84.1557336 L73.840497,90.2350725 L73.1016541,93.2896179 L72.7396706,94.811932 C72.5950338,95.1909707 72.5522907,95.6013041 72.6157036,96.0020146 C72.6924003,96.3455092 72.8828562,96.6530342 73.1561995,96.8747419 C73.4894983,97.1094303 73.8766832,97.2561171 74.2818194,97.3011882 L77.3165301,98.0251551 L83.3958689,99.4681303 L107.69339,105.304494 L113.76777,106.767304 L116.742976,107.476395 C117.475191,107.602282 118.197851,107.208104 118.488431,106.524329 C118.523142,106.440031 118.542976,106.355734 118.572728,106.266477 L118.661985,105.884659 L118.845456,105.125982 L119.212398,103.608626 L119.941323,100.573915 L121.399175,94.4995353 L127.235538,70.2020146 L130.1562,58.0532543 L130.909919,55.0086262 L131.09339,54.2499485 L131.182646,53.8681303 C131.217357,53.7441634 131.247109,53.6053204 131.261985,53.5259816 C131.330407,53.1526431 131.267323,52.7671298 131.083472,52.4350725 C130.903657,52.098023 130.612854,51.8334976 130.260332,51.6863121 C130.171581,51.6489774 130.080476,51.6175049 129.987604,51.5920973 L129.610745,51.4978824 C129.357852,51.4334196 129.114877,51.3739154 128.857026,51.3044939 C127.845245,51.0374033 126.851499,50.7061545 125.881819,50.3127584 C125.709685,50.2357534 125.62879,50.0367944 125.698348,49.8615187 C125.75552,49.730204 125.887475,49.6474862 126.03058,49.6532543 Z" id="Shape" fill="#000000" fill-rule="nonzero"></path>
                    <path d="M96.3259043,40.6410977 L113.579954,40.6410977 C115.308605,40.6410977 116.709954,42.0424464 116.709954,43.7710977 L116.709954,78.9953952 C116.709954,80.7240465 115.308605,82.1253952 113.579954,82.1253952 L96.3259043,82.1253952 C94.5972531,82.1253952 93.1959043,80.7240465 93.1959043,78.9953952 L93.1959043,43.7710977 C93.1959043,42.0424464 94.5972531,40.6410977 96.3259043,40.6410977 Z" id="Rectangle-path" stroke="#000000" stroke-width="1.2" stroke-linecap="round" stroke-linejoin="round" transform="translate(104.952929, 61.383246) rotate(-76.580000) translate(-104.952929, -61.383246) "></path>
                    <path d="M94.0619846,65.6400311 L94.3148772,66.0516014" id="Shape" stroke="#717791" stroke-width="2" stroke-linecap="round" stroke-linejoin="round"></path>
                    <path d="M83.3512408,79.8317667 L117.119836,87.8896179" id="Shape" fill="#E5EEFD" fill-rule="nonzero"></path>
                    <path d="M83.4454557,79.4499485 C86.3016541,79.9458163 89.1231417,80.565651 91.9347119,81.2499485 L100.364464,83.3077997 C103.180993,83.9871386 105.977687,84.7111055 108.794216,85.4102791 C111.610745,86.1094526 114.392563,86.858213 117.223968,87.5821799 C117.305528,87.6031852 117.375394,87.6557492 117.418177,87.7282948 C117.46096,87.8008404 117.473152,87.8874172 117.452067,87.9689568 C117.40823,88.1343641 117.242777,88.2366836 117.075208,88.2020146 C114.248762,87.5821799 111.417357,86.9821799 108.595869,86.3425105 C105.774381,85.7028411 102.947935,85.0780477 100.131406,84.4135849 L91.7016541,82.4301138 C88.8851251,81.7706097 86.0785136,81.0664774 83.3115714,80.1987088 C83.1006991,80.1480447 82.9708246,79.9360275 83.0214888,79.7251551 C83.0721529,79.5142827 83.2841701,79.3844083 83.4950425,79.4350725 L83.4454557,79.4499485 Z" id="Shape" fill="#000000" fill-rule="nonzero"></path>
                    <path d="M95.6438028,87.7160642 L115.999175,92.5755683" id="Shape" fill="#E53E6E" fill-rule="nonzero"></path>
                    <path d="M95.703307,87.3987088 C97.4438028,87.6317667 99.1743813,87.9590394 100.860332,88.3408576 C102.546282,88.7226758 104.252067,89.149122 105.942976,89.565651 C107.633885,89.9821799 109.324795,90.4284609 111.010745,90.8797006 C112.696695,91.3309402 114.377687,91.7970559 116.05372,92.287965 C116.19706,92.3390656 116.278734,92.4900926 116.243027,92.6380201 C116.207321,92.7859475 116.065744,92.8830864 115.914877,92.8631716 C114.199175,92.5325931 112.488431,92.1920973 110.782646,91.841684 C109.076861,91.4912708 107.372728,91.11937 105.670249,90.7259816 C103.969423,90.334246 102.268596,89.9474692 100.577687,89.5210229 C98.886778,89.0945766 97.2057863,88.6135849 95.5545466,88.0334196 C95.3937642,87.980142 95.3001997,87.8129884 95.3388507,87.6480776 C95.3775016,87.4831668 95.5355954,87.3749956 95.703307,87.3987088 L95.703307,87.3987088 Z" id="Shape" fill="#000000" fill-rule="nonzero"></path>
                    <path d="M82.2355384,84.5177171 L90.7991747,86.5606923" id="Shape" fill="#E5EEFD" fill-rule="nonzero"></path>
                    <path d="M82.3148772,84.1557336 C83.7850792,84.2665323 85.239445,84.5324735 86.6537202,84.949122 C88.0768607,85.3111055 89.4851251,85.7177171 90.8834722,86.1987088 C91.0833902,86.2466344 91.2066044,86.4475512 91.1586788,86.6474691 C91.1107533,86.8473871 90.9098365,86.9706013 90.7099185,86.9226758 C89.2471086,86.71937 87.8041334,86.426808 86.3710756,86.1292873 C84.9215783,85.860822 83.5040048,85.4420312 82.1413235,84.8797006 C81.9571057,84.7903396 81.8761642,84.571579 81.9578524,84.3838328 C82.0165142,84.2398369 82.1595617,84.1484454 82.3148772,84.1557336 L82.3148772,84.1557336 Z" id="Shape" fill="#A3ACD6" fill-rule="nonzero"></path>
                    <path d="M110.941323,96.31937 L114.883472,97.2615187" id="Shape" fill="#E5EEFD" fill-rule="nonzero"></path>
                    <path d="M111.000828,96.0714361 C111.68803,96.0306633 112.377635,96.0756375 113.05372,96.2053204 C113.389829,96.2572412 113.721402,96.335161 114.045456,96.4383782 C114.377746,96.5411479 114.693414,96.6914661 114.982646,96.8846592 C115.124185,96.9807048 115.191565,97.1542833 115.151897,97.3206702 C115.112228,97.4870571 114.973782,97.6115645 114.804133,97.6334196 C114.46066,97.6857351 114.111244,97.6857351 113.76777,97.6334196 C113.431227,97.5813928 113.099531,97.5017858 112.776034,97.395403 C112.116921,97.2071839 111.483916,96.9373238 110.891737,96.5920973 C110.830345,96.5560782 110.786188,96.4966982 110.769365,96.4275367 C110.752542,96.3583752 110.764492,96.2853478 110.802481,96.2251551 C110.840353,96.14526 110.91401,96.0881762 111.000828,96.0714361 L111.000828,96.0714361 Z" id="Shape" fill="#000000" fill-rule="nonzero"></path>
                    <path d="M81.1148772,89.1987088 L105.342976,94.980527" id="Shape" fill="#E5EEFD" fill-rule="nonzero"></path>
                    <path d="M81.1842987,88.9210229 C83.2173565,89.3375518 85.2487615,89.7673039 87.2785136,90.2102791 L93.3578524,91.5590394 L99.4272739,92.9425105 C101.460605,93.3757125 103.468592,93.9203354 105.44215,94.5739154 C105.65279,94.6402685 105.776498,94.85796 105.725698,95.0728818 C105.674899,95.2878037 105.466818,95.4270726 105.248762,95.3920973 C103.192321,95.0833238 101.154506,94.6611932 99.1446293,94.1276344 L93.1000012,92.6400311 L87.0702491,91.0978824 C85.057026,90.5755683 83.0504144,90.0400311 81.0504144,89.4912708 C80.8970993,89.450131 80.8061055,89.2925564 80.8471086,89.1392047 C80.8839532,88.9886316 81.0318493,88.8929341 81.1842987,88.9210229 Z" id="Shape" fill="#000000" fill-rule="nonzero"></path>
                    <path d="M84.5115714,74.9772212 L108.739671,80.7590394" id="Shape" fill="#E5EEFD" fill-rule="nonzero"></path>
                    <path d="M84.5760342,74.6945766 C86.6123979,75.1111055 88.6438028,75.5408576 90.6702491,75.9838328 L96.7545466,77.3325931 L102.823968,78.7210229 C104.857215,79.1525478 106.865202,79.6955157 108.838844,80.3474692 C109.058772,80.4288322 109.171745,80.6724992 109.091737,80.8929237 C109.025196,81.0823092 108.834328,81.1984901 108.635538,81.1706097 C106.580396,80.8658997 104.544098,80.4453958 102.536365,79.9111055 L96.4917367,78.4235022 L90.457026,76.8813535 C88.4471086,76.3590394 86.440497,75.8251551 84.4371913,75.2797006 C84.2876302,75.2341883 84.2002762,75.0791349 84.2388441,74.9276344 C84.2520943,74.8517271 84.2952501,74.7843113 84.3586378,74.7404992 C84.4220255,74.6966872 84.5003429,74.6801435 84.5760342,74.6945766 Z" id="Shape" fill="#000000" fill-rule="nonzero"></path>
                    <path d="M112.776034,81.7210229 L117.546282,82.8615187" id="Shape" fill="#E5EEFD" fill-rule="nonzero"></path>
                    <path d="M112.840497,81.4433369 C113.661915,81.5046821 114.479561,81.6089569 115.290084,81.7557336 C115.696695,81.8201964 116.098348,81.8995353 116.495042,81.9788741 C116.914029,82.0290873 117.311583,82.1918789 117.645456,82.4499485 C117.832038,82.6243406 117.855645,82.911926 117.700001,83.1144113 C117.637171,83.1922739 117.549747,83.2464763 117.452067,83.2681303 C117.037531,83.3487257 116.608848,83.314431 116.212398,83.1689568 C115.820662,83.0598658 115.423968,82.9507749 115.032233,82.826808 C114.248762,82.5887915 113.475208,82.3309402 112.706613,81.9987088 C112.569765,81.9482209 112.492383,81.8032832 112.526567,81.6614812 C112.560751,81.5196791 112.695676,81.4259225 112.840497,81.4433369 L112.840497,81.4433369 Z" id="Shape" fill="#000000" fill-rule="nonzero"></path>
                    <path d="M79.9991747,93.8846592 L101.534712,99.0218493" id="Shape" fill="#E5EEFD" fill-rule="nonzero"></path>
                    <path d="M80.0586789,93.626808 C81.8735549,93.9689568 83.6884309,94.3259816 85.5132243,94.7127584 C87.3380177,95.0995353 89.1281003,95.4813535 90.9281003,95.887965 C94.5231417,96.7160642 98.133059,97.4747419 101.643803,98.6747419 C101.816469,98.7380194 101.914251,98.9207039 101.871143,99.0994754 C101.828035,99.2782469 101.657737,99.3962879 101.475208,99.3739154 C97.8304465,98.7756145 94.2190233,97.9894431 90.6553731,97.0185435 C88.8652904,96.5722625 87.0801665,96.1011882 85.3000012,95.6251551 C83.5198359,95.149122 81.7347119,94.6334196 79.9595053,94.1375518 C79.8926807,94.1191181 79.8360929,94.0745543 79.8025072,94.0139134 C79.7689214,93.9532724 79.7611669,93.8816626 79.7809929,93.8152378 C79.8178351,93.6950223 79.9333571,93.6166324 80.0586789,93.626808 L80.0586789,93.626808 Z" id="Shape" fill="#A3ACD6" fill-rule="nonzero"></path>
                    <path d="M118.215704,48.1309402 L118.45372,48.1904444" id="Shape" fill="#FFFFFF" fill-rule="nonzero"></path>
                    <path d="M118.334712,47.6301138 L118.587604,47.6301138 C118.90611,47.6408996 119.156289,47.9065764 119.147935,48.2251551 C119.131928,48.543249 118.866379,48.791241 118.547935,48.7854857 C118.470873,48.7809175 118.395274,48.7624378 118.324795,48.7309402 L118.096695,48.626808 C117.882769,48.5153415 117.772175,48.2725683 117.828471,48.0380043 C117.884766,47.8034404 118.093497,47.6373051 118.334712,47.6350725 L118.334712,47.6301138 Z" id="Shape" fill="#717791" fill-rule="nonzero"></path>
                    <path d="M36.4471086,104.972263 L36.1049598,66.6317667 C36.1049598,65.2185435 37.057026,63.4631716 38.4752078,63.4631716 L43.5132243,63.4631716 C44.0609447,63.4631716 44.5049598,63.0191565 44.5049598,62.4714361 L44.5049598,60.1904444 C44.5208329,59.3070571 45.2331428,58.5947472 46.1165301,58.5788741 L63.0355384,58.5788741 C63.4708441,58.5788741 63.8883209,58.7517986 64.1961285,59.0596063 C64.5039361,59.3674139 64.6768607,59.7848907 64.6768607,60.2201964 L64.6768607,62.5011882 C64.6766925,63.0393705 65.1057887,63.4794692 65.6438028,63.4929237 L101.69339,63.4929237 C103.110051,63.4929211 104.25925,64.6399011 104.261985,66.0565601 L104.261985,108.20532 L99.2586789,107.803668 L57.6752078,75.0168906 L35.3611582,107.322676 L36.4471086,104.972263 Z" id="Shape" fill="#33475B" fill-rule="nonzero" opacity="0.2"></path>
                    <path d="M101.445456,73.7920973 L102.025621,105.46813 L112.23058,107.788791 L111.288431,110.377221 L106.919836,111.864825 L35.2074392,111.864825 L34.840497,70.9755683 C34.8483578,69.940557 35.2670687,68.9510632 36.0045117,68.2247794 C36.7419547,67.4984957 37.7377176,67.0949202 38.7727284,67.1028411 L42.5016541,67.1028411 L42.5016541,62.0797006 L62.6933896,62.0797006 L62.6933896,67.0978824 L96.9082656,67.0978824 C99.7000012,67.0978824 101.500001,66.91937 101.673555,72.7011882 C101.698348,73.5887915 101.445456,72.8499485 101.445456,73.7920973 Z" id="Shape" fill="#F5A623" fill-rule="nonzero"></path>
                    <path d="M34.7115714,110.739205 C34.3595053,100.395403 34.4735549,90.0565601 34.4487615,79.7127584 L34.4487615,69.765651 L34.4487615,69.4631716 C34.4706968,69.2600592 34.5105208,69.0592798 34.5677698,68.8631716 C34.9271483,67.657402 35.9515274,66.7683183 37.1958689,66.5821799 C37.3000012,66.5821799 37.3991747,66.5821799 37.503307,66.5524278 C37.5958087,66.5477039 37.6884912,66.5477039 37.7809929,66.5524278 L41.5247946,66.5524278 C41.5715063,66.5419692 41.6154558,66.5216848 41.6537202,66.4929237 C41.6904129,66.4600997 41.7192274,66.4194204 41.7380177,66.3739154 C41.7403472,66.3491768 41.7403472,66.3242739 41.7380177,66.2995353 L41.7380177,63.4631716 C41.7403183,63.3502325 41.7502584,63.2375785 41.7677698,63.1259816 C41.9131042,62.1972988 42.6076252,61.4498058 43.5231417,61.2367254 C43.6354457,61.2089114 43.7499048,61.1906643 43.8652904,61.1821799 L44.0338855,61.1821799 L60.6454557,61.1821799 C60.8271556,61.172906 61.0092103,61.172906 61.1909103,61.1821799 C62.1212111,61.2746723 62.904119,61.918614 63.1743813,62.8135849 C63.2375426,63.0293966 63.2692736,63.2531842 63.2685962,63.4780477 L63.2685962,66.2549072 C63.2685962,66.2549072 63.2685962,66.2846592 63.2685962,66.2995353 C63.2743188,66.352161 63.2949645,66.4020546 63.3281003,66.4433369 C63.3579524,66.4866574 63.3991152,66.5209597 63.4471086,66.5425105 L63.5264475,66.5673039 L65.5892574,66.5673039 L69.471902,66.5673039 L77.2272739,66.5673039 L92.7429764,66.6020146 L96.6206623,66.6020146 L98.5595053,66.6020146 C98.733059,66.6020146 98.8619846,66.6020146 99.0553731,66.6020146 C99.2525967,66.6085923 99.4486431,66.6351749 99.640497,66.6813535 C100.026155,66.7760338 100.38986,66.9444155 100.711571,67.1772212 C101.362714,67.6318334 101.808191,68.3249968 101.951241,69.1061468 C101.987039,69.2974726 102.005296,69.4916668 102.005786,69.6863121 C102.005786,69.8648245 102.005786,70.0135849 102.005786,70.1821799 L101.966117,71.1739154 L101.891737,73.1127584 C101.884044,73.7621411 101.829355,74.4101152 101.7281,75.0516014 C101.703083,75.1755779 101.585475,75.2583394 101.460332,75.2400311 C101.366192,75.2210236 101.293352,75.1462145 101.276861,75.0516014 C101.17644,74.4099303 101.12011,73.7621318 101.108266,73.1127584 L101.033885,71.1739154 L100.999175,70.1821799 L100.999175,69.6863121 C100.991098,69.5577994 100.972859,69.4301278 100.944629,69.3044939 C100.822899,68.8042194 100.521004,68.3663836 100.096695,68.0747419 C99.8879774,67.9325965 99.6540358,67.8316145 99.4074392,67.7772212 C99.284233,67.7457919 99.1577225,67.7291457 99.0305797,67.7276344 C98.9165301,67.7276344 98.7231417,67.7276344 98.5694227,67.7276344 L96.6305797,67.7276344 L92.7528937,67.7276344 L77.2371913,67.7623452 L69.4818194,67.7623452 L63.6950425,67.7623452 C63.5779112,67.7726009 63.4601077,67.7726009 63.3429764,67.7623452 C63.2098727,67.7378058 63.080075,67.697868 62.9561995,67.6433369 C62.4526084,67.4157415 62.1007562,66.9459814 62.0239681,66.3987088 C62.0190456,66.3326847 62.0190456,66.2663858 62.0239681,66.2003617 L62.0239681,63.3987088 C62.020832,63.3017182 62.0075362,63.2053236 61.9842987,63.1111055 C61.9267837,62.9182591 61.8148743,62.7460907 61.6619846,62.6152378 C61.5112735,62.494506 61.3285938,62.4204001 61.1363648,62.4020146 L58.2652904,62.4020146 L50.5099185,62.4020146 L44.0190094,62.4020146 L43.8752078,62.4020146 C43.6857926,62.4456025 43.513361,62.5438885 43.37934,62.6846592 C43.2488339,62.8213417 43.1624484,62.9941126 43.1314061,63.180527 C43.1289658,63.2284298 43.1289658,63.2764258 43.1314061,63.3243287 L43.1314061,66.1061468 C43.1314061,66.165651 43.1314061,66.2400311 43.1314061,66.3044939 C43.1136392,66.441697 43.0803687,66.5764424 43.0322326,66.7061468 C42.9237599,66.963453 42.7534292,67.1899928 42.5363648,67.365651 C42.3256977,67.5445498 42.0732663,67.6673543 41.8024805,67.7226758 L41.5991747,67.7524278 L37.8057863,67.7524278 C37.7364717,67.7469797 37.6668364,67.7469797 37.5975218,67.7524278 C37.5381185,67.7475288 37.4784127,67.7475288 37.4190094,67.7524278 C36.9108731,67.8596455 36.469515,68.1718256 36.1991747,68.6152378 C36.0502144,68.8026565 35.9375415,69.0162304 35.8669433,69.2449898 C35.8371913,69.3590394 35.8173565,69.4780477 35.7975218,69.5970559 L35.7975218,79.7127584 C35.7975218,90.0565601 35.886778,100.395403 35.5347119,110.739205 C35.5117129,110.947788 35.335468,111.105667 35.125621,111.105667 C34.915774,111.105667 34.7395291,110.947788 34.7165301,110.739205 L34.7115714,110.739205 Z" id="Shape" fill="#000000" fill-rule="nonzero"></path>
                    <path d="M113.261985,107.228461 C113.269077,107.75165 113.171285,108.270959 112.974381,108.755734 C112.888989,108.983928 112.787922,109.205945 112.671902,109.420196 C112.604531,109.543444 112.530024,109.662655 112.448762,109.777221 L112.220662,110.054907 C110.629478,111.91286 108.11917,112.70256 105.750865,112.090195 C103.382561,111.477829 101.569669,109.570292 101.078514,107.173915 C100.987369,106.710156 100.944166,106.238251 100.949588,105.765651 L100.949588,101.922676 L100.949588,91.6780477 C100.914877,89.9722625 100.949588,88.2664774 101.033885,86.5557336 C101.118183,84.8449898 101.187604,83.1441634 101.311571,81.4334196 C101.331528,81.2747074 101.466486,81.1556561 101.626447,81.1556561 C101.786409,81.1556561 101.921367,81.2747074 101.941323,81.4334196 C102.070249,83.1425105 102.164464,84.8499485 102.223968,86.5557336 C102.303307,88.2664774 102.342976,89.9722625 102.308266,91.6780477 L102.308266,101.922676 L102.308266,105.765651 C102.300555,106.148265 102.333802,106.530606 102.407439,106.906147 C102.792532,108.805091 104.227657,110.3177 106.103748,110.802022 C107.979839,111.286345 109.96781,110.657427 111.223968,109.18218 L111.402481,108.963998 C111.444068,108.905134 111.48215,108.843871 111.51653,108.780527 C111.602225,108.619855 111.678389,108.45428 111.744629,108.284659 C111.874695,107.970151 111.942072,107.633264 111.942976,107.292924 L111.942976,107.292924 C111.912746,107.045097 112.02294,106.80104 112.228828,106.659823 C112.434716,106.518605 112.702082,106.503697 112.922394,106.621148 C113.142705,106.738599 113.27935,106.968892 113.276861,107.218544 L113.261985,107.228461 Z" id="Shape" fill="#000000" fill-rule="nonzero"></path>
                    <path d="M72.1446293,84.4383782 L72.1446293,93.611932 C72.0768324,94.242606 71.5170508,94.7032136 70.8851251,94.6482956 L47.9909103,94.6482956 C47.3589846,94.7032136 46.799203,94.242606 46.7314061,93.611932 L46.7314061,82.5739154 C46.799203,81.9432414 47.3589846,81.4826338 47.9909103,81.5375518 L65.7281003,81.5375518" id="Shape"></path>
                    <path d="M72.1347119,81.5375518 L72.164464,93.611932 C72.0966671,94.242606 71.5368856,94.7032136 70.9049598,94.6482956 L47.9909103,94.6482956 C47.3589846,94.7032136 46.799203,94.242606 46.7314061,93.611932 L46.7314061,82.5739154 C46.799203,81.9432414 47.3589846,81.4826338 47.9909103,81.5375518 L62.1727284,81.5375518" id="Shape" fill-opacity="0" fill="#FFFFFF" fill-rule="nonzero"></path>
                    <path d="M72.4966954,81.5375518 C72.6652904,84.2697832 72.7545466,86.9920973 72.77934,89.7392047 L72.77934,93.5871386 C72.7834761,93.7276687 72.7667657,93.868036 72.7297532,94.0036675 C72.5703804,94.5240864 72.1754637,94.9392082 71.6636375,95.1243287 C71.437226,95.2117688 71.1972163,95.2587637 70.9545466,95.2631716 L51.9727284,95.2631716 L47.8223152,95.2631716 C47.3142597,95.231533 46.8388882,95.0018591 46.4983483,94.6235022 C46.3090965,94.4094478 46.1836846,94.1465981 46.1363648,93.8648245 C46.1229431,93.7927763 46.1146577,93.7198654 46.1115714,93.6466427 L46.1115714,82.7375518 C46.1052403,82.6302071 46.1052403,82.5225825 46.1115714,82.4152378 C46.1452028,82.1286022 46.2585919,81.8571555 46.4388441,81.6317667 C46.7623107,81.2367513 47.2298537,80.9869192 47.7380177,80.9375518 C48.010745,80.9127584 48.1446293,80.9375518 48.3231417,80.9375518 L53.9611582,80.9375518 C55.3297532,80.9375518 56.6983483,80.9375518 58.0619846,80.9673039 C59.4329834,80.9426058 60.8038759,81.0221739 62.1628111,81.2053204 C62.3424865,81.2266064 62.4778332,81.3789339 62.4778332,81.5598658 C62.4778332,81.7407978 62.3424865,81.8931253 62.1628111,81.9144113 C60.8038759,82.0975578 59.4329834,82.1771259 58.0619846,82.1524278 C56.6983483,82.1821799 55.3297532,82.1821799 53.9611582,82.1871386 L48.333059,82.1871386 C48.1694227,82.1871386 47.9611582,82.1871386 47.886778,82.1871386 C47.7068933,82.2008306 47.5395468,82.2845039 47.4206623,82.4201964 C47.3866574,82.4633656 47.3644449,82.5146251 47.3561995,82.5689568 L47.3561995,93.641684 C47.3561995,93.641684 47.3561995,93.6664774 47.3561995,93.6763948 C47.3683802,93.7338229 47.3957838,93.7869174 47.4355384,93.8301138 C47.5675237,93.9625894 47.7445667,94.0404883 47.9314061,94.0482956 L70.9099185,94.0482956 C71.0083617,94.0483439 71.1059323,94.0298392 71.1975218,93.9937501 C71.3424283,93.9498008 71.4593113,93.8420493 71.5148772,93.7011882 C71.5213276,93.6717857 71.5213276,93.6413344 71.5148772,93.611932 L71.5148772,92.8433369 L71.5148772,91.8168906 L71.5148772,89.7639981 C71.5148772,87.0334196 71.5958689,84.2995353 71.7578524,81.5623452 C71.7711321,81.3635517 71.9406163,81.2116762 72.1396706,81.2201964 C72.3214932,81.2213005 72.4742818,81.3571126 72.4966954,81.5375518 L72.4966954,81.5375518 Z" id="Shape" fill="#000000" fill-rule="nonzero"></path>
                    <path d="M52.2652904,89.7788741 L66.5016541,89.7788741" id="Shape" fill="#E5EEFD" fill-rule="nonzero"></path>
                    <path d="M52.2652904,89.3871386 C53.4430192,89.2065562 54.6345613,89.1318774 55.825621,89.1639981 L59.3859516,89.2086262 C60.5710756,89.2086262 61.7561995,89.273089 62.9413235,89.3028411 C64.1264475,89.3325931 65.3165301,89.3920973 66.5016541,89.4615187 C66.6769246,89.4615187 66.8190094,89.6036036 66.8190094,89.7788741 C66.8190094,89.9541446 66.6769246,90.0962295 66.5016541,90.0962295 C65.3148772,90.165651 64.1281003,90.2185435 62.9413235,90.2549072 C61.7561995,90.2846592 60.5710756,90.3392047 59.3859516,90.349122 L55.825621,90.3937501 C54.634751,90.4250666 53.4434256,90.3520605 52.2652904,90.1755683 C52.0481387,90.1376967 51.9020838,89.9318921 51.9380177,89.7144113 C51.96557,89.5463906 52.0972698,89.4146909 52.2652904,89.3871386 Z" id="Shape" fill="#000000" fill-rule="nonzero"></path>
                    <path d="M52.2652904,86.7639981 L62.4801665,86.7639981" id="Shape" fill="#E5EEFD" fill-rule="nonzero"></path>
                    <path d="M52.2652904,86.4763948 C53.118183,86.411932 53.9661169,86.3573865 54.8190094,86.3177171 C55.671902,86.2780477 56.5198359,86.2383782 57.3727284,86.2135849 C58.225621,86.1887915 59.0735549,86.1689568 59.9264475,86.1540807 C60.782498,86.1048537 61.6412916,86.1698886 62.4801665,86.3474692 C62.6731655,86.3947625 62.8088957,86.5677684 62.8088957,86.7664774 C62.8088957,86.9651865 62.6731655,87.1381923 62.4801665,87.1854857 C61.6410774,87.3614628 60.7822781,87.4248305 59.9264475,87.3739154 C59.0735549,87.3739154 58.225621,87.3441634 57.3727284,87.31937 C56.5198359,87.2945766 55.671902,87.2449898 54.8190094,87.2102791 C53.9661169,87.1755683 53.118183,87.1210229 52.2652904,87.0516014 C52.1082535,87.0384305 51.991061,86.9013374 52.0024805,86.7441634 C52.0137861,86.6030892 52.1244522,86.490335 52.2652904,86.4763948 Z" id="Shape" fill="#000000" fill-rule="nonzero"></path>
                    <path d="M64.1809929,86.7639981 L66.194216,86.7639981" id="Shape" fill="#E5EEFD" fill-rule="nonzero"></path>
                    <path d="M64.1809929,86.4763948 C64.5012094,86.3535394 64.8336945,86.2654309 65.1727284,86.2135849 C65.3413235,86.1838328 65.5099185,86.1689568 65.6685962,86.1540807 C65.8574084,86.1168589 66.0507058,86.1922449 66.164464,86.3474692 C66.362819,86.5915956 66.362819,86.9413592 66.164464,87.1854857 C66.0494878,87.3388579 65.856412,87.4122267 65.6685962,87.3739154 C65.5000012,87.3739154 65.3314061,87.3441634 65.1727284,87.31937 C64.8335392,87.2657715 64.5010651,87.1760035 64.1809929,87.0516014 C64.0233864,86.9873492 63.9462167,86.8087564 64.0074392,86.6499485 C64.0422239,86.5728917 64.1039361,86.5111794 64.1809929,86.4763948 L64.1809929,86.4763948 Z" id="Shape" fill="#000000" fill-rule="nonzero"></path>
                    <path d="M90.5310508,66.2402098 C90.1533161,66.2402098 89.8354709,66.1112291 89.5775057,65.8532639 C89.3195405,65.5952987 89.1905598,65.2728471 89.1905598,64.8858993 C89.1905598,64.4897385 89.3195405,64.16959 89.5775057,63.9254444 C89.8354709,63.6812988 90.1533161,63.5592278 90.5310508,63.5592278 C90.9087856,63.5592278 91.2266308,63.6812988 91.484596,63.9254444 C91.7425612,64.16959 91.8715418,64.4897385 91.8715418,64.8858993 C91.8715418,65.2728471 91.7425612,65.5952987 91.484596,65.8532639 C91.2266308,66.1112291 90.9087856,66.2402098 90.5310508,66.2402098 Z M97.8198473,66.2402098 C97.0275256,66.2402098 96.3158287,66.0766807 95.6847353,65.7496177 C95.0536419,65.4225547 94.5607515,64.9688192 94.2060494,64.3883975 C93.8513472,63.8079758 93.6739988,63.1492531 93.6739988,62.4122097 C93.6739988,61.6751663 93.8513472,61.0164436 94.2060494,60.436022 C94.5607515,59.8556003 95.0536419,59.4018647 95.6847353,59.0748017 C96.3158287,58.7477387 97.0275256,58.5842097 97.8198473,58.5842097 C98.6029559,58.5842097 99.287014,58.7477387 99.8720422,59.0748017 C100.45707,59.4018647 100.883167,59.8694196 101.150346,60.4774804 L99.4781866,61.3757476 C99.0912389,60.6939825 98.5338581,60.353105 97.8060278,60.353105 C97.2440322,60.353105 96.7787805,60.5373631 96.4102588,60.9058848 C96.0417371,61.2744065 95.857479,61.7765098 95.857479,62.4122097 C95.857479,63.0479097 96.0417371,63.550013 96.4102588,63.9185347 C96.7787805,64.2870564 97.2440322,64.4713145 97.8060278,64.4713145 C98.5430712,64.4713145 99.1004519,64.130437 99.4781866,63.4486718 L101.150346,64.3607585 C100.883167,64.9503932 100.45707,65.4110384 99.8720422,65.742708 C99.287014,66.0743775 98.6029559,66.2402098 97.8198473,66.2402098 Z M105.882535,66.2402098 C105.265262,66.2402098 104.661816,66.1642033 104.072182,66.0121881 C103.482547,65.8601729 103.012689,65.6690052 102.662593,65.4386791 L103.381207,63.8908957 C103.712876,64.1027956 104.113638,64.2755376 104.583503,64.4091267 C105.053368,64.5427158 105.514013,64.6095094 105.965452,64.6095094 C106.877544,64.6095094 107.333582,64.3837932 107.333582,63.9323542 C107.333582,63.7204542 107.209208,63.5684412 106.960456,63.4763108 C106.711704,63.3841804 106.329368,63.3058707 105.813438,63.2413794 C105.205377,63.149249 104.703274,63.0433006 104.307113,62.923531 C103.910952,62.8037615 103.567771,62.5918647 103.277561,62.2878343 C102.98735,61.9838039 102.842247,61.5507974 102.842247,60.9888018 C102.842247,60.5189366 102.978137,60.1020527 103.249922,59.7381375 C103.521706,59.3742223 103.917861,59.0909255 104.438398,58.8882385 C104.958935,58.6855516 105.573896,58.5842097 106.283301,58.5842097 C106.808444,58.5842097 107.331276,58.6417903 107.851813,58.7569533 C108.37235,58.8721164 108.803054,59.031039 109.143936,59.2337259 L108.425322,60.7676898 C107.771196,60.3991681 107.057196,60.21491 106.283301,60.21491 C105.822649,60.21491 105.477165,60.2794004 105.246839,60.408383 C105.016513,60.5373656 104.901351,60.7031978 104.901351,60.9058848 C104.901351,61.1362108 105.025725,61.2974367 105.274478,61.3895671 C105.52323,61.4816975 105.919385,61.5692201 106.462954,61.6521375 C107.071015,61.753481 107.568512,61.8617326 107.95546,61.9768956 C108.342407,62.0920587 108.678678,62.3016522 108.964283,62.6056826 C109.249887,62.9097131 109.392687,63.3335067 109.392687,63.8770762 C109.392687,64.3377283 109.254494,64.7477026 108.978102,65.1070112 C108.701711,65.4663199 108.298646,65.7450102 107.768896,65.9430907 C107.239146,66.1411711 106.610366,66.2402098 105.882535,66.2402098 Z M119.086076,58.6947656 L115.94905,66.1296538 L113.724112,66.1296538 L110.600906,58.6947656 L112.825844,58.6947656 L114.884949,63.7527007 L117.013151,58.6947656 L119.086076,58.6947656 Z" id=".csv" fill="#CF6766" transform="translate(104.138318, 62.412210) rotate(13.000000) translate(-104.138318, -62.412210) "></path>
                </g>
            </g>
        </g>
    </g>
</svg>