<?xml version="1.0" encoding="UTF-8"?>
<svg width="100pt" height="100pt" version="1.1" viewBox="0 0 100 100" xmlns="http://www.w3.org/2000/svg">
 <g>
  <path d="m94.926 13.82l-10.781-10.535c-0.61328-0.60547-1.4414-0.94141-2.3008-0.94141h-61.227c-1.8203 0-3.2969 1.4766-3.2969 3.2969v25.367h6.5898l0.003906-22.074h54.633v7.2422c0 1.8203 1.4766 3.2969 3.2969 3.2969h7.4844v71.594h-65.414v-22.07h-6.5898v25.367c0 1.8203 1.4766 3.2969 3.2969 3.2969h72.004c1.8203 0 3.2969-1.4766 3.2969-3.2969l-0.007813-78.188c0-0.88672-0.35547-1.7383-0.98828-2.3555z"/>
  <path d="m69.328 35.27h-60.207c-2.7812 0-5.0391 2.2539-5.0391 5.0391v19.387c0 2.7812 2.2539 5.0391 5.0391 5.0391l60.207-0.003906c2.7812 0 5.0391-2.2539 5.0391-5.0391v-19.387c0-2.7812-2.2578-5.0352-5.0391-5.0352zm-44.148 20.398c1.1758 0 2.4805-0.25781 3.25-0.5625l0.58984 3.043c-0.71484 0.35937-2.3281 0.74219-4.4258 0.74219-5.9609 0-9.0312-3.7109-9.0312-8.6211 0-5.8828 4.1953-9.1602 9.4141-9.1602 2.0195 0 3.5547 0.41016 4.2461 0.76562l-0.79297 3.0938c-0.79297-0.33203-1.8945-0.64062-3.2734-0.64062-3.0938 0-5.5 1.8672-5.5 5.7031-0.003906 3.4609 2.043 5.6367 5.5234 5.6367zm12.152 3.2227c-1.9688 0-3.9141-0.51172-4.8867-1.0469l0.79297-3.2227c1.0469 0.53906 2.6602 1.0742 4.3242 1.0742 1.7891 0 2.7383-0.74219 2.7383-1.8672 0-1.0742-0.82031-1.6875-2.8906-2.4297-2.8672-1-4.7344-2.5859-4.7344-5.0898 0-2.9414 2.457-5.1953 6.5234-5.1953 1.9453 0 3.375 0.41016 4.3984 0.87109l-0.87109 3.1484c-0.69141-0.33203-1.918-0.82031-3.6094-0.82031-1.6875 0-2.5078 0.76562-2.5078 1.6641 0 1.1016 0.97266 1.5859 3.1992 2.4297 3.043 1.125 4.4766 2.7109 4.4766 5.1406 0.003906 2.8867-2.2227 5.3438-6.9531 5.3438zm19.75-0.25781h-4.5547l-5.5234-17.242h4.2734l2.0977 7.2891c0.58984 2.0469 1.125 4.0156 1.5352 6.1641h0.078125c0.43359-2.0703 0.97266-4.1172 1.5625-6.0898l2.1992-7.3672h4.1445z"/>
 </g>
</svg>
