<?xml version="1.0" encoding="UTF-8"?>
<svg width="118px" height="82px" viewBox="0 0 118 82" version="1.1" xmlns="http://www.w3.org/2000/svg" xmlns:xlink="http://www.w3.org/1999/xlink">
    <g fill="#263A4C">
        <path d="M56.6510571,0.00131746032 C48.221419,0.00131746032 39.7809778,3.20235079 33.347819,9.63524603 C27.8876048,15.0954603 24.7432222,21.9915746 23.9198095,29.108627 C10.4975238,30.3283054 0,41.5936714 0,55.3339921 C0,69.8879762 11.795354,81.6831984 26.3492063,81.6831984 L90.9047619,81.6831984 C103.312603,81.6831984 113.301587,71.6942143 113.301587,59.286373 C113.301587,46.8785317 103.312603,36.8895476 90.9047619,36.8895476 L89.3402778,36.8895476 C90.5033449,27.1989683 87.348673,17.0709921 79.9122683,9.63392857 C73.479373,3.20103333 65.0803,0 56.6511889,0 L56.6510571,0.00131746032 Z M56.6510571,27.6679841 C57.3509579,27.6628381 57.8398543,27.796642 58.4214603,28.3267143 L72.9135238,41.5013175 C73.9427897,42.4276502 74.1332022,44.2339937 73.119377,45.2479111 C72.1415711,46.225717 70.396977,46.3440776 69.3727833,45.4125937 L59.2860437,36.2314762 L59.2860437,64.556873 C59.2860437,66.0133254 58.1075359,67.1917937 56.651123,67.1917937 C55.1947102,67.1917937 54.0162024,66.0132859 54.0162024,64.556873 L54.0162024,36.2314762 L43.9294627,45.4125937 C42.9053481,46.3440776 41.1144452,46.277177 40.182869,45.2479111 C39.2512929,44.2186452 39.3079963,42.4431698 40.3887222,41.5013175 L54.8807857,28.3267143 C55.2564727,27.9819086 55.946071,27.6834248 56.6511889,27.6679841 L56.6510571,27.6679841 Z"/>
    </g>
    <g transform="translate(78.000000, 6.000000)">
        <circle fill="#CF6766" cx="20" cy="20" r="20"/>
        <text font-family="Montserrat-Medium, Montserrat" font-size="29" font-weight="400" fill="#FFFFFF">
            <tspan x="16" y="30">!</tspan>
        </text>
    </g>
</svg>
