<?xml version="1.0" encoding="UTF-8"?>
<svg width="51px" height="51px" viewBox="0 0 51 51" version="1.1" xmlns="http://www.w3.org/2000/svg" xmlns:xlink="http://www.w3.org/1999/xlink">
    <!-- Generator: Sketch 63.1 (92452) - https://sketch.com -->
    <title>network (1)</title>
    <desc>Created with Sketch.</desc>
    <g id="Enframe-Settings" stroke="none" stroke-width="1" fill="none" fill-rule="evenodd" opacity="0.5">
        <g id="Enframe-Settings---empty-state" transform="translate(-1090.000000, -312.000000)" fill="#1B0D3F" fill-rule="nonzero">
            <g id="network-(1)" transform="translate(1090.000000, 312.000000)">
                <path d="M49.40625,19.921875 L44.6305781,19.921875 C44.2237734,18.5315273 43.6660605,17.1898887 42.9675,15.9207656 L46.3486406,12.5404219 C46.9708008,11.9180625 46.9708008,10.9092187 46.3486406,10.2868594 L40.7139375,4.65135937 C40.0915781,4.02919922 39.0827344,4.02919922 38.460375,4.65135937 L35.0784375,8.0325 C33.8099121,7.33364062 32.468373,6.77612695 31.078125,6.37021875 L31.078125,1.59375 C31.078125,0.713501953 30.364623,0 29.484375,0 L21.515625,0 C20.635377,0 19.921875,0.713501953 19.921875,1.59375 L19.921875,6.37021875 C18.531627,6.776625 17.1901875,7.33433789 15.9215625,8.03329687 L12.5404219,4.65135938 C11.9180625,4.02919922 10.9092187,4.02919922 10.2868594,4.65135938 L4.65135938,10.2868594 C4.02969727,10.9091191 4.02969727,11.9173652 4.65135938,12.539625 L8.0325,15.9207656 C7.33374023,17.1896895 6.77632617,18.5314277 6.37021875,19.921875 L1.59375,19.921875 C0.713501953,19.921875 0,20.635377 0,21.515625 L0,29.484375 C0,30.364623 0.713501953,31.078125 1.59375,31.078125 L6.37021875,31.078125 C6.77612695,32.468373 7.33364062,33.8099121 8.0325,35.0784375 L4.65135938,38.460375 C4.02919922,39.0827344 4.02919922,40.0915781 4.65135938,40.7139375 L10.2860625,46.3486406 C10.9084219,46.9708008 11.9172656,46.9708008 12.539625,46.3486406 L15.9207656,42.9675 C17.1898887,43.6660605 18.5315273,44.2237734 19.921875,44.6305781 L19.921875,49.40625 C19.921875,50.286498 20.635377,51 21.515625,51 L29.484375,51 C30.364623,51 31.078125,50.286498 31.078125,49.40625 L31.078125,44.6305781 C32.4684727,44.2237734 33.8101113,43.6660605 35.0792344,42.9675 L38.460375,46.3486406 C39.0827344,46.9708008 40.0915781,46.9708008 40.7139375,46.3486406 L46.3486406,40.7139375 C46.9708008,40.0915781 46.9708008,39.0827344 46.3486406,38.460375 L42.9675,35.0792344 C43.6661602,33.8102109 44.223873,32.4684727 44.6305781,31.078125 L49.40625,31.078125 C50.286498,31.078125 51,30.364623 51,29.484375 L51,21.515625 C51,20.635377 50.286498,19.921875 49.40625,19.921875 Z M49.40625,29.484375 L44.0225625,29.484375 C43.6575938,29.4846738 43.3394414,29.7329004 43.2503906,30.0868125 C42.8222695,31.7460059 42.1617598,33.3363691 41.2884844,34.8106875 C41.1032109,35.1236602 41.1534141,35.5223965 41.4104062,35.7796875 L45.2218594,39.5871562 L39.5871562,45.2218594 L35.7757031,41.4104062 C35.5184121,41.1534141 35.1196758,41.1032109 34.8067031,41.2884844 C33.3320859,42.1612617 31.7418223,42.8216719 30.0828281,43.2503906 C29.7305098,43.3409355 29.4841758,43.6586895 29.484375,44.0225625 L29.484375,49.40625 L21.515625,49.40625 L21.515625,44.0225625 C21.5159238,43.6589883 21.2699883,43.341334 20.9179688,43.2503906 C19.2585762,42.8219707 17.6680137,42.1615605 16.1932969,41.2884844 C16.070877,41.2155703 15.9310254,41.1770215 15.7884844,41.1769219 C15.5769141,41.1767227 15.3739102,41.260793 15.2242969,41.4104062 L11.4128437,45.2218594 L5.77814062,39.5871562 L9.58959375,35.7757031 C9.84688477,35.5186113 9.89738672,35.119875 9.7123125,34.8067031 C8.83903711,33.3321855 8.1780293,31.7419219 7.7488125,30.0828281 C7.65826758,29.730709 7.34101172,29.4845742 6.9774375,29.484375 L1.59375,29.484375 L1.59375,21.515625 L6.9774375,21.515625 C7.34071289,21.5155254 7.65796875,21.2696895 7.7488125,20.9179688 C8.17773047,19.2585762 8.83873828,17.6679141 9.7123125,16.1932969 C9.89738672,15.880125 9.84688477,15.4813887 9.58959375,15.2242969 L5.77814063,11.4128437 L11.4128437,5.77814062 L15.2242969,9.58959375 C15.4813887,9.84688477 15.880125,9.89738672 16.1932969,9.7123125 C17.6679141,8.83873828 19.2585762,8.17773047 20.9179688,7.7488125 C21.2696895,7.65796875 21.5155254,7.34071289 21.515625,6.9774375 L21.515625,1.59375 L29.484375,1.59375 L29.484375,6.9774375 C29.4850723,7.34210742 29.7330996,7.65986133 30.0868125,7.7488125 C31.7459063,8.1780293 33.3361699,8.83903711 34.8106875,9.7123125 C35.1238594,9.89738672 35.5225957,9.84688477 35.7796875,9.58959375 L39.5871562,5.77814063 L45.2218594,11.4128437 L41.4104062,15.2242969 C41.1534141,15.4815879 41.1032109,15.8803242 41.2884844,16.1932969 C42.1615605,17.6680137 42.8219707,19.2585762 43.2503906,20.9179688 C43.341334,21.2699883 43.6589883,21.5159238 44.0225625,21.515625 L49.40625,21.515625 L49.40625,29.484375 Z" id="Shape"></path>
                <path d="M25.5,10.359375 C17.141877,10.3686387 10.3686387,17.141877 10.359375,25.5 L11.953125,25.5 C11.9614922,18.0217266 18.0217266,11.9614922 25.5,11.953125 L25.5,10.359375 Z" id="Path"></path>
                <path d="M25.5,39.046875 L25.5,40.640625 C33.858123,40.6313613 40.6313613,33.858123 40.640625,25.5 L39.046875,25.5 C39.0385078,32.9782734 32.9782734,39.0385078 25.5,39.046875 Z" id="Path"></path>
                <path d="M33.46875,32.671875 L33.46875,19.125 C33.46875,16.9351875 29.33775,15.9375 25.5,15.9375 C21.66225,15.9375 17.53125,16.9351875 17.53125,19.125 L17.53125,32.671875 C17.53125,34.8616875 21.66225,35.859375 25.5,35.859375 C29.33775,35.859375 33.46875,34.8616875 33.46875,32.671875 Z M25.5,17.53125 C29.6827969,17.53125 31.875,18.7154063 31.875,19.125 C31.875,19.5345937 29.6835937,20.71875 25.5,20.71875 C21.3164062,20.71875 19.125,19.5345937 19.125,19.125 C19.125,18.7154063 21.3164062,17.53125 25.5,17.53125 Z M19.125,21.1395996 C20.6785078,21.936375 23.1443379,22.3125 25.5,22.3125 C27.8556621,22.3125 30.3214922,21.936375 31.875,21.1395996 L31.875,25.5 C31.875,25.9095937 29.6835937,27.09375 25.5,27.09375 C21.3164062,27.09375 19.125,25.9095937 19.125,25.5 L19.125,21.1395996 Z M19.125,32.671875 L19.125,27.5145996 C20.6785078,28.311375 23.1443379,28.6875 25.5,28.6875 C27.8556621,28.6875 30.3214922,28.311375 31.875,27.5145996 L31.875,32.671875 C31.875,33.0814688 29.6835937,34.265625 25.5,34.265625 C21.3164062,34.265625 19.125,33.0814688 19.125,32.671875 Z" id="Shape"></path>
            </g>
        </g>
    </g>
</svg>