<?xml version="1.0" encoding="UTF-8"?>
<svg width="58px" height="40px" viewBox="0 0 58 40" version="1.1" xmlns="http://www.w3.org/2000/svg" xmlns:xlink="http://www.w3.org/1999/xlink">
    <!-- Generator: Sketch 50.2 (55047) - http://www.bohemiancoding.com/sketch -->
    <title>icons/fill-icons/folder</title>
    <desc>Created with Sketch.</desc>
    <defs></defs>
    <g id="Visualization" stroke="none" stroke-width="1" fill="none" fill-rule="evenodd">
        <g id="3-VI-ShinyR-Upload" transform="translate(-1629.000000, -250.000000)">
            <g id="icons/fill-icons/folder/success" transform="translate(1629.000000, 250.000000)">
                <g id="np_folder_53223_2E3E59">
                    <path d="M57.0688715,37.6135484 L48.8868228,13.9367742 C48.4364527,12.6464516 46.9545119,11.6131613 45.6008637,11.6131613 L2.18956594,11.6131613 C0.835917715,11.6131613 0.0635086198,12.6464516 0.513865891,13.9367742 L8.7590367,37.6135484 C9.20940685,38.903871 10.6913476,39.9371613 12.0449959,39.9371613 L55.3938155,39.9346413 C56.8103283,39.9346413 57.5198729,38.9038671 57.0695156,37.6135445 L57.0688715,37.6135484 Z" id="Shape" fill="#EBC227" fill-rule="nonzero"></path>
                    <path d="M55.3929138,4.83870968 L25.9580212,4.83870968 L25.9580212,2.51509677 C25.9580212,1.15922581 24.8635602,0 23.4470475,0 L12.0444806,0 C10.6908324,0 9.53350693,1.09625806 9.53350693,2.51509677 L9.53350693,6.64309677 L9.53350693,6.96567742 L9.53350693,7.28825806 L9.53350693,9.54632258 L45.5376127,9.54632258 C47.7265345,9.54632258 49.9808973,11.1592258 50.6904419,13.2232258 L57.8412806,33.8683871 L57.8412806,7.35354839 C57.9041818,6.00019355 56.8096842,4.83845161 55.3931714,4.83845161 L55.3929138,4.83870968 Z" id="Shape" fill="#E8B611" fill-rule="nonzero"></path>
                </g>
            </g>
        </g>
    </g>
</svg>