<?xml version="1.0" encoding="UTF-8"?>
<svg width="100pt" height="100pt" version="1.1" viewBox="0 0 100 100" xmlns="http://www.w3.org/2000/svg">
 <path fill="rgba(0,171,78, 0.4)" d="m8 17c-1.6289 0-3 1.3711-3 3v54c0 1.6289 1.3711 3 3 3h58.531c2.9375 3.6484 7.4375 6 12.469 6 8.8125 0 16-7.1875 16-16 0-5.9023-3.2227-11.07-8-13.844v-33.156c0-1.6289-1.3711-3-3-3zm1 4h74v30.531c-1.2812-0.33203-2.6172-0.53125-4-0.53125-1.4062 0-2.7617 0.1875-4.0625 0.53125l-14.562-14c-0.96484-0.74609-2.1172-0.73047-2.8438 0.125l-17.719 19.562-13.875-11.75c-0.69141-0.59375-1.8086-0.625-2.5312-0.0625l-14.406 11.438zm28 6c-4.3945 0-8 3.6055-8 8s3.6055 8 8 8 8-3.6055 8-8-3.6055-8-8-8zm0 4c2.2344 0 4 1.7656 4 4s-1.7656 4-4 4-4-1.7656-4-4 1.7656-4 4-4zm22.094 10.844l11.812 11.375c-4.7266 2.7852-7.9062 7.918-7.9062 13.781 0 2.1211 0.40234 4.1445 1.1562 6h-55.156v-11.031l15.594-12.406 14.125 11.938c0.77344 0.65625 2.0547 0.58203 2.75-0.15625zm19.906 13.156c6.6523 0 12 5.3477 12 12s-5.3477 12-12 12-12-5.3477-12-12 5.3477-12 12-12zm0 3c-0.57812 0-1.0742 0.26562-1.4375 0.65625-1.6367 1.5156-3.3438 3.3008-4.9688 4.9375-0.79688 0.80469-0.78125 2.0312 0 2.8125s2.0312 0.78125 2.8125 0l1.5938-1.5938v9.1875c0 1.1055 0.89453 2 2 2s2-0.89453 2-2v-9.1875l1.5938 1.5938c0.78125 0.78125 2.0312 0.78125 2.8125 0s0.80469-2.0078 0-2.8125c-1.6641-1.6016-3.3047-3.4531-4.9688-4.9375-0.36328-0.39062-0.85938-0.65625-1.4375-0.65625z"/>
</svg>
