<svg xmlns="http://www.w3.org/2000/svg" id="prefix__LLamaAi" width="240.649" height="57.665" viewBox="0 0 240.649 57.665">
    <path id="prefix__Path_1" d="M60.723 42.5v-2.213H53.3c-3.659 0-5.25 1.578-5.25 4.443 0 2.944 1.618 4.5 5.25 4.5 5.161 0 7.422-1.565 7.422-6.723zM37.56 45.063c0-7.281 4.8-11.649 13.658-11.649h9.495v-1.607c0-4.209-1.888-5.9-7.7-5.9a54.194 54.194 0 0 0-12.359 1.6v-9.333a82.911 82.911 0 0 1 14.4-1.336c11.638 0 16.365 5.508 16.365 15v24.785h-10.7v-4.034c-1.552 3.08-4.848 4.827-10.408 4.827-8.345 0-12.749-4.7-12.749-12.354zm98.026-13.751v25.312h-10.793v-22.7c0-5.152-1.623-8.019-6.058-8.019-4.793 0-6.557 2.867-6.557 8.019v22.7h-10.794v-22.7c0-5.152-1.56-8.019-6.055-8.019-4.845 0-6.56 2.867-6.56 8.019v22.7H77.975V17.415h10.8v4.222c2.249-3.051 5.318-5.018 10.407-5.018 5.018 0 8.669 2.081 10.645 5.657a14.516 14.516 0 0 1 12.2-5.657c9.092 0 13.569 6.1 13.569 14.69zM163.594 42.5v-2.213h-7.431c-3.658 0-5.25 1.578-5.25 4.443 0 2.944 1.62 4.5 5.25 4.5 5.173 0 7.431-1.565 7.431-6.723zm-23.157 2.559c0-7.281 4.8-11.649 13.658-11.649h9.495v-1.603c0-4.209-1.888-5.9-7.706-5.9a54.175 54.175 0 0 0-12.359 1.6v-9.329a83.247 83.247 0 0 1 14.4-1.339c11.639 0 16.363 5.507 16.363 15v24.784h-10.7v-4.034c-1.552 3.08-4.847 4.827-10.41 4.827-8.337 0-12.743-4.7-12.743-12.354zM21.034 0h10.518v55.9H21.034zM0 0h10.518v55.9H0zm180.3 49.861h6.01V55.9h-6.01z" data-name="Path 1" style="fill:#fff"/>
    <path id="prefix__Path_2" d="M161.27 4.9a2.965 2.965 0 0 1 .858-2.128 3.007 3.007 0 0 1 5.152 2.191 3.083 3.083 0 0 1-3 2.953 3.021 3.021 0 0 1-2.141-.887 2.946 2.946 0 0 1-.862-2.13M163 17.3l-.191 32.7a34.824 34.824 0 0 0-13.391-12.477l.036-5.812c.055-9.7-4.432-14.669-15.016-14.73a56.748 56.748 0 0 0-11.859 1.275V20.9a42.866 42.866 0 0 1 11.368-1.447c9.626.055 12.8 4.124 12.751 12.252l-.026 4.593a35.542 35.542 0 0 0-13.661-2.235c-9.334.05-13.774 4.055-13.811 10.741-.04 6.873 4.113 11.413 12.743 11.462 8.162.047 12.6-3.211 14.516-7.959l-.076 7.418 2.932.011.087-15.379c4.489 2.772 9.2 7.46 13.375 15.379v.126l2.78.016.221-38.569L163 17.3zm-16.352 23.113c-.052 9.146-6.107 13.538-14.422 13.491-7.083-.039-10.235-3.485-10.2-9.088.031-5.392 3.285-8.361 11.181-8.419a28.839 28.839 0 0 1 13.453 2.477z" data-name="Path 2" transform="translate(73.119 1.149)" style="stroke:#fff;stroke-width:.5px;fill:#fff"/>
</svg>
