<?xml version="1.0" encoding="UTF-8"?>
<svg width="130px" height="130px" viewBox="0 0 130 130" version="1.1" xmlns="http://www.w3.org/2000/svg" xmlns:xlink="http://www.w3.org/1999/xlink">
    <!-- Generator: Sketch 55.1 (78136) - https://sketchapp.com -->
    <title>Group 3</title>
    <desc>Created with Sketch.</desc>
    <g id="Multiple-SSO-Login" stroke="none" stroke-width="1" fill="none" fill-rule="evenodd">
        <g id="AC---Multiple-SSO-Login-Copy" transform="translate(-895.000000, -266.000000)" fill="#FFFFFF" fill-rule="nonzero">
            <g id="Group-3" transform="translate(895.000000, 266.000000)">
                <path d="M70.8609923,121.84266 C60.2170557,121.84266 49.7121535,118.522163 41.0367899,112.379825 C32.5855704,106.395944 26.0353558,97.8857949 22.4698352,88.1875361 C18.7555347,78.0856953 18.3488262,66.8591281 21.3016854,56.5128097 C24.1460456,46.5500238 30.0777517,37.5690287 38.1001731,30.9804217 C46.2421381,24.2947998 56.3858102,20.2201729 66.9108528,19.4252973 C77.6028666,18.6181331 88.4215709,21.1618645 97.5868039,26.709178 C106.434986,32.0650485 113.569926,40.0758943 117.833218,49.4721132 C122.275825,59.264153 123.492702,70.3937052 121.324673,80.9165908 C119.231359,91.0772872 113.976634,100.47674 106.446681,107.640322 C98.8907397,114.828481 89.1830123,119.627486 78.8522282,121.229526 C76.2099228,121.639576 73.5351326,121.84266 70.8609923,121.84266 Z M70.8609923,11.7669391 C64.6713575,11.7669391 58.4888698,12.7273868 52.6013427,14.6301729 C46.9210682,16.4669888 41.5299076,19.1730585 36.6636996,22.6196754 C31.8468684,26.0307203 27.5478433,30.1609689 23.9537362,34.8319143 C20.3290935,39.5410186 17.4249614,44.7934066 15.3777756,50.3646506 C13.2747162,56.089178 12.0857762,62.1357949 11.8473385,68.225745 C11.604353,74.4165908 12.3320102,80.6410685 14.0270618,86.6036058 C15.6577937,92.3404217 18.1779567,97.8211182 21.4673573,102.803805 C24.7138781,107.722461 28.703649,112.151516 33.2612523,115.90082 C37.8448433,119.672113 42.998216,122.75072 48.5024236,124.993705 C54.1638568,127.301367 60.1839214,128.713258 66.2832484,129.178929 C72.5118645,129.654302 78.8145459,129.157586 84.8846369,127.685546 C90.7214877,126.270422 96.3322448,123.956292 101.466777,120.852461 C106.523345,117.795198 111.112783,113.981864 115.040833,109.578034 C118.963036,105.179377 122.220601,100.197337 124.66345,94.8421132 C127.179715,89.3251978 128.822791,83.4228097 129.523811,77.4040038 C130.245621,71.2125112 129.983795,64.9046009 128.737682,58.7958943 C127.537697,52.9142027 125.420344,47.2246009 122.485676,41.9819143 C119.604283,36.8336555 115.940659,32.1239041 111.661125,28.0518644 C107.375743,23.9746505 102.476401,20.5409689 97.1703501,17.9086306 C91.7473545,15.2174366 85.9085546,13.3722127 79.9203251,12.4544515 C76.9239365,11.9952475 73.8924643,11.7669391 70.8609923,11.7669391 Z" id="Fill-14"></path>
                <path d="M31.1328547,119.819576 C24.4540005,114.403556 18.9277035,107.707586 14.9515764,100.089974 C10.884492,92.2970883 8.50206419,83.6711679 7.98555746,74.9042524 C7.52102627,67.0124118 8.53844704,59.0461928 11.0228768,51.5359439 C13.3396856,44.5308196 16.9149516,37.9525608 21.5225813,32.1795262 C26.1269626,26.4097252 31.7500641,21.4554963 38.066389,17.6117649 C44.4489826,13.7279341 51.5228507,10.9940535 58.868291,9.58280971 C66.9953131,8.02086942 75.4341883,8.06420276 83.5443182,9.71151618 C91.748004,11.3788794 99.5872118,14.7013172 106.489561,19.4188296 C113.334737,24.0981828 119.230709,30.1241034 123.744783,37.0542027 C124.447752,38.1336555 125.077955,39.2570883 125.775077,40.3397749 C126.162294,40.9425608 126.764561,42.1384316 127.483122,42.4275361 C128.408936,42.8007203 127.468179,39.9704714 127.316151,39.5558943 C125.93815,35.7968893 123.958533,32.2720136 121.697598,28.9760932 C117.115956,22.2969391 111.308991,16.4644018 104.639882,11.844551 C97.9311418,7.19688932 90.3674045,3.79554604 82.4242458,1.87335698 C74.3673906,-0.0753494856 65.9454076,-0.504155455 57.7287276,0.58887937 C50.2604955,1.5823122 42.9761265,3.85116794 36.2712845,7.27385449 C29.671693,10.6435062 23.6509788,15.1165411 18.5196957,20.4471878 C13.4001071,25.765546 9.17579684,31.9279341 6.08000502,38.6180833 C2.89780387,45.4938545 0.925982629,52.9090287 0.258746905,60.4496753 C-0.483853318,68.8544017 0.373093049,77.3910685 2.81529273,85.4724118 C5.22305863,93.440571 9.16345265,100.93077 14.3506094,107.4547 C16.9065056,110.670422 19.7612609,113.649427 22.8667982,116.344501 C25.9301053,119.003357 29.2779784,121.633755 32.9721384,123.368382 C33.3522093,123.546243 35.8372888,124.587536 35.0894911,123.447287 C34.6762858,122.817337 34.034388,122.29669 33.4776005,121.799974 C32.7148596,121.118929 31.9248316,120.466989 31.1328547,119.819576" id="Fill-15"></path>
                <path d="M103.619213,35.3047002 C102.448464,34.3390784 101.305652,33.3430584 100.092674,32.429178 C99.418941,31.9214664 98.7159721,31.3723619 97.9428364,31.0192277 C96.8097699,30.5005211 97.3964437,31.5948495 97.7544249,32.1142027 C99.0122326,33.9400238 100.705335,35.4288794 102.119069,37.1285809 C103.966799,39.3495759 105.604028,41.7432576 107.001519,44.2688794 C112.395279,54.0221132 114.015616,65.6335062 111.550677,76.4888295 C109.437872,85.7938545 104.34687,94.3149988 97.1800955,100.642312 C89.9451034,107.031069 80.7447869,111.037138 71.1163219,111.962014 C59.4666591,113.080272 47.6461268,109.698332 38.4035801,102.543805 C38.2171179,102.399576 35.9373417,100.180521 35.5852076,100.829228 C35.4156375,101.140322 35.9379915,101.806491 36.0900199,102.028979 C36.6903371,102.910521 37.4407336,103.696342 38.1943787,104.447238 C42.3530699,108.588481 47.3193306,111.770571 52.7592184,113.992859 C62.9711084,118.166441 74.5622989,118.661218 85.1003353,115.395695 C94.2142426,112.571267 102.369851,106.983208 108.309354,99.5473372 C114.38919,91.935546 118.010584,82.5283322 118.590111,72.8197252 C119.262544,61.5556456 115.851001,50.2695759 109.005176,41.271765 C107.38159,39.1374365 105.57739,37.1395759 103.619213,35.3047002" id="Fill-16"></path>
            </g>
        </g>
    </g>
</svg>