<svg xmlns="http://www.w3.org/2000/svg" width="400" height="153" viewBox="0 0 400 153">
    <g fill="#FFF" fill-rule="nonzero">
        <path d="M191.796 60.698c7.38 0 11.64-5.44 11.64-15.472 0-9.962-4.26-15.402-11.64-15.402-7.38 0-11.64 5.44-11.64 15.402 0 10.032 4.26 15.472 11.64 15.472zm0 6.428c-12.348 0-19.375-9.042-19.375-21.9 0-12.788 7.027-21.901 19.375-21.901 12.42 0 19.375 9.113 19.375 21.9 0 12.859-6.956 21.901-19.375 21.901zM228.627 61.122c5.536 0 8.658-4.17 8.658-10.669 0-6.428-3.122-10.596-8.658-10.596s-8.73 4.168-8.73 10.596c0 6.5 3.194 10.669 8.73 10.669zM213.37 79.984V34.488h5.394l1.49 4.45c2.413-3.32 5.748-5.157 10.432-5.157 7.38 0 13.839 6.429 13.839 16.672 0 10.315-6.459 16.673-13.84 16.673-4.683 0-8.018-1.765-10.432-5.157v18.015h-6.883zM253.748 47.204h15.755c-.212-4.592-3.122-7.772-7.736-7.772-4.754 0-7.664 3.25-8.02 7.772zm8.374 19.922c-8.87 0-15.684-6.287-15.684-16.814 0-9.89 6.53-16.53 15.471-16.53 9.298 0 15.046 7.275 15.046 15.541 0 .99-.072 1.838-.213 2.756h-23.065c.213 5.651 3.194 9.254 8.374 9.254 4.4 0 6.813-2.684 7.452-5.651h7.38c-1.774 7.065-7.168 11.444-14.76 11.444z"/>
        <path d="M274.327 66.42l11-15.967-10.787-15.965h8.02l7.168 11.374 7.38-11.374h7.594L293.985 50.17l10.93 16.25h-8.02l-7.452-11.658-7.522 11.657h-7.594M174.848 72.72h32.828v6.874H182.83v11.904h22.993v6.493H182.83v13.304h25.292v6.875h-33.275zM213.065 85.26h5.266l1.609 4.838.127.127c1.103-1.825 2.546-3.257 4.329-4.297 1.782-1.04 3.755-1.56 5.92-1.56 3.607 0 6.45.934 8.53 2.801 2.08 1.868 3.119 4.668 3.119 8.403v22.598h-7.257V97.482c-.085-2.589-.636-4.467-1.655-5.634-1.018-1.167-2.61-1.75-4.774-1.75-1.23 0-2.334.222-3.31.668a7.178 7.178 0 0 0-2.483 1.846c-.679.785-1.21 1.708-1.591 2.769a9.884 9.884 0 0 0-.573 3.374v19.415h-7.257V85.26zM242.596 85.26h5.41v-2.738c0-2.08.255-3.766.764-5.06.51-1.295 1.189-2.292 2.037-2.992a6.709 6.709 0 0 1 2.897-1.4 16.116 16.116 0 0 1 3.405-.35c2.335 0 4.032.148 5.093.445v5.665a10.388 10.388 0 0 0-1.496-.286 16.008 16.008 0 0 0-1.878-.096c-.976 0-1.814.234-2.514.7-.7.467-1.05 1.38-1.05 2.738v3.374h6.174v5.41h-6.175v27.5h-7.256v-27.5h-5.411v-5.41zM265.026 85.26h6.811v6.365h.128c.212-.89.626-1.76 1.24-2.61a12.103 12.103 0 0 1 2.229-2.323c.87-.7 1.835-1.263 2.896-1.687a8.67 8.67 0 0 1 3.247-.637c.849 0 1.432.022 1.75.064.319.043.647.085.987.127v7.003c-.51-.085-1.03-.16-1.56-.223-.53-.064-1.05-.096-1.56-.096a8.34 8.34 0 0 0-3.468.732c-1.083.488-2.027 1.21-2.833 2.165-.807.955-1.443 2.132-1.91 3.533-.467 1.4-.7 3.013-.7 4.838v15.66h-7.257V85.26zM313.648 110.85c0 .89-.104 1.579.35 1.91.454.33 1.101.351 1.788.195l.774-.12c.556-.166.626-.221 1.042-.372l-.065 5.235c-.14.047-.553.263-.955.445-.403.181-1.236.579-1.66.664a13.171 13.171 0 0 1-2.356.254c-1.485 0-2.716-.297-3.692-.89-.976-.595-1.613-1.635-1.91-3.12-1.443 1.4-3.214 2.419-5.315 3.055-2.1.637-4.127.955-6.08.955-1.485 0-2.906-.201-4.264-.604-1.358-.404-2.557-.998-3.597-1.783a8.542 8.542 0 0 1-2.483-2.992c-.615-1.21-.923-2.62-.923-4.233 0-2.037.372-3.692 1.114-4.965.743-1.273 1.72-2.27 2.929-2.992 1.21-.721 2.567-1.241 4.074-1.56a47.248 47.248 0 0 1 4.551-.732 37.238 37.238 0 0 1 3.756-.54c1.188-.107 2.238-.287 3.15-.542.913-.254 1.635-.647 2.165-1.177s.796-1.327.796-2.388c0-.933-.223-1.697-.669-2.291a4.486 4.486 0 0 0-1.655-1.369 7.15 7.15 0 0 0-2.196-.636 17.6 17.6 0 0 0-2.291-.16c-2.037 0-3.714.425-5.03 1.274-1.315.848-2.057 2.164-2.227 3.946h-7.257c.127-2.122.636-3.883 1.528-5.283a10.554 10.554 0 0 1 3.405-3.374c1.38-.849 2.94-1.443 4.679-1.782 1.74-.34 3.522-.51 5.347-.51 1.613 0 3.204.17 4.774.51 1.57.34 2.982.89 4.234 1.655a9.168 9.168 0 0 1 3.023 2.96c.764 1.21 1.146 2.684 1.146 4.424v16.933zm-7.257-9.167c-1.103.721-2.461 1.156-4.074 1.305a54.064 54.064 0 0 0-4.838.668c-.764.128-1.506.308-2.228.541a6.71 6.71 0 0 0-1.91.955 4.192 4.192 0 0 0-1.304 1.592c-.319.658-.478 1.453-.478 2.387 0 .806.234 1.485.7 2.037.467.552 1.03.987 1.687 1.305a7.81 7.81 0 0 0 2.165.668c.785.128 1.496.191 2.132.191.807 0 1.677-.106 2.61-.318a8.68 8.68 0 0 0 2.642-1.082 6.955 6.955 0 0 0 2.069-1.942c.551-.785.827-1.75.827-2.896v-5.411zM318.446 85.26h6.874v4.583h.191a18.635 18.635 0 0 1 1.783-2.228 9.724 9.724 0 0 1 2.132-1.719c.785-.467 1.687-.838 2.706-1.114 1.018-.276 2.185-.414 3.5-.414 1.995 0 3.852.446 5.57 1.337 1.72.891 2.94 2.27 3.661 4.138 1.23-1.698 2.652-3.034 4.265-4.01 1.613-.977 3.628-1.465 6.047-1.465 3.48 0 6.186.85 8.117 2.547 1.93 1.697 2.896 4.54 2.896 8.53v22.725h-7.257V98.946c0-1.316-.042-2.515-.127-3.597-.085-1.082-.33-2.016-.732-2.8a4.163 4.163 0 0 0-1.814-1.815c-.807-.424-1.91-.636-3.31-.636-2.462 0-4.244.763-5.348 2.291-1.103 1.528-1.655 3.692-1.655 6.493v19.288h-7.257V97.036c0-2.292-.413-4.02-1.241-5.188-.828-1.167-2.345-1.75-4.551-1.75-.934 0-1.836.19-2.706.572a6.743 6.743 0 0 0-2.291 1.655c-.658.722-1.189 1.613-1.592 2.674s-.605 2.27-.605 3.629v19.542h-7.256V85.26zM375.482 103.593c0 1.273.18 2.504.541 3.692.36 1.188.902 2.228 1.623 3.119.722.891 1.634 1.602 2.737 2.132 1.104.531 2.42.796 3.947.796 2.122 0 3.83-.456 5.125-1.368 1.294-.913 2.26-2.281 2.896-4.106h6.875c-.382 1.782-1.04 3.374-1.974 4.774a13.73 13.73 0 0 1-3.373 3.533 14.562 14.562 0 0 1-4.424 2.164 17.809 17.809 0 0 1-5.125.732c-2.589 0-4.88-.424-6.875-1.273-1.994-.849-3.681-2.037-5.06-3.565-1.38-1.527-2.42-3.352-3.12-5.474-.7-2.122-1.05-4.456-1.05-7.002 0-2.334.371-4.552 1.114-6.652.743-2.101 1.804-3.947 3.183-5.539a15.221 15.221 0 0 1 4.997-3.787c1.952-.934 4.159-1.4 6.62-1.4 2.589 0 4.912.54 6.97 1.623 2.059 1.082 3.767 2.514 5.125 4.296 1.358 1.783 2.345 3.83 2.96 6.143.615 2.313.774 4.7.477 7.162h-24.19zm16.933-4.775a11.702 11.702 0 0 0-.733-3.31 8.82 8.82 0 0 0-1.655-2.769 8.196 8.196 0 0 0-2.546-1.91c-.997-.487-2.111-.731-3.342-.731-1.273 0-2.43.222-3.47.668a7.934 7.934 0 0 0-2.673 1.846 9.13 9.13 0 0 0-1.782 2.769 9.66 9.66 0 0 0-.732 3.437h16.933zM83.591 143.732c-12.556 0-24.948-3.917-35.182-11.163-9.97-7.059-17.696-17.098-21.902-28.538-4.382-11.917-4.862-25.16-1.378-37.366 3.355-11.752 10.352-22.347 19.816-30.119a61.032 61.032 0 0 1 33.986-13.63c12.613-.953 25.376 2.048 36.187 8.592 10.438 6.318 18.855 15.768 23.884 26.852 5.24 11.551 6.676 24.68 4.119 37.093-2.47 11.986-8.668 23.074-17.551 31.525-8.913 8.48-20.365 14.14-32.552 16.03a61.505 61.505 0 0 1-9.427.724zm0-129.851a70.148 70.148 0 0 0-21.54 3.377 69.682 69.682 0 0 0-18.8 9.425A69.972 69.972 0 0 0 28.256 41.09 69.26 69.26 0 0 0 18.14 59.413a69.02 69.02 0 0 0-4.164 21.07 69.445 69.445 0 0 0 2.571 21.679 68.989 68.989 0 0 0 8.777 19.11 69.916 69.916 0 0 0 13.913 15.45 69.813 69.813 0 0 0 17.979 10.727 69.718 69.718 0 0 0 20.975 4.937 70.517 70.517 0 0 0 21.943-1.762 69.561 69.561 0 0 0 19.561-8.06 70.076 70.076 0 0 0 16.013-13.3 69.527 69.527 0 0 0 11.351-17.383 68.838 68.838 0 0 0 5.734-20.571 69.686 69.686 0 0 0-.927-21.951 68.858 68.858 0 0 0-7.376-19.835 69.75 69.75 0 0 0-12.769-16.433 69.936 69.936 0 0 0-17.094-11.965 69.558 69.558 0 0 0-20.349-6.434 70.58 70.58 0 0 0-10.687-.811z"/>
        <path d="M36.726 141.345c-7.879-6.389-14.398-14.288-19.088-23.274a73.743 73.743 0 0 1-8.218-29.71c-.548-9.31.652-18.707 3.583-27.567A73.881 73.881 0 0 1 25.39 37.961a74.718 74.718 0 0 1 19.516-17.185 74.265 74.265 0 0 1 24.539-9.472 75.318 75.318 0 0 1 29.11.152 74.336 74.336 0 0 1 27.067 11.451 74.59 74.59 0 0 1 20.355 20.804c.829 1.273 1.572 2.599 2.395 3.876.456.71 1.167 2.122 2.015 2.463 1.092.44-.018-2.899-.197-3.388-1.626-4.434-3.961-8.592-6.628-12.48a79.025 79.025 0 0 0-20.122-20.21A78.59 78.59 0 0 0 97.232 2.21 79.618 79.618 0 0 0 68.1.695 78.564 78.564 0 0 0 42.787 8.58a78.977 78.977 0 0 0-20.94 15.54A78.533 78.533 0 0 0 7.172 45.556 77.742 77.742 0 0 0 .305 71.31c-.876 9.914.135 19.984 3.016 29.518a78.061 78.061 0 0 0 13.608 25.931 78.883 78.883 0 0 0 10.046 10.487c3.613 3.136 7.563 6.24 11.92 8.286.449.21 3.38 1.438 2.498.093-.487-.743-1.244-1.358-1.901-1.944a83.138 83.138 0 0 0-2.766-2.336"/>
        <path d="M122.235 41.647c-1.382-1.139-2.73-2.314-4.16-3.392-.795-.599-1.625-1.247-2.537-1.663-1.336-.612-.644.679-.222 1.292 1.484 2.153 3.481 3.91 5.149 5.915a54.243 54.243 0 0 1 5.76 8.423c6.362 11.505 8.274 25.203 5.366 38.008-2.493 10.977-8.498 21.029-16.952 28.493-8.535 7.536-19.388 12.262-30.747 13.353-13.742 1.32-27.686-2.67-38.59-11.11-.22-.17-2.908-2.788-3.324-2.023-.2.367.416 1.153.596 1.416.708 1.04 1.593 1.966 2.482 2.852 4.906 4.886 10.764 8.64 17.181 11.26 12.047 4.924 25.72 5.508 38.152 1.656 10.75-3.332 20.372-9.924 27.378-18.696 7.172-8.98 11.444-20.076 12.128-31.53.793-13.287-3.231-26.6-11.307-37.215a56.683 56.683 0 0 0-6.353-7.039"/>
    </g>
</svg>
