<?xml version="1.0" encoding="UTF-8"?>
<svg width="31px" height="41px" viewBox="0 0 31 41" version="1.1" xmlns="http://www.w3.org/2000/svg" xmlns:xlink="http://www.w3.org/1999/xlink">
    <!-- Generator: Sketch 59.1 (86144) - https://sketch.com -->
    <title>Group 12</title>
    <desc>Created with Sketch.</desc>
    <g id="Symbols" stroke="none" stroke-width="1" fill="none" fill-rule="evenodd">
        <g id="Lists/Scripts/card-view" transform="translate(-12.000000, -11.000000)">
            <g id="Group-12" transform="translate(12.000000, 11.000000)">
                <g id="Group-13">
                    <polygon id="Path-14" fill="#FFCE00" points="0.158176741 0 20.273008 0 30.4028399 9.34808511 30.4028399 40.7883237 0 40.7883237"></polygon>
                    <polygon id="Path-20" fill-opacity="0.262935915" fill="#FFFFFF" points="19.6679915 1.37702138 28.1413394 9.92405063 19.6679915 9.92405063"></polygon>
                </g>
                <circle id="Oval-8" fill="#FFFFFF" cx="2.35043304" cy="5.48434377" r="1"></circle>
                <circle id="Oval-8" fill="#FFFFFF" cx="2.35043304" cy="8.09593604" r="1"></circle>
                <circle id="Oval-8" fill="#FFFFFF" cx="2.35043304" cy="10.7075283" r="1"></circle>
                <circle id="Oval-8" fill="#FFFFFF" cx="2.35043304" cy="13.3191206" r="1"></circle>
                <circle id="Oval-8" fill="#FFFFFF" cx="2.35043304" cy="15.9307129" r="1"></circle>
                <circle id="Oval-8" fill="#FFFFFF" cx="2.35043304" cy="18.5423051" r="1"></circle>
                <circle id="Oval-8" fill="#FFFFFF" cx="2.35043304" cy="21.1538974" r="1"></circle>
                <circle id="Oval-8" fill="#FFFFFF" cx="2.35043304" cy="23.7654897" r="1"></circle>
                <circle id="Oval-8" fill="#FFFFFF" cx="2.35043304" cy="26.3770819" r="1"></circle>
                <circle id="Oval-8" fill="#FFFFFF" cx="2.35043304" cy="28.9886742" r="1"></circle>
                <circle id="Oval-8" fill="#FFFFFF" cx="2.35043304" cy="31.6002665" r="1"></circle>
                <circle id="Oval-8" fill="#FFFFFF" cx="2.35043304" cy="34.2118588" r="1"></circle>
                <circle id="Oval-8" fill="#FFFFFF" cx="2.35043304" cy="36.823451" r="1"></circle>
                <circle id="Oval-8" fill="#FFFFFF" cx="27.9440373" cy="13.3191206" r="1"></circle>
                <circle id="Oval-8" fill="#FFFFFF" cx="27.9440373" cy="15.9307129" r="1"></circle>
                <circle id="Oval-8" fill="#FFFFFF" cx="27.9440373" cy="18.5423051" r="1"></circle>
                <circle id="Oval-8" fill="#FFFFFF" cx="27.9440373" cy="21.1538974" r="1"></circle>
                <circle id="Oval-8" fill="#FFFFFF" cx="27.9440373" cy="23.7654897" r="1"></circle>
                <circle id="Oval-8" fill="#FFFFFF" cx="27.9440373" cy="26.3770819" r="1"></circle>
                <circle id="Oval-8" fill="#FFFFFF" cx="27.9440373" cy="28.9886742" r="1"></circle>
                <circle id="Oval-8" fill="#FFFFFF" cx="27.9440373" cy="31.6002665" r="1"></circle>
                <circle id="Oval-8" fill="#FFFFFF" cx="27.9440373" cy="34.2118588" r="1"></circle>
                <circle id="Oval-8" fill="#FFFFFF" cx="27.9440373" cy="36.823451" r="1"></circle>
            </g>
        </g>
    </g>
</svg>