<?xml version="1.0" encoding="UTF-8"?>
<svg width="6px" height="18px" viewBox="0 0 6 18" version="1.1" xmlns="http://www.w3.org/2000/svg" xmlns:xlink="http://www.w3.org/1999/xlink">
    <!-- Generator: Sketch 53.2 (72643) - https://sketchapp.com -->
    <title>Group 4</title>
    <desc>Created with Sketch.</desc>
    <g id="Parameters" stroke="none" stroke-width="1" fill="none" fill-rule="evenodd" opacity="0.503416">
        <g id="8-PM-MoreOptionforParameter-Copy-4" transform="translate(-499.000000, -241.000000)">
            <g id="Group-4" transform="translate(499.000000, 241.000000)">
                <rect id="Rectangle-2" fill="#FFFFFF" x="0" y="0" width="2" height="2"></rect>
                <rect id="Rectangle-2" fill="#FFFFFF" x="4" y="0" width="2" height="2"></rect>
                <rect id="Rectangle-2" fill="#FFFFFF" x="0" y="4" width="2" height="2"></rect>
                <rect id="Rectangle-2" fill="#FFFFFF" x="4" y="4" width="2" height="2"></rect>
                <rect id="Rectangle-2" fill="#FFFFFF" x="0" y="8" width="2" height="2"></rect>
                <rect id="Rectangle-2" fill="#FFFFFF" x="4" y="8" width="2" height="2"></rect>
                <rect id="Rectangle-2" fill="#FFFFFF" x="0" y="12" width="2" height="2"></rect>
                <rect id="Rectangle-2" fill="#FFFFFF" x="4" y="12" width="2" height="2"></rect>
                <rect id="Rectangle-2" fill="#FFFFFF" x="0" y="16" width="2" height="2"></rect>
                <rect id="Rectangle-2" fill="#FFFFFF" x="4" y="16" width="2" height="2"></rect>
                <rect id="Rectangle-2-Copy-10" fill="#268ecd" x="0" y="0" width="2" height="2"></rect>
                <rect id="Rectangle-2-Copy-9" fill="#268ecd" x="4" y="0" width="2" height="2"></rect>
                <rect id="Rectangle-2-Copy-8" fill="#268ecd" x="0" y="4" width="2" height="2"></rect>
                <rect id="Rectangle-2-Copy-7" fill="#268ecd" x="4" y="4" width="2" height="2"></rect>
                <rect id="Rectangle-2-Copy-6" fill="#268ecd" x="0" y="8" width="2" height="2"></rect>
                <rect id="Rectangle-2-Copy-5" fill="#268ecd" x="4" y="8" width="2" height="2"></rect>
                <rect id="Rectangle-2-Copy-4" fill="#268ecd" x="0" y="12" width="2" height="2"></rect>
                <rect id="Rectangle-2-Copy-3" fill="#268ecd" x="4" y="12" width="2" height="2"></rect>
                <rect id="Rectangle-2-Copy-2" fill="#268ecd" x="0" y="16" width="2" height="2"></rect>
                <rect id="Rectangle-2-Copy" fill="#268ecd" x="4" y="16" width="2" height="2"></rect>
            </g>
        </g>
    </g>
</svg>