<?xml version="1.0" encoding="UTF-8"?>
<svg width="60px" height="79px" viewBox="0 0 60 79" version="1.1" xmlns="http://www.w3.org/2000/svg" xmlns:xlink="http://www.w3.org/1999/xlink">
    <g stroke="none" stroke-width="1" fill="none" fill-rule="evenodd">
        <g transform="translate(0.766566, 0.706227)">
            <path d="M1.29119433,-1.28195535e-14 L56.790149,-4.04787315e-13 C57.8947185,-4.12838659e-13 58.790149,0.8954305 58.790149,2 C58.790149,2.00517356 58.7901289,2.0103471 58.7900888,2.0155205 L58.2151075,76.106431 C58.2065827,77.2049111 57.3136809,78.0909105 56.2151677,78.0909105 L2,78.0909105 C0.8954305,78.0909105 -2.66318255e-13,77.19548 -2.66453526e-13,76.0909105 C-2.66453843e-13,76.0883252 5.01288995e-06,76.0857399 1.50386421e-05,76.0831546 L0.291201854,0.996122038 C0.293337722,0.445355265 0.740423419,-8.64190478e-15 1.29119433,-1.26565425e-14 Z"
                  fill="#263A4C"
            />
            <g transform="translate(8.233434, 8.293773)" stroke="#FFFFFF" stroke-linecap="round" stroke-width="2">
                <polyline stroke-linejoin="round" points="0 0 7.33333333 4.46825742 0 8.96296296"/>
                <path d="M7.51851852,9.55555556 L15.6666667,9.55555556"/>
            </g>
        </g>
    </g>
</svg>
