<?xml version="1.0" encoding="UTF-8"?>
<svg width="100pt" height="100pt" version="1.1" viewBox="0 0 100 100" xmlns="http://www.w3.org/2000/svg">
 <g>
  <path d="m84.199 12.301h-68.398c-7.1797 0-13 5.8203-13 13v49.398c0 7.1797 5.8203 13 13 13h68.398c7.1797 0 13-5.8203 13-13v-49.398c0-7.1797-5.8203-13-13-13zm-68.5 6h68.5c3.8672 0 7 3.1328 7 7v7.8984h-82.398v-7.8984c0-3.8672 3.1328-7 7-7zm68.5 63.398h-68.398c-3.8672 0-7-3.1328-7-7v-35.598h82.398v35.598c0 1.8555-0.73828 3.6367-2.0508 4.9492s-3.0938 2.0508-4.9492 2.0508z"/>
  <path d="m23 25.699c0 6.4023-9.6016 6.4023-9.6016 0 0-6.3984 9.6016-6.3984 9.6016 0"/>
  <path d="m35.398 25.699c0 6.4023-9.5977 6.4023-9.5977 0 0-6.3984 9.5977-6.3984 9.5977 0"/>
  <path d="m48.398 25.699c0 6.4023-9.5977 6.4023-9.5977 0 0-6.3984 9.5977-6.3984 9.5977 0"/>
  <path d="m40.602 47.602c-1.1133-1.2031-2.9805-1.293-4.2031-0.20312l-11.699 10.902c-0.61328 0.56641-0.96094 1.3633-0.96094 2.1992s0.34766 1.6328 0.96094 2.1992l11.699 10.801c1.2148 1.1328 3.1211 1.0664 4.25-0.14844 0.54687-0.58594 0.83594-1.3594 0.80859-2.1562-0.03125-0.79687-0.375-1.5508-0.95703-2.0938l-9.3008-8.6016 9.3008-8.6016c0.59375-0.55078 0.9375-1.3164 0.95703-2.1289 0.019531-0.80859-0.28906-1.5898-0.85547-2.168z"/>
  <path d="m63.602 47.5c-1.2148-1.1328-3.1211-1.0664-4.25 0.14844-1.1328 1.2148-1.0664 3.1211 0.14844 4.25l9.3008 8.6016-9.3008 8.6016c-1.2148 1.1289-1.2812 3.0352-0.14844 4.25 1.1289 1.2148 3.0352 1.2812 4.25 0.14844l11.699-10.801c0.61328-0.56641 0.96094-1.3633 0.96094-2.1992s-0.34766-1.6328-0.96094-2.1992z"/>
  <path d="m54.602 40.398c-1.6016-0.375-3.207 0.60547-3.6016 2.2031l-8.8984 34.5c-0.21484 0.78125-0.097656 1.6172 0.31641 2.3125 0.41406 0.69922 1.0938 1.1992 1.8828 1.3867h0.69922c1.3906 0.050781 2.6289-0.85938 3-2.1992l8.8008-34.602c0.375-1.6016-0.60547-3.207-2.1992-3.6016z"/>
 </g>
</svg>
