<svg xmlns="http://www.w3.org/2000/svg" width="15" height="15" viewBox="0 0 20 20">
  <g fill="#fff">
    <path d="M4.344,2.172A2.172,2.172,0,1,1,2.172,0,2.172,2.172,0,0,1,4.344,2.172" transform="translate(0.213 15.533)"/>
    <path d="M4.344,2.172A2.172,2.172,0,1,1,2.172,0,2.172,2.172,0,0,1,4.344,2.172" transform="translate(7.904 15.533)"/>
    <path d="M4.344,2.172A2.172,2.172,0,1,1,2.172,0,2.172,2.172,0,0,1,4.344,2.172" transform="translate(15.635 15.533)"/>
    <path d="M4.344,2.172A2.172,2.172,0,1,1,2.172,0,2.172,2.172,0,0,1,4.344,2.172" transform="translate(0.213 7.828)"/>
    <path d="M4.344,2.172A2.172,2.172,0,1,1,2.172,0,2.172,2.172,0,0,1,4.344,2.172" transform="translate(7.904 7.828)"/>
    <path d="M4.344,2.172A2.172,2.172,0,1,1,2.172,0,2.172,2.172,0,0,1,4.344,2.172" transform="translate(15.635 7.828)"/>
    <path d="M4.344,2.172A2.172,2.172,0,1,1,2.172,0,2.172,2.172,0,0,1,4.344,2.172" transform="translate(0.213 0.123)"/>
    <path d="M4.344,2.172A2.172,2.172,0,1,1,2.172,0,2.172,2.172,0,0,1,4.344,2.172" transform="translate(7.904 0.123)"/>
    <path d="M4.344,2.172A2.172,2.172,0,1,1,2.172,0,2.172,2.172,0,0,1,4.344,2.172" transform="translate(15.635 0.123)"/>
  </g>
</svg>
