<?xml version="1.0" encoding="UTF-8"?>
<svg width="24px" height="30px" viewBox="0 0 24 30" version="1.1" xmlns="http://www.w3.org/2000/svg" xmlns:xlink="http://www.w3.org/1999/xlink">
    <!-- Generator: Sketch 53.2 (72643) - https://sketchapp.com -->
    <title>Group 2</title>
    <desc>Created with Sketch.</desc>
    <g id="Symbols" stroke="none" stroke-width="1" fill="none" fill-rule="evenodd">
        <g id="parameters/tool-component" transform="translate(-18.000000, -195.000000)">
            <g id="Group-2" transform="translate(18.000000, 195.000000)">
                <g id="Group-2-Copy-15">
                    <rect id="Rectangle" stroke="#333333" stroke-width="1.5" x="0.75" y="0.75" width="22.5" height="8.5" rx="2"></rect>
                    <g id="np_dropdown_615120_268ecd" transform="translate(16.000000, 3.333333)" fill="#333333" fill-rule="nonzero">
                        <path d="M2.1765,3.06939394 C2.40555,3.35230303 2.77842273,3.34993939 3.00533182,3.06939394 L4.96555909,0.649242424 C5.19460909,0.366924242 5.10351818,0.137878788 4.76207727,0.137878788 L0.419713636,0.137878788 C0.0782727273,0.137878788 -0.0112227273,0.369287879 0.216231818,0.649242424 L2.1765,3.06939394 Z" id="Path"></path>
                    </g>
                </g>
                <g id="Group-2-Copy-12" transform="translate(0.000000, 12.000000)" stroke="#333333" stroke-width="1.5">
                    <rect id="Rectangle" x="0.75" y="0.75" width="6.5" height="6.5" rx="2"></rect>
                </g>
                <rect id="Rectangle-Copy-38" fill="#333333" x="10" y="13" width="12" height="2" rx="1"></rect>
                <rect id="Rectangle-Copy-36" fill="#333333" x="10" y="17" width="8" height="2" rx="1"></rect>
                <rect id="Rectangle-Copy-35" fill="#333333" x="10" y="23" width="12" height="2" rx="1"></rect>
                <rect id="Rectangle-Copy-34" fill="#333333" x="10" y="27" width="8" height="2" rx="1"></rect>
                <g id="Group-2-Copy-11" transform="translate(0.000000, 22.000000)" stroke="#333333" stroke-width="1.5">
                    <rect id="Rectangle" x="0.75" y="0.75" width="6.5" height="6.5" rx="2"></rect>
                </g>
            </g>
        </g>
    </g>
</svg>
