<?xml version="1.0" encoding="UTF-8"?>
<svg width="17px" height="11px" viewBox="0 0 17 11" version="1.1" xmlns="http://www.w3.org/2000/svg" xmlns:xlink="http://www.w3.org/1999/xlink">
    <!-- Generator: Sketch 54.1 (76490) - https://sketchapp.com -->
    <title>np_arrow_2094739_FFFFFF</title>
    <desc>Created with Sketch.</desc>
    <g id="Parameter---Mockups" stroke="none" stroke-width="1" fill="none" fill-rule="evenodd">
        <g id="16-PM" transform="translate(-1519.000000, -315.000000)" fill="#00AB4E" fill-rule="nonzero">
            <g id="np_arrow_2094739_FFFFFF" transform="translate(1519.000000, 315.000000)">
                <path d="M11.5598333,0.175166667 C11.45762,0.080765 11.3254667,0.0260783333 11.1867833,0.0202183333 C11.0520183,0.014359 10.9218167,0.06514 10.82675,0.160191667 C10.7316983,0.255243333 10.6809167,0.385458333 10.6867767,0.520225 L10.6867767,3.50005833 L-5.66666667e-05,3.50005833 L-5.66666667e-05,7.50005833 L10.68811,7.50005833 L10.68811,10.4818917 C10.68811,10.757925 10.9120767,10.9818917 11.18811,10.9818917 C11.322875,10.9838448 11.4517767,10.9298083 11.5448767,10.833455 L16.52671,5.85812167 C16.71356,5.656305 16.71356,5.343805 16.52671,5.14197167 L11.5598333,0.175166667 Z" id="Path"></path>
            </g>
        </g>
    </g>
</svg>
