<?xml version="1.0" encoding="UTF-8"?>
<svg width="9px" height="13px" viewBox="0 0 8 13" version="1.1" xmlns="http://www.w3.org/2000/svg" xmlns:xlink="http://www.w3.org/1999/xlink">
    <!-- Generator: Sketch 54.1 (76490) - https://sketchapp.com -->
    <title>Path Copy</title>
    <desc>Created with Sketch.</desc>
    <g id="Parameter---Mockups" stroke="none" stroke-width="1" fill="none" fill-rule="evenodd">
        <g id="18-PM" transform="translate(-1424.000000, -486.000000)" fill="#00AB4E" fill-rule="nonzero">
            <path d="M1430.40719,488.113022 C1430.33286,488.044366 1430.23674,488.004594 1430.13588,488.000332 C1430.03787,487.996071 1429.94318,488.033002 1429.87404,488.102131 C1429.80491,488.171259 1429.76798,488.265961 1429.77224,488.363973 L1429.77224,490.531125 L1422,490.531125 L1422,493.440215 L1429.77321,493.440215 L1429.77321,495.608821 C1429.77321,495.809573 1429.9361,495.972458 1430.13685,495.972458 C1430.23486,495.973878 1430.32861,495.934579 1430.39631,495.864504 L1434.01947,492.24608 C1434.15536,492.099304 1434.15536,491.872031 1434.01947,491.725243 L1430.40719,488.113022 Z" id="Path-Copy" transform="translate(1428.060692, 491.986247) scale(1, -1) rotate(90.000000) translate(-1428.060692, -491.986247) "></path>
        </g>
    </g>
</svg>
