<?xml version="1.0" encoding="UTF-8"?>
<svg width="9px" height="13px" viewBox="0 0 8 13" version="1.1" xmlns="http://www.w3.org/2000/svg" xmlns:xlink="http://www.w3.org/1999/xlink">
    <!-- Generator: Sketch 54.1 (76490) - https://sketchapp.com -->
    <title>Path</title>
    <desc>Created with Sketch.</desc>
    <g id="Parameter---Mockups" stroke="none" stroke-width="1" fill="none" fill-rule="evenodd">
        <g id="18-PM" transform="translate(-1449.000000, -485.000000)" fill="#268ecd" fill-rule="nonzero">
            <path d="M1455.40719,488.113022 C1455.33286,488.044366 1455.23674,488.004594 1455.13588,488.000332 C1455.03787,487.996071 1454.94318,488.033002 1454.87404,488.102131 C1454.80491,488.171259 1454.76798,488.265961 1454.77224,488.363973 L1454.77224,490.531125 L1447,490.531125 L1447,493.440215 L1454.77321,493.440215 L1454.77321,495.608821 C1454.77321,495.809573 1454.9361,495.972458 1455.13685,495.972458 C1455.23486,495.973878 1455.32861,495.934579 1455.39631,495.864504 L1459.01947,492.24608 C1459.15536,492.099304 1459.15536,491.872031 1459.01947,491.725243 L1455.40719,488.113022 Z" id="Path" transform="translate(1453.060692, 491.986247) rotate(90.000000) translate(-1453.060692, -491.986247) "></path>
        </g>
    </g>
</svg>
