<?xml version="1.0" encoding="UTF-8"?>
<svg width="10px" height="10px" viewBox="0 0 10 10" version="1.1" xmlns="http://www.w3.org/2000/svg" xmlns:xlink="http://www.w3.org/1999/xlink">
    <!-- Generator: Sketch 54.1 (76490) - https://sketchapp.com -->
    <title>np_help_2302539_00AB4E</title>
    <desc>Created with Sketch.</desc>
    <g id="Parameter---Mockups" stroke="none" stroke-width="1" fill="none" fill-rule="evenodd">
        <g id="3-PM" transform="translate(-825.000000, -235.000000)" fill="#00AB4E" fill-rule="nonzero">
            <g id="np_help_2302539_00AB4E" transform="translate(825.000000, 235.000000)">
                <path d="M5,-3.55271368e-15 C3.6738,-3.19744231e-15 2.402,0.52695 1.4645,1.4645 C0.527,2.40205 3.55271368e-15,3.6739 3.55271368e-15,5 C3.55271368e-15,6.3261 0.52695,7.598 1.4645,8.5355 C2.40205,9.473 3.6739,10 5,10 C6.3261,10 7.598,9.47305 8.5355,8.5355 C9.473,7.59795 10,6.3261 10,5 C10,3.6739 9.47305,2.402 8.5355,1.4645 C7.59795,0.527 6.3261,-3.55271368e-15 5,-3.55271368e-15 Z M5,7.6398 L4.951172,7.649956 L4.851172,7.649956 C4.821094,7.6440966 4.791016,7.639018 4.76211,7.630815 C4.48867,7.559331 4.31289,7.293705 4.3543,7.014015 C4.395706,6.734325 4.64063,6.530815 4.92305,6.541355 C5.20547,6.551902 5.43477,6.773385 5.45469,7.055415 C5.475002,7.337055 5.28008,7.589005 5.00196,7.639795 L5,7.6398 Z M6.6,4.0089 C6.542969,4.19288 6.44375,4.36124 6.31016,4.49992 C6.15704,4.65304 5.98985,4.79054 5.81016,4.91086 C5.71016,4.980001 5.6211,5.05188 5.52735,5.12375 L5.5269593,5.12375 C5.4418033,5.194062 5.3781293,5.28664 5.3421893,5.39094 C5.3222673,5.444846 5.2992203,5.49875 5.2781273,5.55305 C5.2253933,5.69993 5.0863273,5.79875 4.9300773,5.79993 C4.8437493,5.809305 4.7562473,5.7956331 4.6769573,5.760086 C4.5550773,5.70032 4.4703173,5.585086 4.4500073,5.451106 C4.4179763,5.265166 4.4613353,5.074546 4.5699273,4.921026 C4.6566463,4.794466 4.7625073,4.682356 4.8839873,4.588996 C5.0148473,4.481966 5.1500073,4.380016 5.2839873,4.272976 C5.3953173,4.18782 5.4882873,4.081566 5.5578173,3.960086 C5.6687573,3.749146 5.6410203,3.492506 5.4878953,3.310086 C5.4085983,3.223367 5.3035153,3.165166 5.1878953,3.144066 C5.0343753,3.108128 4.8742253,3.110863 4.7218753,3.1518785 C4.5640653,3.1952375 4.4324253,3.3046085 4.3609353,3.4518785 C4.3140603,3.5397695 4.2730443,3.6299985 4.2289053,3.7190685 C4.1968743,3.7862565 4.1531243,3.8475885 4.0999953,3.8999285 C4.0070263,3.9815695 3.8843753,4.0210185 3.7609353,4.0089085 C3.6859353,4.0069553 3.6124953,3.9870335 3.5468753,3.9510965 C3.4238253,3.8870345 3.3464853,3.7596865 3.3468753,3.6210165 C3.3417972,3.3999265 3.4125003,3.1842965 3.5468753,3.0089065 C3.7027353,2.7987465 3.9089853,2.6315665 4.1468753,2.5229665 C4.3265653,2.4378105 4.5187553,2.3823465 4.7160153,2.3589065 L4.8281253,2.3479685 L5.0281253,2.3479685 L5.1359353,2.3581245 L5.1359353,2.3577339 C5.4035153,2.3749219 5.6652353,2.4424999 5.9070253,2.5577339 C6.1230453,2.6573429 6.3074153,2.8147639 6.4390553,3.0128139 C6.5394453,3.1690639 6.6015553,3.3464039 6.6199153,3.5307839 C6.6468683,3.6897639 6.6402273,3.8526639 6.5999933,4.0089039 L6.6,4.0089 Z" id="Shape"></path>
            </g>
        </g>
    </g>
</svg>
