<?xml version="1.0" standalone="no"?>
<!DOCTYPE svg PUBLIC "-//W3C//DTD SVG 1.1//EN" "http://www.w3.org/Graphics/SVG/1.1/DTD/svg11.dtd" >
<svg xmlns="http://www.w3.org/2000/svg">
<metadata>Generated by IcoMoon</metadata>
<defs>
<font id="platform-icon-library" horiz-adv-x="1024">
<font-face units-per-em="1024" ascent="960" descent="-64" />
<missing-glyph horiz-adv-x="1024" />
<glyph unicode="&#x20;" horiz-adv-x="512" d="" />
<glyph unicode="&#xe900;" glyph-name="action-icon" d="M433.024 463.23c26.6 7.125 54.8-0.475 74.2-19.875s27-47.675 19.9-74.175l-51.628-192.644c44.531-16.903 92.597-26.582 142.978-26.582 223.1 0 404.6 181.525 404.6 404.65 0 223.1-181.5 404.625-404.6 404.625s-404.65-181.525-404.65-404.625c0-50.387 9.675-98.45 26.582-142.984l192.618 51.609zM119.474-56.045c4.8-4.8 11.3-7.5 18.1-7.5 0 0 0 0 0.050 0 6.8 0 13.3 2.725 18.1 7.55l112.8 113.475 64.9-64.9c6.45-6.475 15.9-9.025 24.75-6.625 8.8 2.375 15.7 9.275 18.1 18.1l101.4 378.375c2.35 8.825-0.2 18.25-6.65 24.725-6.45 6.5-15.8 9.050-24.75 6.625l-378.35-101.375c-8.85-2.375-15.75-9.25-18.15-18.1-2.35-8.825 0.2-18.25 6.65-24.725l64.55-64.575-113.15-113.175c-10-10-10-26.2 0-36.2l111.649-111.675z" />
<glyph unicode="&#xe901;" glyph-name="app-settings" d="M32.524 370.215l122.095-20.691c3.238-8.762 6.857-17.428 10.81-25.976l-71.667-101.024c-11.095-15.619-9.334-36.762 4.191-50.215l89.81-89.81c13.429-13.476 34.524-15.357 50.238-4.262l101 71.738c8.524-3.952 17.191-7.548 26-10.81l20.714-121.905c3.048-18.976 19.238-32.738 38.476-32.738h127.095c19.143 0 35.333 13.714 38.524 32.548l20.667 122.095c8.809 3.238 17.476 6.857 26.048 10.81l100.952-71.714c15.619-11.166 36.714-9.357 50.238 4.191l89.905 89.905c13.476 13.524 15.19 34.619 4.143 50.167l-71.714 101.024c3.952 8.524 7.524 17.191 10.81 25.976l122.048 20.691c18.857 3.119 32.571 19.31 32.571 38.5v127.095c0 19.167-13.667 35.333-32.524 38.5l-122.095 20.691c-3.286 8.786-6.857 17.476-10.81 26l71.714 101c11.048 15.572 9.334 36.667-4.191 50.238l-89.857 89.857c-13.524 13.476-34.667 15.333-50.191 4.191l-101-71.739c-8.571 3.976-17.286 7.595-26.048 10.833l-20.667 122.072c-3.19 18.857-19.381 32.548-38.524 32.548h-127.095c-19.238 0-35.428-13.762-38.476-32.524l-20.714-122.095c-8.762-3.262-17.428-6.857-26-10.833l-101 71.762c-15.619 11.071-36.714 9.262-50.191-4.214l-89.81-89.81c-13.571-13.5-15.381-34.643-4.286-50.286l71.714-101.024c-3.952-8.524-7.571-17.214-10.81-25.976l-121.953-20.691c-18.952-3.095-32.667-19.31-32.667-38.5v-127.095c0-19.19 13.715-35.404 32.524-38.499zM337.095 472.262c0 40.262 15.667 78.095 44.143 106.548 28.048 28.048 66.905 44.143 106.524 44.143s78.476-16.095 106.524-44.143c28.476-28.476 44.143-66.333 44.143-106.548 0-39.619-16.095-78.453-44.143-106.524-56.429-56.524-156.524-56.524-213.048 0-28.476 28.453-44.143 66.285-44.143 106.524z" />
<glyph unicode="&#xe902;" glyph-name="enframe-workflows" horiz-adv-x="1035" d="M921.6 223.869v77.378c0 101.244-78.488 192.262-178.62 192.262h-439.205c-60.311 0-110.355 39.822-110.355 101.244v77.378c56.889 15.911 110.355 73.956 110.355 141.062 0 80.8-66 146.796-145.647 146.796s-150.175-66-150.175-146.751c0-68.267 37.556-125.156 105.822-141.062v-77.378c0-101.288 89.866-192.307 189.998-192.307h26.178v-178.62c-56.889-15.911-104.666-73.956-104.666-141.062 0-80.8 68.267-146.753 149.072-146.753 80.8 0 145.647 66.002 145.647 146.753 0 68.267-42.089 125.156-110.355 141.062l-0.044 178.62h333.38c60.311 0 98.978-39.822 98.978-101.244v-77.378c-56.889-15.911-104.666-73.956-104.666-141.062 0-80.8 68.267-146.751 149.072-146.751 80.8 0 145.647 66 145.647 146.751-0.044 67.111-42.133 125.11-110.4 141.062h-0.014zM85.333 813.249c0 39.822 32.977 72.8 72.8 72.8s72.8-32.977 72.8-72.8c0-39.822-32.977-72.8-72.8-72.8-39.822-0.044-72.8 32.977-72.8 72.8zM450.583 82.762c0-39.822-32.977-72.8-72.8-72.8s-72.8 32.977-72.8 72.8c0 39.822 32.977 72.8 72.8 72.8 39.778 0.044 72.8-32.977 72.8-72.8zM888.627 9.962c-39.822 0-72.8 32.977-72.8 72.8s32.977 72.8 72.8 72.8c39.822 0 72.8-32.977 72.8-72.8 0-40.934-31.867-72.8-72.8-72.8z" />
<glyph unicode="&#xe903;" glyph-name="app-deployment" horiz-adv-x="1152" d="M973.056 630.056c-5.778 0-11.389-0.278-16.833-0.778 0 0.833 0 1.722 0 2.611 0 81.722-66.445 148.167-148.111 148.167-19.889 0-37-4-52.056-9.722-43.444 113.167-153.333 189.666-277.944 189.666-164.389 0-298.111-133.722-298.111-298.111 0-0.611 0-1.278 0-1.889-0.611 0-1.222 0-1.834 0-99.889 0-178.167-78.278-178.167-178.167s78.278-178.167 178.167-178.167h76.826c41.851 131.798 165.316 227.611 310.785 227.611 145.514 0 268.986-95.812 310.84-227.611h96.437c90 0 163.166 73.167 163.166 163.166s-73.166 163.223-163.166 163.223zM565.778 474.389c-148.445 0-269.167-120.722-269.167-269.167s120.722-269.167 269.167-269.167c148.445 0 269.222 120.722 269.222 269.167s-120.777 269.167-269.222 269.167zM697.112 255.056c11.111-11.111 11.111-29.111 0-40.222s-29.111-11.111-40.222 0l-62.667 62.667v-213.222c0-15.722-12.722-28.444-28.444-28.444s-28.444 12.722-28.444 28.444v213.222l-62.667-62.667c-11.111-11.111-29.111-11.111-40.222 0s-11.111 29.111 0 40.222l111.222 111.222c1.354 1.344 3.285 1.542 4.837 2.566 1.59 1.083 2.562 2.847 4.386 3.6 0.944 0.378 1.955 0 2.92 0.278 2.694 0.809 5.239 0.765 8.055 0.765 2.753-0.012 5.239 0.020 7.872-0.762 0.965-0.281 1.986 0.104 2.93-0.281 1.823-0.753 2.792-2.514 4.382-3.597 1.552-1.025 3.493-1.222 4.84-2.57l111.222-111.222z" />
<glyph unicode="&#xe904;" glyph-name="app-info" d="M584.727 593.455h-145.455v145.455h145.455v-145.455zM584.727 157.091h-145.455v363.636h145.455v-363.636zM512 957.091c-135.005 0-264.495-53.637-360.006-149.085-95.454-95.5-149.085-225.001-149.085-360.006s53.637-264.495 149.085-360.006c95.5-95.454 225.001-149.085 360.006-149.085s264.495 53.637 360.006 149.085c95.454 95.5 149.085 225.001 149.085 360.006s-53.637 264.495-149.085 360.006c-95.5 95.454-225.001 149.085-360.006 149.085z" />
<glyph unicode="&#xe905;" glyph-name="app-owner" d="M512 913.455c-256.725 0-465.455-208.729-465.455-465.455s208.729-465.455 465.455-465.455c256.725 0 465.455 208.729 465.455 465.455s-208.729 465.455-465.455 465.455zM512 662.579c80.344 0 145.986-65.646 145.986-145.986s-65.646-145.986-145.986-145.986c-80.34 0-145.986 65.646-145.986 145.986s65.646 145.986 145.986 145.986zM264.074 159.918c10.795 88.191 86.239 156.785 177.382 156.785h141.087c91.139 0 166.584-68.593 177.382-156.785-66.641-57.799-152.885-92.095-247.926-92.095-95.043-0.038-181.282 34.258-247.926 92.095z" />
<glyph unicode="&#xe906;" glyph-name="ascending-order" d="M512 960c282.77 0 512-229.23 512-512s-229.23-512-512-512c-282.77 0-512 229.23-512 512s229.23 512 512 512zM512 550.4l-204.8-204.8h409.6l-204.8 204.8z" />
<glyph unicode="&#xe907;" glyph-name="close-cancel" horiz-adv-x="975" d="M642.939 439.717l305.582 305.806c35.272 35.125 35.272 91.618 0.146 126.89l-28.393 28.466c-16.684 17.124-39.517 26.418-63.518 26.418-24.148 0-46.688-9.44-63.518-26.343l-305.731-305.956-305.806 305.582c-35.052 35.125-91.472 35.272-126.744 0.146l-28.466-28.173c-17.124-16.831-26.491-39.663-26.491-63.591 0-24.076 9.44-46.688 26.343-63.591l305.956-305.731-305.657-305.806c-35.272-35.125-35.272-91.618-0.146-126.963l28.393-28.393c16.831-17.124 39.59-26.418 63.591-26.418 23.855 0 46.688 9.513 63.518 26.343l305.657 305.881 305.731-305.525c17.343-17.489 40.393-26.343 63.518-26.343 22.906 0 45.809 8.708 63.372 26.197l28.393 28.32c17.197 16.684 26.493 39.517 26.493 63.518 0.145 24.001-9.295 46.688-26.199 63.591l-306.024 305.677z" />
<glyph unicode="&#xe908;" glyph-name="config-file" horiz-adv-x="853" d="M96.602 960c-51.4 0-93.1-41.9-93.1-93.1v-837.798c0-51.2 41.7-93.1 93.1-93.1h651.648c51.45 0 93.1 41.9 93.1 93.1v651.648l-279.245 279.25h-465.503zM374.4 680.755c2.2 1.15 5.2 0 8.75 0h88.75c2.65-4.65 4.1-4.050 4.35-8.75l10.2-65.45c11.85-4.65 23.549-8.45 33.45-13.1l50.9 36.349c2.2 4.65 5.1 4.35 8.75 4.35 3.15 0 5.8 0.3 8.75-4.35 31.25-27.95 52.349-50.35 61.1-59.651 1.7-4.65 1.45-5.55 1.45-10.2s-0.95-4.050-2.9-8.75c-3.65-4.65-8.7-13.949-17.45-23.25-8.7-9.3-16.050-18.6-20.349-23.25 6.3-13.949 10.9-28.5 14.55-37.8l66.9-8.75c3.1 0 5.3-4.35 7.25-4.35 1.9-4.65 2.9-5.55 2.9-10.2v-78.55c0-4.65-1-10.2-2.9-10.2-1.95-4.65-4.35-4.35-7.25-4.35l-66.9-8.75c-4.6-13.949-9.65-28.5-14.55-37.8 8.5-9.3 21.8-27.95 39.25-46.55 2.4-4.65 4.35-8.75 4.35-8.75 0-4.65-2.15-10.2-4.35-10.2-6.55-9.3-17.45-22.1-34.9-40.75-17.45-13.949-29.55-23.25-34.9-23.25-2.9 0-5.35-0.3-8.75 4.35l-50.9 36.349c-10.65-4.65-22.051-8.45-33.45-13.1-3.85-32.6-7.050-56.15-10.2-65.45-1.7-9.3-6.050-14.55-13.1-14.55h-80c-3.4 0-7.55 5.8-10.2 5.8-2.4 0-2.7 4.050-2.9 8.75l-10.2 65.45c-11.85 4.65-23.549 8.45-33.45 13.1l-50.9-36.349c-2.4-4.65-5.1-4.35-8.75-4.35-3.4 0-7.5-0.3-10.2 4.35-30.55 27.95-50.2 45.65-59.651 59.651-1.7 0-2.9 5.55-2.9 10.2 0 0 0.95 4.050 2.9 8.7 3.65 4.65 10.2 9.3 18.9 23.3 8.75 9.3 16 18.6 20.349 23.25-6.55 13.949-12.6 23.85-16 37.8l-65.45 8.75c-3.15 0-6.8-0.3-8.75 4.35s-2.9 5.55-2.9 10.2v78.55c0 4.65 0.95 5.55 2.9 10.2s4.6 4.35 7.25 4.35l68.349 8.75c3.4 13.949 7.050 24.15 13.1 33.45-9.7 13.949-21.55 32.3-37.8 50.9-2.45 4.65-4.35 4.050-4.35 8.75 0 4.65 0.7 5.55 2.9 10.2 6.3 9.3 18.9 22.4 36.349 36.349 17.7 18.6 29.55 27.651 34.9 27.651 3.15 0 5.6 0.3 8.75-4.35l50.9-36.349c10.65 4.65 20.6 8.45 32 13.1 3.85 32.6 8.45 56.15 11.65 65.45 0.85 4.65 2.2 7.55 4.35 8.75l0.052-0.001zM422.4 494.554c-25.7 0-47.25-9.3-65.45-23.25-18.2-18.6-27.651-41.9-27.651-69.8 0-23.25 9.45-45.4 27.651-64s39.75-29.1 65.45-29.1c25.7 0 48.75 10.45 66.9 29.1 18.2 18.6 26.2 40.75 26.2 64 0 27.95-8 51.2-26.2 69.8-18.15 13.949-41.201 23.25-66.9 23.25z" />
<glyph unicode="&#xe909;" glyph-name="copy-app-info" d="M512 960c282.77 0 512-229.23 512-512s-229.23-512-512-512c-282.77 0-512 229.23-512 512s229.23 512 512 512zM594.194 675.556h-265.632c-24.617 0-44.118-19.501-44.118-44.118v0-265.632c0-24.617 19.501-44.118 44.118-44.118v0h57.126v-57.126c0-24.617 19.502-44.118 44.118-44.118v0h265.632c24.617 0 44.118 19.501 44.118 44.118v0 265.632c0 24.617-19.501 44.118-44.118 44.118v0h-57.126v57.126c0 24.617-19.502 44.118-44.118 44.118v0zM688.94 523.702l-0.018-252.624h-252.624v252.624h252.642zM587.701 624.941v-50.629l-157.914 0.019c-24.617 0-44.118-19.501-44.118-44.118v0-157.896h-50.611v252.624h252.642z" />
<glyph unicode="&#xe90a;" glyph-name="custom-url" d="M486.312 100.734c-13.941 0-25.222-11.281-25.222-25.222s11.281-25.222 25.222-25.222c90.197 0 163.596 73.399 163.596 163.645s-73.399 163.645-163.596 163.645h-322.266c-90.197 0-163.596-73.399-163.596-163.645s73.399-163.645 163.596-163.645h113.596c13.941 0 25.222 11.281 25.222 25.222s-11.281 25.222-25.222 25.222h-113.596c-62.414 0-113.153 50.788-113.153 113.202s50.739 113.202 113.153 113.202h322.266c62.414 0 113.153-50.788 113.153-113.202s-50.739-113.202-113.153-113.202zM844.785 263.985h-113.596c-13.941 0-25.222-11.281-25.222-25.222s11.281-25.222 25.222-25.222h113.596c62.414 0 113.153-50.739 113.153-113.153s-50.739-113.202-113.153-113.202h-322.217c-62.414 0-113.202 50.788-113.202 113.202s50.788 113.153 113.202 113.153c13.941 0 25.222 11.281 25.222 25.222s-11.281 25.222-25.222 25.222c-90.246 0-163.645-73.399-163.645-163.596 0-90.246 73.399-163.645 163.645-163.645h322.217c90.197 0 163.596 73.399 163.596 163.645 0 90.197-73.399 163.596-163.596 163.596zM1007.839 828.32l-115.813 115.813c-9.852 9.852-25.813 9.852-35.665 0l-45.957-45.957 151.497-151.459 45.939 45.939c9.852 9.852 9.852 25.812-0.001 35.664zM575.037 662.804l199.717 199.717 151.478-151.478-199.717-199.717zM545.924 620.58l-58.233-164.132c-3.251-9.163-0.936-19.36 5.96-26.256 4.778-4.827 11.232-7.389 17.833-7.389 2.808 0 5.665 0.493 8.375 1.429l164.393 58.020-138.328 138.328z" />
<glyph unicode="&#xe90b;" glyph-name="database-info" horiz-adv-x="990" d="M380.822 184.249c37.75 0 72.878 1.85 105.741 4.894-31.706 46.862-50.241 103.331-50.241 164.056 0 13.782 1.288 27.237 3.134 40.516-19.54-0.997-39.131-1.666-58.634-1.666-148.191 0-302.55 29.072-380.25 83.969v-179.078c1.603-47.337 145.866-112.69 380.25-112.69zM526.010 142.456c-47.156-6.147-96.484-9.406-145.187-9.406-148.191 0-302.55 29.072-380.25 83.969v-133.469c0-96.55 191.3-147.1 380.25-147.1 173.619 0 348.753 42.797 376.1 124.625-8.937-0.822-17.953-1.375-27.1-1.375-79.165 0.001-150.969 31.635-203.812 82.757zM380.822 702.349c232.644 0 376.372 64.391 380.006 111.647-2.087 95.516-192.097 145.553-380.006 145.553s-377.969-50.037-380.056-145.553c3.635-47.256 147.363-111.647 380.056-111.647zM380.822 443.249c24.625 0 48.009 0.872 70.587 2.218 38.797 116.694 148.825 201.181 278.412 201.181 10.544 0 20.941-0.618 31.2-1.71v90.178c-77.697-54.897-232.044-83.969-380.2-83.969-148.191 0-302.55 29.072-380.25 83.969v-179.178c1.604-47.337 145.866-112.69 380.25-112.69zM729.822 595.449c-133.6 0-242.3-108.65-242.3-242.25s108.7-242.3 242.3-242.3c133.6 0 242.25 108.7 242.25 242.3s-108.65 242.25-242.25 242.25zM762.763 353.193c0-18.197-14.753-32.95-32.95-32.95s-32.95 14.753-32.95 32.95c0 18.196 14.753 32.95 32.95 32.95s32.95-14.753 32.95-32.95zM653.025 353.193c0-18.197-14.753-32.95-32.953-32.95-18.197 0-32.95 14.753-32.95 32.95s14.753 32.95 32.95 32.95c18.201 0 32.953-14.753 32.953-32.95zM839.554 320.243c-18.2 0-32.953 14.753-32.953 32.95s14.753 32.95 32.953 32.95c18.197 0 32.95-14.753 32.95-32.95s-14.753-32.95-32.95-32.95z" />
<glyph unicode="&#xe90c;" glyph-name="delete-1" horiz-adv-x="1075" d="M156.978 580.741h796.444v-616.296h-796.444v616.296zM43.2 960h1024v-284.444h-1024v284.444z" />
<glyph unicode="&#xe90d;" glyph-name="delete-2" horiz-adv-x="916" d="M86.128 723.149l51.283-680.321c3.701-49.793 45.131-88.434 95.068-88.674h430.158c50.754 0.048 92.761 39.555 95.837 90.212l41.286 678.783h-713.63zM366.042 154.855c0-5.623-2.259-11.054-6.248-15.044s-9.372-6.248-15.044-6.248h-34.317c-11.775 0-21.292 9.564-21.292 21.292v418.863c0 11.727 9.516 21.244 21.292 21.244h34.317c11.775 0 21.292-9.516 21.292-21.244v-418.863zM596.741 154.855c0-5.623-2.259-11.054-6.248-15.044s-9.372-6.248-15.044-6.248h-34.317c-11.775 0-21.292 9.564-21.292 21.292v418.863c0 11.727 9.516 21.244 21.292 21.244h34.317c11.775 0 21.292-9.516 21.292-21.244v-418.863zM596.741 915.398c0 21.244-17.206 38.45-38.45 38.45h-230.699c-21.244 0-38.45-17.206-38.45-38.45s-17.206-38.45-38.45-38.45h-205.082c-21.196 0-38.45-17.206-38.45-38.45v-25.617c0-21.244 17.254-38.45 38.45-38.45h794.662c21.196 0 38.45 17.206 38.45 38.45v25.617c0 21.244-17.254 38.45-38.45 38.45h-205.082c-21.244 0-38.45 17.206-38.45 38.45z" />
<glyph unicode="&#xe90e;" glyph-name="deployment-options" horiz-adv-x="1084" d="M1020.757 854.398h-590.925c-12.951 0-23.43-14.263-23.43-31.889s10.479-31.889 23.43-31.889h590.925c12.951 0 23.43 14.263 23.43 31.889s-10.479 31.889-23.43 31.889zM1020.757 480.789h-590.925c-12.951 0-23.43-14.263-23.43-31.889s10.479-31.889 23.43-31.889h590.925c12.951 0 23.43 14.263 23.43 31.889s-10.479 31.889-23.43 31.889zM1020.757 107.18h-590.925c-12.951 0-23.43-14.263-23.43-31.889s10.479-31.889 23.43-31.889h590.925c12.951 0 23.43 14.263 23.43 31.889s-10.479 31.889-23.43 31.889zM137.522 960c-75.8 0-137.522-61.692-137.522-137.491s61.723-137.46 137.522-137.46c75.8 0 137.46 61.661 137.46 137.46s-61.661 137.491-137.46 137.491zM137.522 586.391c-75.8 0-137.522-61.692-137.522-137.491s61.723-137.491 137.522-137.491c75.8 0 137.46 61.692 137.46 137.491s-61.661 137.491-137.46 137.491zM137.522 212.782c-75.8 0-137.522-61.692-137.522-137.491s61.723-137.491 137.522-137.491c75.8 0 137.46 61.692 137.46 137.491s-61.661 137.491-137.46 137.491z" />
<glyph unicode="&#xe90f;" glyph-name="descending-order" d="M512 960c282.77 0 512-229.23 512-512s-229.23-512-512-512c-282.77 0-512 229.23-512 512s229.23 512 512 512zM716.8 550.4h-409.6l204.8-204.8 204.8 204.8z" />
<glyph unicode="&#xe910;" glyph-name="download-app" d="M511.55 960c282.050 0 511.5-229.45 511.5-511.5s-229.45-511.55-511.5-511.55c-282.050 0-511.55 229.5-511.55 511.55s229.5 511.5 511.55 511.5zM511.549 704.249c-14.15 0-25.6-11.45-25.6-25.6v0-398.5l-137.95 137.9c-10 10-26.2 10-36.2 0s-10-26.2 0-36.2v0l181.65-181.6c2.375-2.375 5.166-4.159 8.141-5.418 0.066-0.028 0.094-0.103 0.159-0.131 0.016-0.006 0.034-0.003 0.053-0.009l3.16-1.070c2.146-0.575 4.36-0.871 6.587-0.871 3.341 0 6.653 0.666 9.747 1.94 0.019 0.006 0.037 0.003 0.053 0.009 3.134 1.39 5.925 3.174 8.3 5.55v0l181.6 181.6c10 10 9.999 26.2-0.001 36.2s-26.2 10-36.2 0v0l-137.9-137.9v398.5c0 14.15-11.45 25.6-25.6 25.6z" />
<glyph unicode="&#xe911;" glyph-name="edit-circle" d="M512 960c282.774 0 512-229.226 512-512s-229.226-512-512-512c-282.774 0-512 229.226-512 512s229.226 512 512 512zM337.367 324.906l-30.167-132.906 132.906 30.167-102.752 102.752zM591.118 581.777l-237.6-237.6 105.86-105.86 237.6 237.6-105.86 105.86zM662.14 652.8l-53.319-53.319 105.86-105.86 53.319 53.319-105.86 105.86zM512 960c282.774 0 512-229.226 512-512s-229.226-512-512-512c-282.774 0-512 229.226-512 512s229.226 512 512 512zM337.367 324.906l-30.167-132.906 132.906 30.167-102.752 102.752zM591.118 581.777l-237.6-237.6 105.86-105.86 237.6 237.6-105.86 105.86zM662.14 652.8l-53.319-53.319 105.86-105.86 53.319 53.319-105.86 105.86z" />
<glyph unicode="&#xe912;" glyph-name="enframe-admins" d="M493 798.55c0 89.025-72.45 161.45-161.45 161.45s-161.4-72.425-161.4-161.45c0-89 72.4-161.425 161.4-161.425s161.45 72.425 161.45 161.425zM0 323.95v-361.425c0-14.15 11.45-25.6 25.6-25.6h611.9c8.278 0 15.291 4.175 19.969 10.259-49.547 12.522-96.688 37.009-135.369 75.69-114.4 114.425-114.4 300.625 0 415.025 23.294 23.312 50.35 41.119 79.1 55.203-49.163 59.744-122.716 98.697-205.95 98.697h-127.35c-147.7 0-267.9-120.15-267.9-267.85zM900.95 401.7c-45.8 45.775-106.65 70.975-171.35 70.975s-125.55-25.2-171.3-70.975c-94.45-94.45-94.45-248.15 0-342.625 94.4-94.45 248.15-94.45 342.65 0 94.45 94.475 94.45 248.175 0 342.625zM870.75 204.8h-115.55v-115.55c0-14.15-11.45-25.6-25.6-25.6s-25.6 11.45-25.6 25.6v115.55h-115.5c-14.15 0-25.6 11.45-25.6 25.6s11.45 25.6 25.6 25.6h115.5v115.525c0 14.15 11.45 25.6 25.6 25.6s25.6-11.45 25.6-25.6v-115.525h115.55c14.15 0 25.6-11.45 25.6-25.6s-11.45-25.6-25.6-25.6z" />
<glyph unicode="&#xe913;" glyph-name="forgot-password" d="M512 960c-135.803 0-266.035-53.96-362.035-149.965s-149.965-226.243-149.965-362.035c0-135.793 53.96-266.035 149.965-362.035s226.243-149.965 362.035-149.965c135.793 0 266.035 53.96 362.035 149.965s149.965 226.243 149.965 362.035c0 135.793-53.96 266.035-149.965 362.035s-226.243 149.965-362.035 149.965zM550.719 244.439c0.2-32.88-18.239-52.44-50.48-52.44s-53.76 18.84-53.88 46.399c0 38.2 17.12 57.24 51.2 58.28 27.76 0.8 56.639-16.2 53.16-52.24v0.001zM622.399 480.758c-14.56-11.28-29.8-21.52-44.44-32.56-21.6-14.16-34.040-38.719-32.56-64.52 0.72-18.8-11.44-35.68-29.52-40.96-19.24-7.4-41.040-0.88-53.040 15.88-3.8 6.44-5.88 13.72-6.040 21.2-1.48 47 20.32 91.68 58.28 119.398 16.44 12.52 31.92 26.2 46.36 40.96 6.92 8.12 11.080 18.16 12 28.76 2.36 28.96-16.28 47.6-46.28 49.56-36.24 2.36-66.76-7.080-87.96-39.12-9.12-15.44-26.88-23.64-44.56-20.48-30.72 5.12-43.92 30.12-31.32 58.88 13.2 28.080 35.84 50.56 64 63.52 28.92 14.2 60.56 21.96 92.76 22.721 18.239-1.92 36.32-4.88 54.16-8.92 54.56-15.48 87.040-59.080 91.12-117.043h0.040c4-37.8-12.4-74.88-43.12-97.28l0.119 0.005z" />
<glyph unicode="&#xe914;" glyph-name="home-1" horiz-adv-x="973" d="M463.478 942.065l-450.11-337.582c-8.308-6.286-13.407-16.66-13.363-27.076v-607.648c0-17.67 16.088-33.758 33.759-33.758h303.824c17.67 0 33.758 16.088 33.758 33.758v348.835h225.055v-348.835c0-17.67 16.088-33.758 33.758-33.758h303.824c17.67 0 33.758 16.088 33.758 33.758v607.648c0 10.418-5.055 20.792-13.363 27.076l-450.11 337.582c-14.725 9.363-27.604 8.484-40.791 0zM483.874 872.791l416.352-312.264v-557.011h-236.308v348.835c0 17.67-16.088 56.264-33.758 56.264h-292.571c-17.67 0-33.758-38.594-33.758-56.264v-348.835h-236.308v557.011l416.352 312.264z" />
<glyph unicode="&#xe915;" glyph-name="in-progress" horiz-adv-x="1920" d="M360 768v-640h1152v640h-1152zM744 640h640v-384h-640v384z" />
<glyph unicode="&#xe916;" glyph-name="input-data" d="M380.2 446.043c27.55 0 53.728 0.978 78.706 2.65 44.491 105.569 148.997 179.875 270.544 179.875 10.475 0 20.806-0.6 31-1.675v110.997c-77.7-54.884-232.059-83.972-380.25-83.972-148.156 0-302.5 29.088-380.2 83.972v-179.181c1.603-47.313 145.863-112.666 380.2-112.666zM380.2 187.017c33.272 0 64.506 1.435 94 3.831-24.2 42.647-38.2 91.806-38.2 144.244 0 21.14 2.356 41.725 6.625 61.609-20.794-1.128-41.659-1.86-62.425-1.86-148.156 0-302.5 29.088-380.2 83.972v-179.131c1.603-47.312 145.863-112.666 380.2-112.666zM380.2 705.118c232.713 0 376.447 64.403 380.059 111.634-4.119 190.997-755.95 190.997-760.069 0 3.613-47.231 147.344-111.634 380.009-111.634zM508.038 143.105c-41.85-4.75-85.072-7.287-127.838-7.287-148.156 0-302.5 29.088-380.2 83.972v-133.472c0-96.575 191.25-147.1 380.2-147.1 157.791 0 316.788 35.359 365.078 103.228-5.272-0.284-10.484-0.803-15.828-0.803-88.375 0-167.565 39.45-221.412 101.463zM729.45 577.368c-133.6 0-242.25-108.675-242.25-242.275 0-133.575 108.65-242.25 242.25-242.25s242.3 108.675 242.3 242.25c0 133.6-108.7 242.275-242.3 242.275zM847.7 343.768c-10-10-26.2-10-36.2 0l-56.45 56.425v-191.95c0-14.15-11.45-25.6-25.6-25.6s-25.6 11.45-25.6 25.6v191.925l-56.4-56.4c-10-10-26.2-10-36.2 0s-10 26.2 0 36.2l100.1 100.1c1.241 1.244 3.022 1.444 4.453 2.391 1.4 0.947 2.247 2.494 3.847 3.16 0.806 0.34 1.684-0.003 2.509 0.247 2.456 0.759 4.772 0.734 7.347 0.73 2.515-0.008 4.772 0.014 7.175-0.72 0.85-0.256 1.741 0.094 2.569-0.256 1.619-0.669 2.475-2.234 3.891-3.194 1.416-0.934 3.184-1.131 4.409-2.356l100.15-100.1c10-10 10-26.201 0-36.2z" />
<glyph unicode="&#xe917;" glyph-name="output-data" d="M380.25 705.121c232.65 0 376.378 64.397 380.006 111.65-4.163 190.972-755.9 190.972-760.062 0 3.628-47.253 147.359-111.65 380.056-111.65zM380.25-60.754c158.316 0 317.794 35.606 365.491 103.897-5.391-0.297-10.725-0.822-16.19-0.822-88.084 0-167.028 39.206-220.866 100.866-42.034-4.797-85.469-7.366-128.434-7.366-148.191 0-302.55 29.088-380.25 83.972v-133.472c0-96.55 191.3-147.076 380.25-147.076zM380.25 446.046c27.478 0 53.587 0.975 78.506 2.637 44.328 105.925 148.99 180.562 270.794 180.562 10.441 0 20.741-0.594 30.9-1.662v110.316c-77.697-54.89-232.044-83.978-380.2-83.978-148.191 0-302.55 29.085-380.25 83.978v-179.188c1.603-47.312 145.865-112.665 380.25-112.665zM380.25 187.021c33.438 0 64.816 1.453 94.437 3.872-24.428 42.797-38.587 92.175-38.587 144.878 0 20.897 2.278 41.256 6.45 60.928-20.753-1.125-41.578-1.853-62.3-1.853-148.191 0-302.55 29.088-380.25 83.972v-179.131c1.603-47.312 145.866-112.666 380.25-112.666zM729.55 93.521c133.6 0 242.3 108.675 242.3 242.25 0 133.6-108.7 242.275-242.3 242.275s-242.25-108.675-242.25-242.275c0-133.576 108.65-242.25 242.25-242.25zM611.35 290.921c-10 10-10 26.2 0 36.2s26.2 10 36.2 0l56.4-56.4v191.925c0 14.15 11.45 25.6 25.6 25.6s25.6-11.45 25.6-25.6v-191.95l56.45 56.425c10 10 26.2 10 36.2 0s10-26.2 0-36.2l-100.15-100.1c-2.375-2.375-5.166-4.159-8.141-5.418-0.066-0.028-0.094-0.103-0.159-0.131-0.016-0.006-0.034-0.003-0.053-0.009-3.094-1.275-6.406-1.94-9.747-1.94s-6.653 0.666-9.747 1.94c-0.019 0.006-0.037 0.003-0.053 0.009-0.066 0.028-0.094 0.103-0.159 0.131-2.975 1.26-5.766 3.044-8.141 5.418l-100.1 100.1z" />
<glyph unicode="&#xe918;" glyph-name="parameters" horiz-adv-x="1088" d="M1026.839 850.934h-145.726c-12.317 62.080-67.147 109.066-132.804 109.066s-120.448-46.986-132.752-109.066h-589.204c-14.566 0-26.353-11.787-26.353-26.353s11.787-26.353 26.353-26.353h589.2c12.302-62.099 67.095-109.092 132.756-109.092s120.496 46.993 132.807 109.092h145.723c14.566 0 26.353 11.787 26.353 26.353s-11.787 26.353-26.353 26.353zM1026.839 478.161h-589.2c-12.302 62.099-67.095 109.092-132.756 109.092s-120.496-46.993-132.807-109.092h-145.723c-14.566 0-26.353-11.787-26.353-26.353s11.787-26.353 26.353-26.353h145.723c12.311-62.099 67.147-109.092 132.807-109.092s120.454 46.993 132.756 109.092h589.2c14.566 0 26.353 11.787 26.353 26.353s-11.787 26.353-26.353 26.353zM1026.839 105.415h-367.49c-12.305 62.080-67.095 109.066-132.752 109.066s-120.448-46.986-132.752-109.066h-367.49c-14.566 0-26.353-11.787-26.353-26.353s11.787-26.353 26.353-26.353h367.487c12.302-62.099 67.095-109.092 132.756-109.092s120.454 46.993 132.756 109.092h367.487c14.566 0 26.353 11.787 26.353 26.353s-11.787 26.353-26.353 26.353z" />
<glyph unicode="&#xe919;" glyph-name="start-app" d="M512 960c282.77 0 512-229.23 512-512s-229.23-512-512-512c-282.77 0-512 229.23-512 512s229.23 512 512 512zM358.4 652.8v-409.6l409.6 206.76-409.6 202.84z" />
<glyph unicode="&#xe91a;" glyph-name="stop-app" d="M512 960c282.77 0 512-229.23 512-512s-229.23-512-512-512c-282.77 0-512 229.23-512 512s229.23 512 512 512zM665.6 601.6h-307.2v-307.2h307.2v307.2z" />
<glyph unicode="&#xe91b;" glyph-name="upgrade-app" d="M511.55 960c-282.050 0-511.55-229.5-511.55-511.55s229.5-511.55 511.55-511.55c282.050 0 511.5 229.5 511.5 511.55s-229.45 511.55-511.5 511.55zM511.55 412.25l-188.7-188.65c-10-10-26.2-10-36.2 0s-10 26.2 0 36.2l206.8 206.75c10 10 26.2 10 36.2 0l206.75-206.75c10-10 10-26.2 0-36.2-5-5-11.55-7.5-18.1-7.5s-13.1 2.5-18.1 7.5l-188.649 188.65zM736.4 491.5c-5-5-11.55-7.5-18.1-7.5s-13.1 2.5-18.1 7.5l-188.65 188.7-188.7-188.7c-10-10-26.2-10-36.2 0s-10 26.2 0 36.2l206.8 206.8c4.8 4.8 11.3 7.5 18.1 7.5s13.3-2.7 18.1-7.5l206.75-206.8c10-10 10-26.2 0-36.2z" />
<glyph unicode="&#xe91c;" glyph-name="user-settings" horiz-adv-x="1308" d="M1283.566 223.113c-2.783 10.288-8.946 19.284-17.446 25.696l-24.652 21.571v49.802c-0.348 1.193-0.348 2.435 0 3.628l29.275 29.275c3.678 4.274 6.61 9.145 8.698 14.364 5.567 14.314 4.424 30.318-3.082 43.688l-51.393 90.409h0.050c-7.107 10.984-18.092 18.887-30.816 22.068-10.239 3.032-21.124 3.032-31.362 0l-31.312-11.282-26.691 11.829-17.446 11.282h-0.050c-0.199 0.994-0.199 2.038 0 3.082l-10.288 40.060c-2.684 5.964-6.561 11.382-11.282 15.905-6.909 7.406-15.855 12.575-25.696 14.911-5.119 0.795-10.288 0.795-15.407 0h-102.735c-12.773-0.149-25.051-5.119-34.394-13.866-7.754-7.406-12.823-17.148-14.414-27.734l-6.66-32.357v-3.579l-11.829-7.704-28.777-14.364-6.66-0.050-40.060 11.282c-15.258 3.181-31.163-0.795-43.141-10.785-3.926-3.529-7.207-7.704-9.791-12.326l-51.393-90.409h0.050c-6.312-11.233-8.151-24.454-5.119-36.978 2.535-10.388 8.499-19.583 16.948-26.193l24.155-22.068v-51.343l-0.050-0.050c0.298-1.193 0.298-2.386 0-3.579l-30.318-28.777h0.050c-10.388-11.63-14.911-27.286-12.326-42.645 1.044-5.219 2.932-10.288 5.616-14.861l51.393-91.452c6.362-10.984 16.65-19.235 28.777-23.112 10.239-2.833 21.073-2.833 31.312 0l31.312 9.742h4.125l12.326-6.163 26.691-17.993h0.050c0.199-0.994 0.199-2.038 0-3.082l9.742-40.557c1.491-5.368 3.926-10.388 7.207-14.911 9.095-12.475 23.559-19.881 39.016-20.030h105.319c12.525 0.149 24.603 4.921 33.898 13.37 7.853 7.157 13.071 16.75 14.911 27.237l7.704 31.859v3.579l39.563 25.15 8.748 5.119h4.125l40.010-10.785c15.407-2.833 31.312 1.491 43.141 11.829 3.926 3.579 7.207 7.704 9.742 12.326l51.393 91.95c7.952 10.984 11.282 24.652 9.245 38.023h-0.001zM1183.913 195.876l-18.489-33.4c-36.133 12.525-75.996 8.251-108.65-11.63-32.704-19.831-54.822-53.231-60.339-91.105h-46.77c-5.616 36.928-27.088 69.584-58.798 89.315-31.71 19.782-70.478 24.652-106.064 13.42l-18.986 34.394-0.050 0.050c27.385 24.553 42.844 59.742 42.445 96.522s-16.601 71.621-44.484 95.577l22.068 38.023c13.071-4.573 26.79-7.008 40.607-7.207 61.084 0.149 113.769 42.993 126.344 102.735h42.645c7.306-36.779 30.318-68.49 63.072-86.78 32.704-18.29 71.82-21.273 106.959-8.251l21.571-37.475c-29.374-23.808-46.621-59.444-47.118-97.267-0.497-37.774 15.806-73.858 44.533-98.461l-0.496 1.542zM674.858 891.902c-44.732 40.805-103.331 63.022-163.87 62.177-60.537 0.845-119.137-21.372-163.87-62.177-50.746-52.833-75.746-125.35-68.291-198.263 7.157-59.494 34.146-114.862 76.541-157.203 36.779-49.553 92.696-81.412 154.073-87.824 61.432 6.263 117.398 38.171 154.124 87.824 42.346 42.396 69.285 97.715 76.492 157.203 8.3 72.466-15.557 144.886-65.21 198.263h0.011zM656.37 701.834c-4.771-40.309-22.863-77.884-51.393-106.81-27.187-24.652-57.009-58.6-93.987-59.096s-62.675 28.281-91.452 58.55c-28.529 28.926-46.621 66.502-51.343 106.86-4.622 46.124 10.487 92 41.601 126.344 28.43 24.851 65.011 38.37 102.735 38.023 37.724 0.348 74.305-13.172 102.735-38.023 30.667-34.146 45.577-79.623 41.104-125.3l0.001-0.547zM616.812 60.782h-505.479c32.406 121.324 119.038 220.924 234.742 269.681 48.957-26.641 103.579-41.104 159.251-42.098h5.666c13.071 0.099 26.094 0.944 39.016 2.535 22.664 4.622 37.824 26.094 34.543 48.957-3.28 22.913-23.808 39.264-46.869 37.376-8.897-0.547-17.793-0.547-26.691 0h-4.622c-49.852 1.093-98.312 16.402-139.708 44.136-4.424 2.982-9.593 4.622-14.911 4.622-3.032 0.547-6.163 0.547-9.245 0-88.967-30.915-167.255-86.582-225.695-160.435-58.4-73.908-94.534-162.928-104.077-256.665-0.348-7.257 1.64-14.463 5.666-20.527 7.107-9.294 18.092-14.762 29.771-14.911h568.64c24.105 0 43.688 19.534 43.688 43.688 0 24.105-19.583 43.639-43.688 43.639h0.002zM1042.157 296.567c0-88.371-132.557-88.371-132.557 0s132.557 88.371 132.557 0z" />
<glyph unicode="&#xe91d;" glyph-name="visualization" d="M25.6 960c-14.15 0-25.6-11.45-25.6-25.6v-971.875c0-14.15 11.45-25.6 25.6-25.6h971.9c14.15 0 25.6 11.45 25.6 25.6s-11.45 25.6-25.6 25.6h-946.3v946.275c0 14.15-11.45 25.6-25.6 25.6zM137.8 93.975c3.6-1.75 7.45-2.575 11.2-2.575 9.5 0 18.6 5.3 23.050 14.425l130.278 268.409c6.122-1.184 12.409-1.909 18.872-1.909 17.806 0 34.297 5.091 48.769 13.331l158.403-161.156c-8.753-14.8-14.122-31.844-14.122-50.25 0-54.825 44.6-99.425 99.45-99.425s99.45 44.6 99.45 99.425c0 30.51-14.103 57.509-35.806 75.763l257.406 554.113c5.95 12.8 0.4 28.025-12.4 34-12.8 5.95-28.1 0.45-34-12.45l-257.266-553.759c-5.669 1.006-11.431 1.759-17.384 1.759-17.816 0-34.313-5.084-48.791-13.319l-158.425 161.172c8.75 14.803 14.116 31.844 14.116 50.247 0 54.825-44.6 99.425-99.4 99.425-54.85 0-99.45-44.6-99.45-99.425 0-29.972 13.609-56.575 34.656-74.825l-130.456-268.775c-6.15-12.726-0.849-28.026 11.85-34.201z" />
<glyph unicode="&#xe91e;" glyph-name="pencil" d="M864 960c88.364 0 160-71.634 160-160 0-36.020-11.91-69.258-32-96l-64-64-224 224 64 64c26.742 20.090 59.978 32 96 32zM64 224l-64-288 288 64 592 592-224 224-592-592zM715.578 596.422l-448-448-55.156 55.156 448 448 55.156-55.156z" />
<glyph unicode="&#xe91f;" glyph-name="active-apps" horiz-adv-x="614" d="M438.467 920.688c-15.35 6.975-33.8 1.45-42.5-12.35l-348.35-531.45c-7.85-11.425-7.8-26.1-0.7-36.15 6.15-10.025 17.35-16.25 29.2-16.25h130.45l-49.65-310.125c-4.8-16.825 4.5-34.575 23.75-41.175 1.95-0.475 4.75-0.7 7.55-0.7 0.6 0 1.2 0 1.8 0.025v-0.025c10.95 0.1 21.35 5.375 28.65 15.325l349.55 533.425c5.85 10.4 5.9 22.85-2.5 37.075-6.25 7.6-15.55 12.175-26.5 12.575l-130.6 0.025 49.5 312.225c3.1 15.674-5.050 31.149-19.65 37.549z" />
<glyph unicode="&#xe920;" glyph-name="inactive-apps" d="M192.008 741.96v-587.933c0-14.386 11.648-26.034 26.034-26.034h587.9c14.386 0 26.034 11.648 26.034 26.034v587.933c0 14.386-11.648 26.034-26.034 26.034h-587.9c-14.386 0-26.034-11.648-26.034-26.034z" />
<glyph unicode="&#xe921;" glyph-name="upgrade-app-2" horiz-adv-x="967" d="M199.753 395.892c-43.399-46.975-112.041 21.674-65.069 65.069l314.456 318.081c18.059 18.059 50.589 18.059 68.69 0l318.081-318.081c43.399-43.399-25.292-112.041-68.69-65.069l-281.917 281.917-285.542-281.917zM199.753 110.347c-43.399-43.399-112.041 25.292-65.069 68.69l314.456 318.081c18.059 18.059 50.589 18.059 68.69 0l318.081-318.081c43.399-43.399-25.292-112.041-68.69-68.69l-281.917 285.545-285.542-285.545z" />
<glyph unicode="&#xe922;" glyph-name="file-text" d="M864 960h-768c-52.8 0-96-43.2-96-96v-832c0-52.8 43.2-96 96-96h768c52.8 0 96 43.2 96 96v832c0 52.8-43.2 96-96 96zM832 64h-704v768h704v-768zM256 512h448v-64h-448zM256 384h448v-64h-448zM256 256h448v-64h-448zM256 640h448v-64h-448z" />
<glyph unicode="&#xe923;" glyph-name="upgrade-app-21" horiz-adv-x="967" d="M431.392 731.747c-46.975 43.399 21.674 112.041 65.069 65.069l318.081-314.456c18.059-18.059 18.059-50.589 0-68.69l-318.081-318.081c-43.399-43.399-112.041 25.292-65.069 68.69l281.917 281.917-281.917 285.542zM145.847 731.747c-43.399 43.399 25.292 112.041 68.69 65.069l318.081-314.456c18.059-18.059 18.059-50.589 0-68.69l-318.081-318.081c-43.399-43.399-112.041 25.292-68.69 68.69l285.545 281.917-285.545 285.542z" />
<glyph unicode="&#xe924;" glyph-name="help-content" d="M512 957.091c-135.005 0-264.495-53.637-360.006-149.085-95.454-95.5-149.085-225.001-149.085-360.006s53.637-264.495 149.085-360.006c95.5-95.454 225.001-149.085 360.006-149.085s264.495 53.637 360.006 149.085c95.454 95.5 149.085 225.001 149.085 360.006s-53.637 264.495-149.085 360.006c-95.5 95.454-225.001 149.085-360.006 149.085zM512 11.636c-115.727 0-226.723 45.954-308.55 127.814-81.864 81.818-127.814 192.815-127.814 308.55s45.954 226.723 127.814 308.55c81.818 81.864 192.815 127.814 308.55 127.814s226.723-45.954 308.55-127.814c81.864-81.818 127.814-192.815 127.814-308.55s-45.954-226.723-127.814-308.55c-81.818-81.864-192.815-127.814-308.55-127.814zM640.721 692.724c-28.728 23.955-63.682 39.227-100.773 44.046-37.091 4.864-74.773-0.955-108.681-16.773-30.364-15.046-55.909-38.273-73.772-67.045-17.864-28.773-27.319-62-27.319-95.864 0-20.091 16.272-36.364 36.364-36.364s36.364 16.272 36.364 36.364c0 41.5 23.545 79.409 60.728 97.818 42.773 19.364 92.819 12.728 129.094-17.091 29.818-36.273 36.454-86.319 17.091-129.094-18.409-37.182-56.318-60.728-97.818-60.728-20.091 0-36.364-16.272-36.364-36.364v-72.727c0-20.091 16.272-36.364 36.364-36.364s36.364 16.272 36.364 36.364v40.364c54.863 11.136 101.546 46.955 126.545 97.091 15.818 33.91 21.637 71.59 16.773 108.681-4.818 37.091-20.091 72.045-44.046 100.773-2 2.591-4.318 4.909-6.909 6.909l-0.004 0.003zM512 266.182c-20.091 0-36.364-16.272-36.364-36.364v-36.364c0-20.091 16.272-36.364 36.364-36.364s36.364 16.272 36.364 36.364v36.364c0 9.636-3.818 18.909-10.636 25.727s-16.091 10.637-25.727 10.637v0z" />
<glyph unicode="&#xe925;" glyph-name="master-data" horiz-adv-x="789" d="M8.544 811.755v-726.421c0-94.916 194.123-145.088 386.123-145.088s386.123 50.125 386.123 145.088v726.421c0 190.912-772.245 190.912-772.245 0zM394.667 896.004c214.421 0 325.333-58.667 325.333-84.25 0-25.625-110.912-83.209-325.333-83.209s-325.333 58.667-325.333 84.25c0 25.625 110.912 83.209 325.333 83.209zM394.667 2.127c-214.421 0-325.333 58.667-325.333 84.25v160.043c72.542-41.583 199.456-62.916 325.333-62.916s252.789 21.333 325.333 62.916v-161.088c0-24.542-110.912-83.209-325.333-83.209v0.004zM394.667 244.25c-214.421 0-325.333 58.667-325.333 84.25v160.043c72.542-41.583 199.456-62.916 325.333-62.916s252.789 21.333 325.333 62.916v-161.088c0-24.542-110.912-83.209-325.333-83.209v0.004zM394.667 486.415c-214.421 0-325.333 58.667-325.333 84.25v160c72.542-41.583 199.456-62.916 325.333-62.916s252.789 21.333 325.333 62.916v-161.088c0-24.5-110.912-83.167-325.333-83.167v0.005zM635.755 594.123c0-54.042-81.084-54.042-81.084 0s81.084 54.042 81.084 0zM635.755 352c0-54.042-81.084-54.042-81.084 0s81.084 54.042 81.084 0zM635.755 109.877c0-54.042-81.084-54.042-81.084 0s81.084 54.042 81.084 0z" />
<glyph unicode="&#xe926;" glyph-name="primary-action" d="M407.122 663.921l308.439-194.324c18.52-9.24 18.52-33.92 0-43.201l-308.439-194.324c-18.52-9.24-40.080 3.080-40.080 24.68v385.556c0 18.52 21.6 30.84 40.080 21.6v0.012zM512 960c283.761 0 512-228.239 512-512s-228.239-512-512-512c-283.761 0-512 228.239-512 512s228.239 512 512 512zM512 882.881c-240.558 0-434.883-194.324-434.883-434.883s194.324-431.8 434.883-431.8c240.558 0 431.8 191.242 431.8 431.8s-191.242 434.883-431.8 434.883z" />
<glyph unicode="&#xe927;" glyph-name="file-picture" d="M832 64h-640v128l192 320 263-320 185 128v-256zM832 480c0-53.020-42.98-96-96-96-53.022 0-96 42.98-96 96s42.978 96 96 96c53.020 0 96-42.98 96-96zM917.806 730.924c-22.212 30.292-53.174 65.7-87.178 99.704s-69.412 64.964-99.704 87.178c-51.574 37.82-76.592 42.194-90.924 42.194h-496c-44.112 0-80-35.888-80-80v-864c0-44.112 35.888-80 80-80h736c44.112 0 80 35.888 80 80v624c0 14.332-4.372 39.35-42.194 90.924zM785.374 785.374c30.7-30.7 54.8-58.398 72.58-81.374h-153.954v153.946c22.984-17.78 50.678-41.878 81.374-72.572zM896 16c0-8.672-7.328-16-16-16h-736c-8.672 0-16 7.328-16 16v864c0 8.672 7.328 16 16 16 0 0 495.956 0.002 496 0v-224c0-17.672 14.326-32 32-32h224v-624z" />
<glyph unicode="&#xe928;" glyph-name="scenario-settings" horiz-adv-x="1187" d="M593.455 304.185c-5.955-0.044-11.818 1.41-17.091 4.183l-545.455 290.909c-11.863 6.318-19.272 18.637-19.272 32.091s7.409 25.772 19.272 32.091l545.455 290.909c10.682 5.682 23.5 5.682 34.182 0l545.455-290.909c11.863-6.318 19.272-18.637 19.272-32.091s-7.409-25.772-19.272-32.091l-545.455-290.909c-5.273-2.773-11.136-4.227-17.091-4.183h0.001zM125.452 629.818l468.003-248.18 468.003 248.18-468.003 249.635-468.003-249.635zM593.455 120.727c-5.955-0.045-11.818 1.409-17.091 4.182l-545.455 290.909c-8.682 4.455-15.227 12.182-18.136 21.501-2.955 9.273-2 19.364 2.591 27.999 4.591 8.591 12.409 15 21.773 17.772 9.364 2.727 19.409 1.636 27.954-3.091l528.361-280.913 528.361 281.088c8.546 4.727 18.591 5.818 27.954 3.091 9.364-2.773 17.182-9.182 21.773-17.772 4.591-8.636 5.545-18.728 2.591-27.999-2.909-9.318-9.455-17.045-18.136-21.501l-545.455-290.909c-5.273-2.818-11.136-4.318-17.091-4.364l0.008 0.007zM593.455-61.091c-5.955-0.045-11.818 1.409-17.091 4.182l-545.455 290.909c-8.682 4.455-15.227 12.182-18.136 21.501-2.955 9.273-2 19.364 2.591 27.999 4.591 8.591 12.409 15 21.773 17.772 9.364 2.727 19.409 1.636 27.954-3.091l528.361-281.635 528.361 280.913c8.546 4.727 18.591 5.818 27.954 3.091 9.364-2.773 17.182-9.182 21.773-17.772 4.591-8.636 5.545-18.728 2.591-27.999-2.909-9.318-9.455-17.045-18.136-21.501l-545.455-290.909c-5.318-2.5-11.182-3.727-17.091-3.455l0.008-0.006z" />
<glyph unicode="&#xe929;" glyph-name="scheduler-icon" d="M512 957.091c-281.181 0-509.091-227.91-509.091-509.091s227.91-509.091 509.091-509.091c281.181 0 509.091 227.91 509.091 509.091s-227.91 509.091-509.091 509.091zM512 29.812c-230.586 0-418.188 187.59-418.188 418.188s187.59 418.188 418.188 418.188c230.598 0 418.188-187.59 418.188-418.188s-187.59-418.188-418.188-418.188zM555.636 466.095v236.451c0 24.091-19.546 43.636-43.636 43.636s-43.636-19.546-43.636-43.636v-254.545c0-11.545 4.591-22.682 12.773-30.818l192.721-192.768c8.5-8.5 19.727-12.819 30.863-12.819 11.182 0 22.319 4.273 30.863 12.819 17.045 17.045 17.045 44.681 0 61.727l-179.948 179.953z" />
<glyph unicode="&#xe92a;" glyph-name="np_more_308028_FFFFFF" d="M435.2 755.2c0-42.405 34.395-76.8 76.8-76.8s76.8 34.395 76.8 76.8-34.395 76.8-76.8 76.8-76.8-34.395-76.8-76.8zM435.2 448c0-42.405 34.395-76.8 76.8-76.8s76.8 34.395 76.8 76.8-34.395 76.8-76.8 76.8-76.8-34.395-76.8-76.8zM435.2 140.8c0-42.405 34.395-76.8 76.8-76.8s76.8 34.395 76.8 76.8-34.395 76.8-76.8 76.8-76.8-34.395-76.8-76.8z" />
<glyph unicode="&#xe92b;" glyph-name="file-zip" d="M917.806 730.924c-22.208 30.292-53.174 65.7-87.178 99.704s-69.412 64.964-99.704 87.178c-51.574 37.82-76.592 42.194-90.924 42.194h-496c-44.112 0-80-35.888-80-80v-864c0-44.112 35.884-80 80-80h736c44.112 0 80 35.888 80 80v624c0 14.332-4.372 39.35-42.194 90.924v0 0zM785.374 785.374c30.7-30.7 54.8-58.398 72.58-81.374h-153.954v153.946c22.98-17.78 50.678-41.878 81.374-72.572v0 0zM896 16c0-8.672-7.328-16-16-16h-736c-8.672 0-16 7.328-16 16v864c0 8.672 7.328 16 16 16 0 0 495.956 0.002 496 0v-224c0-17.672 14.322-32 32-32h224v-624zM256 896h128v-64h-128v64zM384 832h128v-64h-128v64zM256 768h128v-64h-128v64zM384 704h128v-64h-128v64zM256 640h128v-64h-128v64zM384 576h128v-64h-128v64zM256 512h128v-64h-128v64zM384 448h128v-64h-128v64zM256 112c0-26.4 21.6-48 48-48h160c26.4 0 48 21.6 48 48v160c0 26.4-21.6 48-48 48h-80v64h-128v-272zM448 192v-64h-128v64h128z" />
<glyph unicode="&#xe92c;" glyph-name="np_web_1194839_6C75B4" d="M512 904c121.024 0 237.086-48.132 322.62-133.737 85.533-85.644 133.525-201.78 133.38-322.804-1.107-252.723-206.197-457.106-456.824-455.466-162.911 0.143-313.357 87.21-394.688 228.357-81.331 141.152-81.192 314.997 0.391 456s232.203 227.792 395.114 227.643zM618.449 538.204h-212.506c-10.118-59.777-10.118-120.806 0-180.586h212.397c9.763 59.777 9.796 120.765 0.106 180.586zM312.643 538.204c-1.889 0.428-3.811 0.749-5.733 0.998h-139.904c-2.565 0.212-5.097-0.643-7.019-2.353-1.889-1.743-2.956-4.202-2.956-6.767-12.613-53.653-12.858-109.474-0.713-163.228 0.106-3.241 1.637-6.237 4.202-8.192s5.879-2.638 9.014-1.853h132.424c3.387 0 6.84 0 10.936 0.643h0.033c-8.086 59.994-8.159 120.765-0.285 180.76zM711.109 538.204h-0.033c8.232-59.85 8.232-120.558 0-180.402 1.995-0.428 4.023-0.713 6.018-0.888h139.828c2.565-0.252 5.097 0.603 6.983 2.353s2.956 4.169 2.956 6.767c12.646 53.971 12.646 110.154 0 164.16-0.252 2.923-1.743 5.627-4.133 7.377s-5.382 2.386-8.265 1.743h-133.414c-2.923-0.106-6.018-0.749-9.976-1.034zM425.642 631.506h173.28c-19.238 63.946-48.556 124.444-86.924 179.126-38.117-54.753-67.26-115.215-86.356-179.126zM425.642 264.96c19.168-64.052 48.308-124.69 86.356-179.654 38.011 54.972 67.154 115.57 86.356 179.582h-173.28zM826.358 630.4c-33.488 67.119-143.174 156.496-194.341 159.134 25.364-48.523 45.421-99.646 59.817-152.478 1.995-3.599 5.594-5.985 9.69-6.376 27.36-0.537 54.72 0 82.080 0h42.783zM390.986 791.745c-81.152-28.818-149.548-85.248-193.262-159.416 0.961-0.676 1.995-1.173 3.102-1.568h123.76c3.632 1.107 6.555 3.848 7.838 7.41 7.662 22.516 13.574 45.6 22.157 67.689 10.797 28.142 23.37 55.502 36.407 85.891zM197.896 265.6c27.824-62.559 143.174-157.136 193.334-158.89-1.743 3.453-3.387 6.555-4.666 9.763-16.033 39.688-31.993 80.191-47.847 120.415-3.453 9.12-3.278 21.803-9.12 26.253s-19.238 2.459-29.103 2.459h-102.6zM631.278 103.829c82.113 28.858 151.372 85.784 195.655 160.665-2.174 0.428-4.381 0.749-6.588 0.928h-119.557c-2.423 0.179-4.812-0.643-6.628-2.207-1.853-1.604-2.956-3.848-3.135-6.27-13.501-38.476-27.36-76.877-41.504-114.997-4.633-12.328-11.4-24.013-18.24-38.117z" />
<glyph unicode="&#xe92d;" glyph-name="np_arrow_2333164_000000" d="M556.442 178.964l449.157 447.601c24.52 26.040 24.52 65.92 0 90.44s-65.92 24.52-90.44 0l-403.159-403.159-403.159 403.159c-26.040 24.52-65.92 24.52-90.44 0s-24.52-64.4 0-90.44l447.601-447.601c26.040-24.52 65.92-24.52 90.44 0z" />
<glyph unicode="&#xe92e;" glyph-name="stack" d="M1024 640l-512 256-512-256 512-256 512 256zM512 811.030l342.058-171.030-342.058-171.030-342.058 171.030 342.058 171.030zM921.444 499.278l102.556-51.278-512-256-512 256 102.556 51.278 409.444-204.722zM921.444 307.278l102.556-51.278-512-256-512 256 102.556 51.278 409.444-204.722z" />
<glyph unicode="&#xe92f;" glyph-name="folder" d="M448 832l128-128h448v-704h-1024v832z" />
<glyph unicode="&#xe930;" glyph-name="folder-open" d="M832 0l192 512h-832l-192-512zM128 576l-128-576v832h288l128-128h416v-128z" />
<glyph unicode="&#xe931;" glyph-name="np_filter_3121857_000000" d="M79.48 896.52c-6.2-0.040-11.88-3.64-14.48-9.28-2.6-5.68-1.72-12.32 2.32-17.080l306.401-358.083v-496.681c0.040-5.44 2.84-10.52 7.44-13.44s10.4-3.28 15.32-0.96l244.716 115.282c5.6 2.68 9.16 8.36 9.12 14.52v381.276l306.36 358.083c4 4.72 4.92 11.36 2.36 17-2.6 5.64-8.2 9.28-14.399 9.36z" />
<glyph unicode="&#xe932;" glyph-name="np_magnifying-glass_888719_000000" d="M872.52 147.2l-221.839 221.88c34.12 44.8 53.32 102.4 53.32 164.28 0 153.6-123.72 277.32-277.32 277.32s-277.361-123.761-277.361-277.361 123.72-277.32 277.32-277.32c61.88 0 117.32 19.2 164.28 53.32l221.88-221.88c8.52-8.52 19.2-12.8 29.88-12.8s21.32 4.28 29.88 12.8c17.040 17.080 17.040 42.68-0.040 59.76zM426.68 341.32c-106.68 0-192 85.32-192 192s85.32 192 192 192 192-85.32 192-192c0-106.639-85.36-192-192-192z" />
<glyph unicode="&#xe933;" glyph-name="folder-download" d="M576 704l-128 128h-448v-832h1024v704h-448zM512 96l-224 224h160v256h128v-256h160l-224-224z" />
<glyph unicode="&#xe934;" glyph-name="folder-upload" d="M576 704l-128 128h-448v-832h1024v704h-448zM512 480l224-224h-160v-256h-128v256h-160l224 224z" />
<glyph unicode="&#xe935;" glyph-name="image" d="M959.884 832c0.040-0.034 0.082-0.076 0.116-0.116v-767.77c-0.034-0.040-0.076-0.082-0.116-0.116h-895.77c-0.040 0.034-0.082 0.076-0.114 0.116v767.772c0.034 0.040 0.076 0.082 0.114 0.114h895.77zM960 896h-896c-35.2 0-64-28.8-64-64v-768c0-35.2 28.8-64 64-64h896c35.2 0 64 28.8 64 64v768c0 35.2-28.8 64-64 64v0zM832 672c0-53.020-42.98-96-96-96s-96 42.98-96 96 42.98 96 96 96 96-42.98 96-96zM896 128h-768v128l224 384 256-320h64l224 192z" />
<glyph unicode="&#xe936;" glyph-name="film" d="M0 832v-768h1024v768h-1024zM192 128h-128v128h128v-128zM192 384h-128v128h128v-128zM192 640h-128v128h128v-128zM768 128h-512v640h512v-640zM960 128h-128v128h128v-128zM960 384h-128v128h128v-128zM960 640h-128v128h128v-128zM384 640v-384l256 192z" />
<glyph unicode="&#xe937;" glyph-name="book" d="M896 832v-832h-672c-53.026 0-96 42.98-96 96s42.974 96 96 96h608v768h-640c-70.398 0-128-57.6-128-128v-768c0-70.4 57.602-128 128-128h768v896h-64zM224.056 128v0c-0.018-0.002-0.038 0-0.056 0-17.672 0-32-14.326-32-32s14.328-32 32-32c0.018 0 0.038 0.002 0.056 0.002v-0.002h607.89v64h-607.89z" />
<glyph unicode="&#xe938;" glyph-name="profile" d="M864 960h-768c-52.8 0-96-43.2-96-96v-832c0-52.8 43.2-96 96-96h768c52.8 0 96 43.2 96 96v832c0 52.8-43.2 96-96 96zM832 64h-704v768h704v-768zM256 384h448v-64h-448zM256 256h448v-64h-448zM320 672c0 53.019 42.981 96 96 96s96-42.981 96-96c0-53.019-42.981-96-96-96s-96 42.981-96 96zM480 576h-128c-52.8 0-96-28.8-96-64v-64h320v64c0 35.2-43.2 64-96 64z" />
<glyph unicode="&#xe939;" glyph-name="file-empty" d="M917.806 730.924c-22.212 30.292-53.174 65.7-87.178 99.704s-69.412 64.964-99.704 87.178c-51.574 37.82-76.592 42.194-90.924 42.194h-496c-44.112 0-80-35.888-80-80v-864c0-44.112 35.888-80 80-80h736c44.112 0 80 35.888 80 80v624c0 14.332-4.372 39.35-42.194 90.924zM785.374 785.374c30.7-30.7 54.8-58.398 72.58-81.374h-153.954v153.946c22.984-17.78 50.678-41.878 81.374-72.572zM896 16c0-8.672-7.328-16-16-16h-736c-8.672 0-16 7.328-16 16v864c0 8.672 7.328 16 16 16 0 0 495.956 0.002 496 0v-224c0-17.672 14.326-32 32-32h224v-624z" />
<glyph unicode="&#xe93a;" glyph-name="files-empty" d="M917.806 602.924c-22.21 30.292-53.174 65.7-87.178 99.704s-69.412 64.964-99.704 87.178c-51.574 37.82-76.592 42.194-90.924 42.194h-368c-44.114 0-80-35.888-80-80v-736c0-44.112 35.886-80 80-80h608c44.112 0 80 35.888 80 80v496c0 14.332-4.372 39.35-42.194 90.924zM785.374 657.374c30.7-30.7 54.8-58.398 72.58-81.374h-153.954v153.946c22.982-17.78 50.678-41.878 81.374-72.572v0zM896 16c0-8.672-7.328-16-16-16h-608c-8.672 0-16 7.328-16 16v736c0 8.672 7.328 16 16 16 0 0 367.956 0.002 368 0v-224c0-17.672 14.324-32 32-32h224v-496zM602.924 917.804c-51.574 37.822-76.592 42.196-90.924 42.196h-368c-44.112 0-80-35.888-80-80v-736c0-38.632 27.528-70.958 64-78.39v814.39c0 8.672 7.328 16 16 16h486.876c-9.646 7.92-19.028 15.26-27.952 21.804z" />
<glyph unicode="&#xe93b;" glyph-name="file-text2" d="M917.806 730.924c-22.212 30.292-53.174 65.7-87.178 99.704s-69.412 64.964-99.704 87.178c-51.574 37.82-76.592 42.194-90.924 42.194h-496c-44.112 0-80-35.888-80-80v-864c0-44.112 35.888-80 80-80h736c44.112 0 80 35.888 80 80v624c0 14.332-4.372 39.35-42.194 90.924zM785.374 785.374c30.7-30.7 54.8-58.398 72.58-81.374h-153.954v153.946c22.984-17.78 50.678-41.878 81.374-72.572zM896 16c0-8.672-7.328-16-16-16h-736c-8.672 0-16 7.328-16 16v864c0 8.672 7.328 16 16 16 0 0 495.956 0.002 496 0v-224c0-17.672 14.326-32 32-32h224v-624zM736 128h-448c-17.672 0-32 14.326-32 32s14.328 32 32 32h448c17.674 0 32-14.326 32-32s-14.326-32-32-32zM736 256h-448c-17.672 0-32 14.326-32 32s14.328 32 32 32h448c17.674 0 32-14.326 32-32s-14.326-32-32-32zM736 384h-448c-17.672 0-32 14.326-32 32s14.328 32 32 32h448c17.674 0 32-14.326 32-32s-14.326-32-32-32z" />
<glyph unicode="&#xe93c;" glyph-name="price-tag" d="M976 960h-384c-26.4 0-63.274-15.274-81.942-33.942l-476.116-476.116c-18.668-18.668-18.668-49.214 0-67.882l412.118-412.118c18.668-18.668 49.214-18.668 67.882 0l476.118 476.118c18.666 18.666 33.94 55.54 33.94 81.94v384c0 26.4-21.6 48-48 48zM736 576c-53.020 0-96 42.98-96 96s42.98 96 96 96 96-42.98 96-96-42.98-96-96-96z" />
<glyph unicode="&#xe93d;" glyph-name="copy-info" horiz-adv-x="967" d="M151.273 738.909h-72.727c-40.136 0-72.727-32.591-72.727-72.727v-654.545c0-40.136 32.591-72.727 72.727-72.727h581.818c40.136 0 72.727 32.591 72.727 72.727v72.727h-581.818v654.545zM660.364 957.091v-290.909h290.909zM587.636 593.455v363.636h-290.909c-40.136 0-72.727-32.591-72.727-72.727v-727.273h654.545c40.136 0 72.727 32.591 72.727 72.727v363.636h-363.636z" />
<glyph unicode="&#xe93e;" glyph-name="powerBi" horiz-adv-x="991" d="M323.522 164.311c0-32.061-26.231-61.207-61.207-61.207s-61.207 26.232-61.207 61.207v262.315c0 32.061 26.231 61.207 61.207 61.207s61.207-26.232 61.207-61.207v-262.315zM498.398 94.361c0-32.061-26.232-61.207-61.207-61.207s-58.292 26.231-58.292 61.207v399.302c0 32.061 26.232 61.207 61.207 61.207s61.207-26.231 61.207-61.207v-399.302h-2.915zM145.731 222.603c0-32.061-26.231-61.207-61.207-61.207s-61.207 26.232-61.207 61.207v142.816c0 32.061 26.231 61.207 61.207 61.207s61.207-29.146 61.207-61.207v-142.816zM673.275 30.239c0-32.061-26.231-61.207-61.207-61.207-32.061 0-58.292 29.146-58.292 61.207v530.459c0 32.061 26.231 61.207 61.207 61.207 32.061 0 61.207-26.232 61.207-61.207v-530.459h-2.915zM865.639 56.471c-11.658 0-20.402 2.915-32.061 5.829l-72.865 23.317c-11.658 2.915-20.402 17.488-14.573 29.146 2.915 11.658 17.488 20.402 29.146 14.573l75.78-23.317c14.573-5.829 32.061-2.915 46.634 8.744 14.573 8.744 20.402 26.232 20.402 40.805v486.74c0 23.317-14.573 43.719-34.975 49.548l-714.080 215.681c-14.573 5.829-32.061 2.915-46.634-5.829-11.658-11.658-20.402-26.231-20.402-43.719v-335.18c0-14.573-11.658-23.317-23.317-23.317-14.573 0-23.317 11.658-23.317 23.317v335.18c0 32.061 14.573 61.207 40.805 78.694 26.231 20.402 58.292 23.317 87.438 14.573l711.165-215.681c40.805-11.658 69.951-52.463 69.951-96.182v-486.74c0-32.061-14.573-61.207-40.805-81.609-17.488-5.829-37.89-14.573-58.292-14.573z" />
<glyph unicode="&#xe93f;" glyph-name="np_url_1376669_000000" d="M500.113 859.952c-55.946 56.757-131.028 90.703-210.598 95.189-77.081 5.676-152.756-22.486-207.402-77.135-54.648-54.594-82.865-130.271-77.243-207.346 4.487-79.568 38.378-154.652 95.189-210.598l124.541-124.541c16.324-15.244 41.837-14.811 57.676 1.027 15.783 15.783 16.217 41.298 0.973 57.622l-124.541 124.541c-42.216 41.406-67.513 97.081-70.973 156.105-4.432 53.568 14.973 106.432 53.027 144.439 38 38.054 90.865 57.459 144.439 53.027 59.027-3.459 114.703-28.756 156.105-70.973l124.541-124.541c7.676-8.27 18.378-13.027 29.621-13.243 11.297-0.162 22.109 4.216 30.108 12.162 7.946 8 12.324 18.811 12.167 30.108-0.221 11.243-4.977 21.945-13.248 29.621l-124.383 124.535zM1019.129 225.349c-4.487 79.568-38.432 154.652-95.189 210.598l-124.541 124.541c-16.324 15.244-41.837 14.811-57.676-1.027-15.783-15.783-16.217-41.298-0.973-57.622l124.541-124.541c42.216-41.406 67.513-97.081 70.973-156.105 4.432-53.568-14.973-106.432-53.027-144.439-38-38.054-90.865-57.459-144.439-53.027-59.027 3.459-114.703 28.756-156.105 70.973l-124.541 124.541c-7.676 8.27-18.378 13.027-29.621 13.243-11.297 0.162-22.109-4.216-30.108-12.162-7.946-8-12.324-18.811-12.167-30.108 0.221-11.243 4.977-21.945 13.248-29.621l124.541-124.541c55.946-56.757 131.028-90.703 210.598-95.189h15.352c74.486-1.243 146.003 28.918 197.189 83.027 51.189 54.053 77.297 127.189 71.946 201.465v-0.006zM274.806 685.194c-16.163-16.217-16.163-42.486 0-58.703l415.135-415.135c16.378-15.244 41.837-14.757 57.676 1.027 15.783 15.837 16.271 41.298 1.027 57.676l-415.135 415.135c-16.217 16.163-42.486 16.163-58.703 0v0z" />
<glyph unicode="&#xe940;" glyph-name="non-active" d="M992-64h-960c-19.2 0-32 12.8-32 32v960c0 19.2 12.8 32 32 32s32-12.8 32-32v-928h928c19.2 0 32-12.8 32-32s-12.8-32-32-32zM230.4 176c-9.6 0-19.2 3.2-25.6 12.8-12.8 12.8-9.6 35.2 3.2 44.8l204.8 176c12.8 9.6 28.8 9.6 41.6 0l118.4-99.2 345.6 291.2c12.8 12.8 35.2 9.6 44.8-3.2 12.8-12.8 9.6-35.2-3.2-44.8l-364.8-310.4c-12.8-9.6-28.8-9.6-41.6 0l-118.4 99.2-185.6-156.8c-6.4-6.4-12.8-9.6-19.2-9.6z" />
<glyph unicode="&#xe941;" glyph-name="non-active1" d="M992-64h-960c-19.2 0-32 12.8-32 32v960c0 19.2 12.8 32 32 32s32-12.8 32-32v-928h928c19.2 0 32-12.8 32-32s-12.8-32-32-32zM224 176c-19.2 0-32 12.8-32 32v294.4c0 19.2 12.8 32 32 32s32-12.8 32-32v-294.4c0-19.2-12.8-32-32-32zM608 176c-19.2 0-32 12.8-32 32v294.4c0 19.2 12.8 32 32 32s32-12.8 32-32v-294.4c0-19.2-12.8-32-32-32zM416 176c-19.2 0-32 12.8-32 32v480c0 19.2 12.8 32 32 32s32-12.8 32-32v-480c0-19.2-12.8-32-32-32zM800 176c-19.2 0-32 12.8-32 32v480c0 19.2 12.8 32 32 32s32-12.8 32-32v-480c0-19.2-12.8-32-32-32z" />
<glyph unicode="&#xe942;" glyph-name="active" d="M680.96 480.064h-141.312v154.117h-55.296v-154.117h-140.288v-54.82h140.288v-155.152h55.296v155.152h141.312zM398.335 227.685h-126.976v138.602h-47.104v-138.602h-125.952v-42.408h125.952v-138.602h47.104v138.602h126.976zM926.72 722.099h-125.952v139.636h-47.104v-139.636h-126.976v-41.374h126.976v-138.602h47.104v138.602h125.952zM492.549 170.798v-97.228h-85.002v-37.247h85.002v-96.184h40.95v96.184h86.016v37.247h-86.016v97.228zM398.335 722.099h-128v139.636h-45.056v-139.636h-126.976v-40.339h126.976v-139.636h45.056v139.636h128zM898.053 566.946v-96.194h-86.026v-37.236h86.026v-96.194h39.926v96.194h86.016v37.236h-86.016v96.194zM926.72 227.685h-125.952v138.602h-47.104v-138.602h-126.976v-42.408h126.976v-138.602h47.104v138.602h125.952zM497.664 959.995v-94.115h-83.968v-28.972h83.968v-95.16h30.72v95.16h84.992v28.972h-84.992v94.115zM84.99 559.713v-92.057h-84.992v-30.006h84.992v-93.091h29.706v93.091l84.992 1.045v28.962h-84.992v92.057z" />
<glyph unicode="&#xe943;" glyph-name="report-settings" d="M272.262 473.107l61.048-10.345c1.619-4.381 3.428-8.714 5.405-12.988l-35.833-50.512c-5.548-7.809-4.667-18.381 2.095-25.107l44.905-44.905c6.714-6.738 17.262-7.679 25.119-2.131l50.5 35.869c4.262-1.976 8.595-3.774 13-5.405l10.357-60.952c1.524-9.488 9.619-16.369 19.238-16.369h63.548c9.571 0 17.667 6.857 19.262 16.274l10.333 61.048c4.405 1.619 8.738 3.428 13.024 5.405l50.476-35.857c7.809-5.583 18.357-4.678 25.119 2.095l44.952 44.952c6.738 6.762 7.595 17.31 2.071 25.083l-35.857 50.512c1.976 4.262 3.762 8.595 5.405 12.988l61.024 10.345c9.429 1.559 16.286 9.655 16.286 19.25v63.548c0 9.583-6.833 17.667-16.262 19.25l-61.048 10.345c-1.643 4.393-3.428 8.738-5.405 13l35.857 50.5c5.524 7.786 4.667 18.333-2.095 25.119l-44.928 44.928c-6.762 6.738-17.333 7.667-25.095 2.095l-50.5-35.869c-4.286 1.988-8.643 3.798-13.024 5.417l-10.333 61.036c-1.595 9.429-9.69 16.274-19.262 16.274h-63.548c-9.619 0-17.714-6.881-19.238-16.262l-10.357-61.048c-4.381-1.631-8.714-3.428-13-5.417l-50.5 35.881c-7.809 5.536-18.357 4.631-25.095-2.107l-44.905-44.905c-6.786-6.75-7.69-17.321-2.143-25.143l35.857-50.512c-1.976-4.262-3.786-8.607-5.405-12.988l-60.976-10.345c-9.476-1.548-16.333-9.655-16.333-19.25v-63.548c0-9.595 6.857-17.702 16.262-19.249zM424.548 524.131c0 20.131 7.833 39.048 22.071 53.274 14.024 14.024 33.452 22.071 53.262 22.071s39.238-8.048 53.262-22.071c14.238-14.238 22.071-33.167 22.071-53.274 0-19.81-8.048-39.226-22.071-53.262-28.214-28.262-78.262-28.262-106.524 0-14.238 14.226-22.071 33.143-22.071 53.262zM24.445 0.434h911.11c13.266 0 24 10.734 24 24s-10.734 24-24 24h-887.11v887.133c0 13.266-10.734 24-24 24s-24-10.734-24-24v-911.133c0-13.266 10.734-24 24-24z" />
<glyph unicode="&#xe944;" glyph-name="help-outline" d="M469.333 192h85.333v85.333h-85.333v-85.333zM512 874.667c-235.52 0-426.667-191.147-426.667-426.667s191.147-426.667 426.667-426.667c235.52 0 426.667 191.147 426.667 426.667s-191.147 426.667-426.667 426.667zM512 106.667c-188.16 0-341.333 153.173-341.333 341.333s153.173 341.333 341.333 341.333c188.16 0 341.333-153.173 341.333-341.333s-153.173-341.333-341.333-341.333zM512 704c-94.293 0-170.667-76.373-170.667-170.667h85.333c0 46.933 38.4 85.333 85.333 85.333s85.333-38.4 85.333-85.333c0-85.333-128-74.667-128-213.333h85.333c0 96 128 106.667 128 213.333 0 94.293-76.373 170.667-170.667 170.667z" />
<glyph unicode="&#xe945;" glyph-name="settings-outline" d="M829.013 406.187c1.707 13.653 2.987 27.307 2.987 41.813s-1.28 28.16-2.987 41.813l90.027 70.4c8.107 6.4 10.24 17.92 5.12 27.307l-85.333 147.627c-3.84 6.827-11.093 10.667-18.773 10.667-2.56 0-5.12-0.427-7.253-1.28l-106.24-42.667c-22.187 17.067-46.080 31.147-72.107 41.813l-16.213 113.067c-1.28 10.24-10.24 17.92-20.907 17.92h-170.667c-10.667 0-19.627-7.68-20.907-17.92l-16.213-113.067c-26.027-10.667-49.92-25.173-72.107-41.813l-106.24 42.667c-2.56 0.853-5.12 1.28-7.68 1.28-7.253 0-14.507-3.84-18.347-10.667l-85.333-147.627c-5.547-9.387-2.987-20.907 5.12-27.307l90.027-70.4c-1.707-13.653-2.987-27.733-2.987-41.813s1.28-28.16 2.987-41.813l-90.027-70.4c-8.107-6.4-10.24-17.92-5.12-27.307l85.333-147.627c3.84-6.827 11.093-10.667 18.773-10.667 2.56 0 5.12 0.427 7.253 1.28l106.24 42.667c22.187-17.067 46.080-31.147 72.107-41.813l16.213-113.067c1.28-10.24 10.24-17.92 20.907-17.92h170.667c10.667 0 19.627 7.68 20.907 17.92l16.213 113.067c26.027 10.667 49.92 25.173 72.107 41.813l106.24-42.667c2.56-0.853 5.12-1.28 7.68-1.28 7.253 0 14.507 3.84 18.347 10.667l85.333 147.627c5.12 9.387 2.987 20.907-5.12 27.307l-90.027 70.4zM744.533 479.147c1.707-13.227 2.133-22.187 2.133-31.147s-0.853-18.347-2.133-31.147l-5.973-48.213 37.973-29.867 46.080-35.84-29.867-51.627-54.187 21.76-44.373 17.92-38.4-29.013c-18.347-13.653-35.84-23.893-53.333-31.147l-45.227-18.347-6.827-48.213-8.533-57.6h-59.733l-8.107 57.6-6.827 48.213-45.227 18.347c-18.347 7.68-35.413 17.493-52.48 30.293l-38.827 29.867-45.227-18.347-54.187-21.76-29.867 51.627 46.080 35.84 37.973 29.867-5.973 48.213c-1.28 13.227-2.133 23.040-2.133 31.573s0.853 18.347 2.133 31.147l5.973 48.213-37.973 29.867-46.080 35.84 29.867 51.627 54.187-21.76 44.373-17.92 38.4 29.013c18.347 13.653 35.84 23.893 53.333 31.147l45.227 18.347 6.827 48.213 8.533 57.6h59.307l8.107-57.6 6.827-48.213 45.227-18.347c18.347-7.68 35.413-17.493 52.48-30.293l38.827-29.867 45.227 18.347 54.187 21.76 29.867-51.627-45.653-36.267-37.973-29.867 5.973-48.213zM512 618.667c-94.293 0-170.667-76.373-170.667-170.667s76.373-170.667 170.667-170.667c94.293 0 170.667 76.373 170.667 170.667s-76.373 170.667-170.667 170.667zM512 362.667c-46.933 0-85.333 38.4-85.333 85.333s38.4 85.333 85.333 85.333c46.933 0 85.333-38.4 85.333-85.333s-38.4-85.333-85.333-85.333z" />
<glyph unicode="&#xe946;" glyph-name="pushpin" d="M544 960l-96-96 96-96-224-256h-224l176-176-272-360.616v-39.384h39.384l360.616 272 176-176v224l256 224 96-96 96 96-480 480zM448 416l-64 64 224 224 64-64-224-224z" />
<glyph unicode="&#xe947;" glyph-name="location" d="M512 960c-176.732 0-320-143.268-320-320 0-320 320-704 320-704s320 384 320 704c0 176.732-143.27 320-320 320zM512 448c-106.040 0-192 85.96-192 192s85.96 192 192 192 192-85.96 192-192-85.96-192-192-192z" />
<glyph unicode="&#xe94d;" glyph-name="history" horiz-adv-x="1088" d="M640 896c247.424 0 448-200.576 448-448s-200.576-448-448-448v96c94.024 0 182.418 36.614 248.902 103.098s103.098 154.878 103.098 248.902c0 94.022-36.614 182.418-103.098 248.902s-154.878 103.098-248.902 103.098c-94.022 0-182.418-36.614-248.902-103.098-51.14-51.138-84.582-115.246-97.306-184.902h186.208l-224-256-224 256h164.57c31.060 217.102 217.738 384 443.43 384zM832 512v-128h-256v320h128v-192z" />
<glyph unicode="&#xe94e;" glyph-name="clock" d="M658.744 210.744l-210.744 210.746v282.51h128v-229.49l173.256-173.254zM512 960c-282.77 0-512-229.23-512-512s229.23-512 512-512 512 229.23 512 512-229.23 512-512 512zM512 64c-212.078 0-384 171.922-384 384s171.922 384 384 384c212.078 0 384-171.922 384-384s-171.922-384-384-384z" />
<glyph unicode="&#xe94f;" glyph-name="clock2" d="M512 960c-282.77 0-512-229.23-512-512s229.23-512 512-512 512 229.23 512 512-229.23 512-512 512zM658.744 210.744l-210.744 210.746v282.51h128v-229.49l173.256-173.254-90.512-90.512z" />
<glyph unicode="&#xe951;" glyph-name="bell" d="M1025.5 160c0 288-256 224-256 448 0 18.56-1.788 34.42-5.048 47.928-16.83 113.018-92.156 203.72-189.772 231.36 0.866 3.948 1.32 8.032 1.32 12.21 0 33.278-28.8 60.502-64 60.502s-64-27.224-64-60.5c0-4.18 0.456-8.264 1.32-12.21-109.47-30.998-190.914-141.298-193.254-273.442-0.040-1.92-0.066-3.864-0.066-5.846 0-224.002-256-160.002-256-448.002 0-76.226 170.59-139.996 398.97-156.080 21.524-40.404 64.056-67.92 113.030-67.92s91.508 27.516 113.030 67.92c228.38 16.084 398.97 79.854 398.97 156.080 0 0.228-0.026 0.456-0.028 0.682l1.528-0.682zM826.246 105.904c-54.23-14.47-118.158-24.876-186.768-30.648-5.704 65.418-60.582 116.744-127.478 116.744s-121.774-51.326-127.478-116.744c-68.608 5.772-132.538 16.178-186.768 30.648-74.63 19.914-110.31 42.19-123.368 54.096 13.058 11.906 48.738 34.182 123.368 54.096 86.772 23.152 198.372 35.904 314.246 35.904s227.474-12.752 314.246-35.904c74.63-19.914 110.31-42.19 123.368-54.096-13.058-11.906-48.738-34.182-123.368-54.096z" />
<glyph unicode="&#xe953;" glyph-name="calendar" d="M320 576h128v-128h-128zM512 576h128v-128h-128zM704 576h128v-128h-128zM128 192h128v-128h-128zM320 192h128v-128h-128zM512 192h128v-128h-128zM320 384h128v-128h-128zM512 384h128v-128h-128zM704 384h128v-128h-128zM128 384h128v-128h-128zM832 960v-64h-128v64h-448v-64h-128v64h-128v-1024h960v1024h-128zM896 0h-832v704h832v-704z" />
<glyph unicode="&#xe955;" glyph-name="keyboard" horiz-adv-x="1152" d="M1088 832h-1024c-35.2 0-64-28.8-64-64v-640c0-35.2 28.8-64 64-64h1024c35.2 0 64 28.8 64 64v640c0 35.2-28.8 64-64 64zM640 704h128v-128h-128v128zM832 512v-128h-128v128h128zM448 704h128v-128h-128v128zM640 512v-128h-128v128h128zM256 704h128v-128h-128v128zM448 512v-128h-128v128h128zM128 704h64v-128h-64v128zM128 512h128v-128h-128v128zM192 192h-64v128h64v-128zM768 192h-512v128h512v-128zM1024 192h-192v128h192v-128zM1024 384h-128v128h128v-128zM1024 576h-192v128h192v-128z" />
<glyph unicode="&#xe95c;" glyph-name="drawer" d="M1016.988 307.99l-256 320c-6.074 7.592-15.266 12.010-24.988 12.010h-448c-9.72 0-18.916-4.418-24.988-12.010l-256-320c-4.538-5.674-7.012-12.724-7.012-19.99v-288c0-35.346 28.654-64 64-64h896c35.348 0 64 28.654 64 64v288c0 7.266-2.472 14.316-7.012 19.99zM960 256h-224l-128-128h-192l-128 128h-224v20.776l239.38 299.224h417.24l239.38-299.224v-20.776zM736 448h-448c-17.672 0-32 14.328-32 32s14.328 32 32 32h448c17.674 0 32-14.328 32-32s-14.326-32-32-32zM800 320h-576c-17.672 0-32 14.326-32 32s14.328 32 32 32h576c17.674 0 32-14.326 32-32s-14.326-32-32-32z" />
<glyph unicode="&#xe95d;" glyph-name="drawer2" d="M1016.988 307.99l-256 320c-6.074 7.592-15.266 12.010-24.988 12.010h-448c-9.72 0-18.916-4.418-24.988-12.010l-256-320c-4.538-5.674-7.012-12.724-7.012-19.99v-288c0-35.346 28.654-64 64-64h896c35.348 0 64 28.654 64 64v288c0 7.266-2.472 14.316-7.012 19.99zM960 256h-224l-128-128h-192l-128 128h-224v20.776l239.38 299.224h417.24l239.38-299.224v-20.776z" />
<glyph unicode="&#xe95e;" glyph-name="box-add" d="M832 896h-640l-192-192v-672c0-17.674 14.326-32 32-32h960c17.672 0 32 14.326 32 32v672l-192 192zM512 128l-320 256h192v192h256v-192h192l-320-256zM154.51 768l64 64h586.978l64-64h-714.978z" />
<glyph unicode="&#xe95f;" glyph-name="box-remove" d="M832 896h-640l-192-192v-672c0-17.674 14.326-32 32-32h960c17.672 0 32 14.326 32 32v672l-192 192zM640 320v-192h-256v192h-192l320 256 320-256h-192zM154.51 768l64 64h586.976l64-64h-714.976z" />
<glyph unicode="&#xe960;" glyph-name="download" d="M512 384l256 256h-192v256h-128v-256h-192zM744.726 488.728l-71.74-71.742 260.080-96.986-421.066-157.018-421.066 157.018 260.080 96.986-71.742 71.742-279.272-104.728v-256l512-192 512 192v256z" />
<glyph unicode="&#xe961;" glyph-name="upload" d="M448 384h128v256h192l-256 256-256-256h192zM640 528v-98.712l293.066-109.288-421.066-157.018-421.066 157.018 293.066 109.288v98.712l-384-144v-256l512-192 512 192v256z" />
<glyph unicode="&#xe962;" glyph-name="floppy-disk" d="M896 960h-896v-1024h1024v896l-128 128zM512 832h128v-256h-128v256zM896 64h-768v768h64v-320h576v320h74.978l53.022-53.018v-714.982z" />
<glyph unicode="&#xe964;" glyph-name="database" d="M512 960c-282.77 0-512-71.634-512-160v-128c0-88.366 229.23-160 512-160s512 71.634 512 160v128c0 88.366-229.23 160-512 160zM512 416c-282.77 0-512 71.634-512 160v-192c0-88.366 229.23-160 512-160s512 71.634 512 160v192c0-88.366-229.23-160-512-160zM512 128c-282.77 0-512 71.634-512 160v-192c0-88.366 229.23-160 512-160s512 71.634 512 160v192c0-88.366-229.23-160-512-160z" />
<glyph unicode="&#xe965;" glyph-name="undo" d="M512 896c-141.384 0-269.376-57.32-362.032-149.978l-149.968 149.978v-384h384l-143.532 143.522c69.496 69.492 165.492 112.478 271.532 112.478 212.068 0 384-171.924 384-384 0-114.696-50.292-217.636-130.018-288l84.666-96c106.302 93.816 173.352 231.076 173.352 384 0 282.77-229.23 512-512 512z" />
<glyph unicode="&#xe966;" glyph-name="redo" d="M0 384c0-152.924 67.048-290.184 173.35-384l84.666 96c-79.726 70.364-130.016 173.304-130.016 288 0 212.076 171.93 384 384 384 106.042 0 202.038-42.986 271.53-112.478l-143.53-143.522h384v384l-149.97-149.978c-92.654 92.658-220.644 149.978-362.030 149.978-282.77 0-512-229.23-512-512z" />
<glyph unicode="&#xe967;" glyph-name="undo2" d="M761.862-64c113.726 206.032 132.888 520.306-313.862 509.824v-253.824l-384 384 384 384v-248.372c534.962 13.942 594.57-472.214 313.862-775.628z" />
<glyph unicode="&#xe968;" glyph-name="redo2" d="M576 711.628v248.372l384-384-384-384v253.824c-446.75 10.482-427.588-303.792-313.86-509.824-280.712 303.414-221.1 789.57 313.86 775.628z" />
<glyph unicode="&#xe969;" glyph-name="forward" d="M262.14 960c-113.728-206.032-132.89-520.304 313.86-509.824v253.824l384-384-384-384v248.372c-534.96-13.942-594.572 472.214-313.86 775.628z" />
<glyph unicode="&#xe96a;" glyph-name="reply" d="M448 184.372v-248.372l-384 384 384 384v-253.824c446.75-10.48 427.588 303.792 313.862 509.824 280.71-303.414 221.1-789.57-313.862-775.628z" />
<glyph unicode="&#xe96b;" glyph-name="bubble" d="M512 896c282.77 0 512-186.25 512-416 0-229.752-229.23-416-512-416-27.156 0-53.81 1.734-79.824 5.044-109.978-109.978-241.25-129.7-368.176-132.596v26.916c68.536 33.578 128 94.74 128 164.636 0 9.754-0.758 19.33-2.164 28.696-115.796 76.264-189.836 192.754-189.836 323.304 0 229.75 229.23 416 512 416z" />
<glyph unicode="&#xe96c;" glyph-name="bubbles" horiz-adv-x="1152" d="M1088 58.834c0-45.5 26.028-84.908 64-104.184v-15.938c-10.626-1.454-21.472-2.224-32.5-2.224-68.008 0-129.348 28.528-172.722 74.264-26.222-6.982-54.002-10.752-82.778-10.752-159.058 0-288 114.616-288 256s128.942 256 288 256c159.058 0 288-114.616 288-256 0-55.348-19.764-106.592-53.356-148.466-6.824-14.824-10.644-31.312-10.644-48.7zM512 960c278.458 0 504.992-180.614 511.836-405.52-49.182 21.92-103.586 33.52-159.836 33.52-95.56 0-185.816-33.446-254.138-94.178-70.846-62.972-109.862-147.434-109.862-237.822 0-44.672 9.544-87.888 27.736-127.788-5.228-0.126-10.468-0.212-15.736-0.212-27.156 0-53.81 1.734-79.824 5.044-109.978-109.978-241.25-129.7-368.176-132.596v26.916c68.536 33.578 128 94.74 128 164.636 0 9.754-0.758 19.33-2.164 28.696-115.796 76.264-189.836 192.754-189.836 323.304 0 229.75 229.23 416 512 416z" />
<glyph unicode="&#xe96d;" glyph-name="bubbles2" horiz-adv-x="1152" d="M480 960v0c265.096 0 480-173.914 480-388.448s-214.904-388.448-480-388.448c-25.458 0-50.446 1.62-74.834 4.71-103.106-102.694-222.172-121.108-341.166-123.814v25.134c64.252 31.354 116 88.466 116 153.734 0 9.106-0.712 18.048-2.030 26.794-108.558 71.214-177.97 179.988-177.97 301.89 0 214.534 214.904 388.448 480 388.448zM996 89.314c0-55.942 36.314-104.898 92-131.772v-21.542c-103.126 2.318-197.786 18.102-287.142 106.126-21.14-2.65-42.794-4.040-64.858-4.040-95.47 0-183.408 25.758-253.614 69.040 144.674 0.506 281.26 46.854 384.834 130.672 52.208 42.252 93.394 91.826 122.414 147.348 30.766 58.866 46.366 121.582 46.366 186.406 0 10.448-0.45 20.836-1.258 31.168 72.57-59.934 117.258-141.622 117.258-231.676 0-104.488-60.158-197.722-154.24-258.764-1.142-7.496-1.76-15.16-1.76-22.966z" />
<glyph unicode="&#xe96e;" glyph-name="bubble2" d="M512 768c-54.932 0-107.988-8.662-157.694-25.742-46.712-16.054-88.306-38.744-123.628-67.444-66.214-53.798-102.678-122.984-102.678-194.814 0-40.298 11.188-79.378 33.252-116.152 22.752-37.92 56.982-72.586 98.988-100.252 30.356-19.992 50.78-51.948 56.176-87.894 1.8-11.984 2.928-24.088 3.37-36.124 7.47 6.194 14.75 12.846 21.88 19.976 24.154 24.152 56.78 37.49 90.502 37.49 5.368 0 10.762-0.336 16.156-1.024 20.974-2.666 42.398-4.020 63.676-4.020 54.934 0 107.988 8.66 157.694 25.742 46.712 16.054 88.306 38.744 123.628 67.444 66.214 53.796 102.678 122.984 102.678 194.814s-36.464 141.016-102.678 194.814c-35.322 28.698-76.916 51.39-123.628 67.444-49.706 17.080-102.76 25.742-157.694 25.742zM512 896v0c282.77 0 512-186.25 512-416 0-229.752-229.23-416-512-416-27.156 0-53.81 1.734-79.824 5.044-109.978-109.978-241.25-129.7-368.176-132.596v26.916c68.536 33.578 128 94.74 128 164.636 0 9.754-0.758 19.33-2.164 28.696-115.796 76.264-189.836 192.754-189.836 323.304 0 229.75 229.23 416 512 416z" />
<glyph unicode="&#xe96f;" glyph-name="bubbles3" horiz-adv-x="1152" d="M1088 58.834c0-45.5 26.028-84.908 64-104.184v-15.938c-10.626-1.454-21.472-2.224-32.5-2.224-68.008 0-129.348 28.528-172.722 74.264-26.222-6.982-54.002-10.752-82.778-10.752-159.058 0-288 114.616-288 256s128.942 256 288 256c159.058 0 288-114.616 288-256 0-55.348-19.764-106.592-53.356-148.466-6.824-14.824-10.644-31.312-10.644-48.7zM230.678 738.814c-66.214-53.798-102.678-122.984-102.678-194.814 0-40.298 11.188-79.378 33.252-116.15 22.752-37.92 56.982-72.586 98.988-100.252 30.356-19.992 50.78-51.948 56.176-87.894 1.8-11.984 2.928-24.088 3.37-36.124 7.47 6.194 14.75 12.846 21.88 19.976 24.154 24.152 56.78 37.49 90.502 37.49 5.368 0 10.762-0.336 16.156-1.024 20.948-2.662 42.344-4.016 63.594-4.020v-128c-27.128 0.002-53.754 1.738-79.742 5.042-109.978-109.978-241.25-129.7-368.176-132.596v26.916c68.536 33.578 128 94.74 128 164.636 0 9.754-0.758 19.33-2.164 28.696-115.796 76.264-189.836 192.754-189.836 323.304 0 229.75 229.23 416 512 416 278.458 0 504.992-180.614 511.836-405.52-41.096 18.316-85.84 29.422-132.262 32.578-11.53 56.068-45.402 108.816-98.252 151.756-35.322 28.698-76.916 51.39-123.628 67.444-49.706 17.080-102.76 25.742-157.694 25.742-54.932 0-107.988-8.662-157.694-25.742-46.712-16.054-88.306-38.744-123.628-67.444z" />
<glyph unicode="&#xe970;" glyph-name="bubbles4" horiz-adv-x="1152" d="M480 832c-50.666 0-99.582-7.95-145.386-23.628-42.924-14.694-81.114-35.436-113.502-61.646-60.044-48.59-93.112-110.802-93.112-175.174 0-35.99 10.066-70.948 29.92-103.898 20.686-34.34 51.898-65.794 90.26-90.958 30.44-19.968 50.936-51.952 56.362-87.95 0.902-5.99 1.63-12.006 2.18-18.032 2.722 2.52 5.424 5.114 8.114 7.794 24.138 24.040 56.688 37.312 90.322 37.312 5.348 0 10.718-0.336 16.094-1.018 19.36-2.452 39.124-3.696 58.748-3.696 50.666 0 99.58 7.948 145.384 23.628 42.926 14.692 81.116 35.434 113.504 61.644 60.046 48.59 93.112 110.802 93.112 175.174s-33.066 126.582-93.112 175.174c-32.388 26.212-70.578 46.952-113.504 61.646-45.804 15.678-94.718 23.628-145.384 23.628zM480 960v0c265.096 0 480-173.914 480-388.448s-214.904-388.448-480-388.448c-25.458 0-50.446 1.62-74.834 4.71-103.106-102.694-222.172-121.108-341.166-123.814v25.134c64.252 31.354 116 88.466 116 153.734 0 9.106-0.712 18.048-2.030 26.794-108.558 71.214-177.97 179.988-177.97 301.89 0 214.534 214.904 388.448 480 388.448zM996 89.314c0-55.942 36.314-104.898 92-131.772v-21.542c-103.126 2.318-197.786 18.102-287.142 106.126-21.14-2.65-42.794-4.040-64.858-4.040-95.47 0-183.408 25.758-253.614 69.040 144.674 0.506 281.26 46.854 384.834 130.672 52.208 42.252 93.394 91.826 122.414 147.348 30.766 58.866 46.366 121.582 46.366 186.406 0 10.448-0.45 20.836-1.258 31.168 72.57-59.934 117.258-141.622 117.258-231.676 0-104.488-60.158-197.722-154.24-258.764-1.142-7.496-1.76-15.16-1.76-22.966z" />
<glyph unicode="&#xe971;" glyph-name="user" d="M576 253.388v52.78c70.498 39.728 128 138.772 128 237.832 0 159.058 0 288-192 288s-192-128.942-192-288c0-99.060 57.502-198.104 128-237.832v-52.78c-217.102-17.748-384-124.42-384-253.388h896c0 128.968-166.898 235.64-384 253.388z" />
<glyph unicode="&#xe972;" glyph-name="users" horiz-adv-x="1152" d="M768 189.388v52.78c70.498 39.728 128 138.772 128 237.832 0 159.058 0 288-192 288s-192-128.942-192-288c0-99.060 57.502-198.104 128-237.832v-52.78c-217.102-17.748-384-124.42-384-253.388h896c0 128.968-166.898 235.64-384 253.388zM327.196 164.672c55.31 36.15 124.080 63.636 199.788 80.414-15.054 17.784-28.708 37.622-40.492 59.020-30.414 55.234-46.492 116.058-46.492 175.894 0 86.042 0 167.31 30.6 233.762 29.706 64.504 83.128 104.496 159.222 119.488-16.914 76.48-61.94 126.75-181.822 126.75-192 0-192-128.942-192-288 0-99.060 57.502-198.104 128-237.832v-52.78c-217.102-17.748-384-124.42-384-253.388h279.006c14.518 12.91 30.596 25.172 48.19 36.672z" />
<glyph unicode="&#xe973;" glyph-name="user-plus" d="M384 224c0 151.234 95.874 280.486 230.032 330.2 16.28 36.538 25.968 77.164 25.968 117.8 0 159.058 0 288-192 288s-192-128.942-192-288c0-99.060 57.502-198.104 128-237.832v-52.78c-217.102-17.748-384-124.42-384-253.388h397.306c-8.664 30.53-13.306 62.732-13.306 96zM736 512c-159.058 0-288-128.942-288-288s128.942-288 288-288c159.056 0 288 128.942 288 288s-128.942 288-288 288zM896 192h-128v-128h-64v128h-128v64h128v128h64v-128h128v-64z" />
<glyph unicode="&#xe974;" glyph-name="user-minus" d="M384 224c0 151.234 95.874 280.486 230.032 330.2 16.28 36.538 25.968 77.164 25.968 117.8 0 159.058 0 288-192 288s-192-128.942-192-288c0-99.060 57.502-198.104 128-237.832v-52.78c-217.102-17.748-384-124.42-384-253.388h397.306c-8.664 30.53-13.306 62.732-13.306 96zM736 512c-159.058 0-288-128.942-288-288s128.942-288 288-288c159.056 0 288 128.942 288 288s-128.942 288-288 288zM896 192h-320v64h320v-64z" />
<glyph unicode="&#xe975;" glyph-name="user-check" d="M960 352l-288-288-96 96-64-64 160-160 352 352zM448 192h320v115.128c-67.22 39.2-156.308 66.11-256 74.26v52.78c70.498 39.728 128 138.772 128 237.832 0 159.058 0 288-192 288s-192-128.942-192-288c0-99.060 57.502-198.104 128-237.832v-52.78c-217.102-17.748-384-124.42-384-253.388h448v64z" />
<glyph unicode="&#xe97a;" glyph-name="spinner" d="M384 832c0 70.692 57.308 128 128 128s128-57.308 128-128c0-70.692-57.308-128-128-128s-128 57.308-128 128zM655.53 719.53c0 70.692 57.308 128 128 128s128-57.308 128-128c0-70.692-57.308-128-128-128s-128 57.308-128 128zM832 448c0 35.346 28.654 64 64 64s64-28.654 64-64c0-35.346-28.654-64-64-64s-64 28.654-64 64zM719.53 176.47c0 35.346 28.654 64 64 64s64-28.654 64-64c0-35.346-28.654-64-64-64s-64 28.654-64 64zM448.002 64c0 0 0 0 0 0 0 35.346 28.654 64 64 64s64-28.654 64-64c0 0 0 0 0 0 0-35.346-28.654-64-64-64s-64 28.654-64 64zM176.472 176.47c0 0 0 0 0 0 0 35.346 28.654 64 64 64s64-28.654 64-64c0 0 0 0 0 0 0-35.346-28.654-64-64-64s-64 28.654-64 64zM144.472 719.53c0 0 0 0 0 0 0 53.019 42.981 96 96 96s96-42.981 96-96c0 0 0 0 0 0 0-53.019-42.981-96-96-96s-96 42.981-96 96zM56 448c0 39.765 32.235 72 72 72s72-32.235 72-72c0-39.765-32.235-72-72-72s-72 32.235-72 72z" />
<glyph unicode="&#xe97b;" glyph-name="spinner2" d="M1024 448c-1.278 66.862-15.784 133.516-42.576 194.462-26.704 61-65.462 116.258-113.042 161.92-47.552 45.696-103.944 81.82-164.984 105.652-61.004 23.924-126.596 35.352-191.398 33.966-64.81-1.282-129.332-15.374-188.334-41.356-59.048-25.896-112.542-63.47-156.734-109.576-44.224-46.082-79.16-100.708-102.186-159.798-23.114-59.062-34.128-122.52-32.746-185.27 1.286-62.76 14.964-125.148 40.134-182.206 25.088-57.1 61.476-108.828 106.11-151.548 44.61-42.754 97.472-76.504 154.614-98.72 57.118-22.304 118.446-32.902 179.142-31.526 60.708 1.29 120.962 14.554 176.076 38.914 55.15 24.282 105.116 59.48 146.366 102.644 41.282 43.14 73.844 94.236 95.254 149.43 13.034 33.458 21.88 68.4 26.542 103.798 1.246-0.072 2.498-0.12 3.762-0.12 35.346 0 64 28.652 64 64 0 1.796-0.094 3.572-0.238 5.332h0.238zM922.306 278.052c-23.472-53.202-57.484-101.4-99.178-141.18-41.67-39.81-91-71.186-144.244-91.79-53.228-20.678-110.29-30.452-166.884-29.082-56.604 1.298-112.596 13.736-163.82 36.474-51.25 22.666-97.684 55.49-135.994 95.712-38.338 40.198-68.528 87.764-88.322 139.058-19.87 51.284-29.228 106.214-27.864 160.756 1.302 54.552 13.328 108.412 35.254 157.69 21.858 49.3 53.498 93.97 92.246 130.81 38.73 36.868 84.53 65.87 133.874 84.856 49.338 19.060 102.136 28.006 154.626 26.644 52.5-1.306 104.228-12.918 151.562-34.034 47.352-21.050 90.256-51.502 125.624-88.782 35.396-37.258 63.21-81.294 81.39-128.688 18.248-47.392 26.782-98.058 25.424-148.496h0.238c-0.144-1.76-0.238-3.536-0.238-5.332 0-33.012 24.992-60.174 57.086-63.624-6.224-34.822-16.53-68.818-30.78-100.992z" />
<glyph unicode="&#xe97c;" glyph-name="spinner3" d="M512 656.904c-32.964 0-59.686 26.724-59.686 59.686v179.060c0 32.964 26.722 59.686 59.686 59.686 32.962 0 59.688-26.722 59.688-59.686v-179.060c0-32.964-26.726-59.686-59.688-59.686zM512-36.956c-20.602 0-37.304 16.702-37.304 37.304v179.060c0 20.602 16.702 37.304 37.304 37.304 20.604 0 37.304-16.704 37.304-37.304v-179.060c0-20.602-16.7-37.304-37.304-37.304zM377.756 624.64c-19.34 0-38.146 10.034-48.512 27.988l-89.53 155.070c-15.452 26.764-6.282 60.986 20.482 76.438 26.762 15.45 60.986 6.284 76.438-20.482l89.53-155.072c15.452-26.764 6.282-60.986-20.482-76.438-8.81-5.084-18.432-7.504-27.926-7.504zM735.856 26.744c-11.602 0-22.886 6.022-29.108 16.792l-89.53 155.070c-9.27 16.056-3.77 36.592 12.29 45.864 16.056 9.264 36.59 3.77 45.864-12.292l89.532-155.068c9.27-16.058 3.768-36.592-12.292-45.864-5.286-3.048-11.060-4.502-16.756-4.502zM279.344 530.060c-8.86 0-17.838 2.256-26.064 7.006l-155.072 89.53c-24.978 14.422-33.538 46.362-19.116 71.342 14.42 24.978 46.364 33.538 71.342 19.116l155.070-89.53c24.98-14.422 33.538-46.362 19.116-71.34-9.668-16.756-27.226-26.124-45.276-26.124zM899.648 194.326c-5.064 0-10.196 1.29-14.894 4.004l-155.068 89.53c-14.274 8.24-19.164 26.494-10.924 40.768 8.242 14.276 26.496 19.166 40.766 10.924l155.070-89.532c14.274-8.24 19.164-26.492 10.924-40.766-5.53-9.574-15.562-14.928-25.874-14.928zM243.41 399.504h-179.060c-26.784 0-48.496 21.712-48.496 48.496s21.712 48.496 48.496 48.496h179.060c26.784 0 48.496-21.712 48.496-48.496s-21.712-48.496-48.496-48.496zM959.65 418.156c-0.002 0 0 0 0 0h-179.060c-16.482 0.002-29.844 13.364-29.844 29.844s13.364 29.844 29.844 29.844c0.002 0 0 0 0 0h179.060c16.482 0 29.844-13.362 29.844-29.844 0-16.48-13.364-29.844-29.844-29.844zM124.366 179.402c-15.472 0-30.518 8.028-38.81 22.39-12.362 21.41-5.026 48.79 16.384 61.148l155.072 89.532c21.41 12.368 48.79 5.028 61.15-16.384 12.362-21.412 5.026-48.79-16.384-61.15l-155.072-89.53c-7.050-4.070-14.748-6.006-22.34-6.006zM744.632 552.448c-10.314 0-20.346 5.352-25.874 14.926-8.24 14.274-3.35 32.526 10.924 40.768l155.070 89.528c14.272 8.236 32.526 3.352 40.768-10.922 8.24-14.274 3.35-32.526-10.924-40.768l-155.070-89.528c-4.7-2.714-9.83-4.004-14.894-4.004zM288.136 19.284c-6.962 0-14.016 1.774-20.48 5.504-19.626 11.332-26.35 36.428-15.020 56.054l89.53 155.070c11.33 19.628 36.426 26.352 56.054 15.022 19.626-11.332 26.35-36.43 15.020-56.054l-89.53-155.072c-7.598-13.166-21.392-20.524-35.574-20.524zM646.266 650.758c-5.062 0-10.196 1.29-14.894 4.002-14.274 8.242-19.164 26.494-10.924 40.766l89.534 155.070c8.24 14.274 26.492 19.166 40.766 10.922 14.274-8.242 19.164-26.494 10.924-40.766l-89.532-155.070c-5.53-9.57-15.56-14.924-25.874-14.924z" />
<glyph unicode="&#xe97d;" glyph-name="spinner4" d="M192 448c0 12.18 0.704 24.196 2.030 36.022l-184.98 60.104c-5.916-31.14-9.050-63.264-9.050-96.126 0-147.23 62.166-279.922 161.654-373.324l114.284 157.296c-52.124 56.926-83.938 132.758-83.938 216.028zM832 448c0-83.268-31.812-159.102-83.938-216.028l114.284-157.296c99.488 93.402 161.654 226.094 161.654 373.324 0 32.862-3.132 64.986-9.048 96.126l-184.98-60.104c1.324-11.828 2.028-23.842 2.028-36.022zM576 761.592c91.934-18.662 169.544-76.742 214.45-155.826l184.978 60.102c-73.196 155.42-222.24 268.060-399.428 290.156v-194.432zM233.55 605.768c44.906 79.084 122.516 137.164 214.45 155.826v194.43c-177.188-22.096-326.23-134.736-399.426-290.154l184.976-60.102zM644.556 156.672c-40.39-18.408-85.272-28.672-132.556-28.672s-92.166 10.264-132.554 28.67l-114.292-157.31c73.206-40.366 157.336-63.36 246.846-63.36s173.64 22.994 246.848 63.36l-114.292 157.312z" />
<glyph unicode="&#xe97e;" glyph-name="spinner5" d="M512 960c-282.77 0-512-229.23-512-512s229.23-512 512-512 512 229.23 512 512-229.23 512-512 512zM512 704c141.384 0 256-114.616 256-256s-114.616-256-256-256-256 114.616-256 256 114.616 256 256 256zM817.47 142.53c-81.594-81.594-190.080-126.53-305.47-126.53-115.392 0-223.876 44.936-305.47 126.53s-126.53 190.078-126.53 305.47c0 115.39 44.936 223.876 126.53 305.47l67.882-67.882c0 0 0 0 0 0-131.006-131.006-131.006-344.17 0-475.176 63.462-63.462 147.838-98.412 237.588-98.412 89.748 0 174.124 34.95 237.588 98.412 131.006 131.006 131.006 344.168 0 475.176l67.882 67.882c81.594-81.594 126.53-190.080 126.53-305.47 0-115.392-44.936-223.876-126.53-305.47z" />
<glyph unicode="&#xe97f;" glyph-name="spinner6" d="M384 832c0 70.692 57.308 128 128 128s128-57.308 128-128c0-70.692-57.308-128-128-128s-128 57.308-128 128zM790.994 448c0 0 0 0 0 0 0 57.993 47.013 105.006 105.006 105.006s105.006-47.013 105.006-105.006c0 0 0 0 0 0 0-57.993-47.013-105.006-105.006-105.006s-105.006 47.013-105.006 105.006zM688.424 176.47c0 52.526 42.58 95.106 95.106 95.106s95.106-42.58 95.106-95.106c0-52.526-42.58-95.106-95.106-95.106s-95.106 42.58-95.106 95.106zM425.862 64c0 47.573 38.565 86.138 86.138 86.138s86.138-38.565 86.138-86.138c0-47.573-38.565-86.138-86.138-86.138s-86.138 38.565-86.138 86.138zM162.454 176.47c0 43.088 34.93 78.018 78.018 78.018s78.018-34.93 78.018-78.018c0-43.088-34.93-78.018-78.018-78.018s-78.018 34.93-78.018 78.018zM57.338 448c0 39.026 31.636 70.662 70.662 70.662s70.662-31.636 70.662-70.662c0-39.026-31.636-70.662-70.662-70.662s-70.662 31.636-70.662 70.662zM176.472 719.528c0 0 0 0 0 0 0 35.346 28.654 64 64 64s64-28.654 64-64c0 0 0 0 0 0 0-35.346-28.654-64-64-64s-64 28.654-64 64zM899.464 719.528c0-64.024-51.906-115.934-115.936-115.934-64.024 0-115.936 51.91-115.936 115.934 0 64.032 51.912 115.934 115.936 115.934 64.030 0 115.936-51.902 115.936-115.934z" />
<glyph unicode="&#xe980;" glyph-name="spinner7" d="M416 32c0 53.019 42.981 96 96 96s96-42.981 96-96c0-53.019-42.981-96-96-96s-96 42.981-96 96zM0 448c0 53.019 42.981 96 96 96s96-42.981 96-96c0-53.019-42.981-96-96-96s-96 42.981-96 96zM832 448c0 53.019 42.981 96 96 96s96-42.981 96-96c0-53.019-42.981-96-96-96s-96 42.981-96 96zM121.844 742.156c0 53.019 42.981 96 96 96s96-42.981 96-96c0-53.019-42.981-96-96-96s-96 42.981-96 96zM710.156 153.844c0 53.019 42.981 96 96 96s96-42.981 96-96c0-53.019-42.981-96-96-96s-96 42.981-96 96zM121.844 153.844c0 53.019 42.981 96 96 96s96-42.981 96-96c0-53.019-42.981-96-96-96s-96 42.981-96 96zM710.156 742.156c0 53.019 42.981 96 96 96s96-42.981 96-96c0-53.019-42.981-96-96-96s-96 42.981-96 96z" />
<glyph unicode="&#xe981;" glyph-name="spinner8" d="M512-64c-136.76 0-265.334 53.258-362.040 149.96-96.702 96.706-149.96 225.28-149.96 362.040 0 96.838 27.182 191.134 78.606 272.692 50 79.296 120.664 143.372 204.356 185.3l43-85.832c-68.038-34.084-125.492-86.186-166.15-150.67-41.746-66.208-63.812-142.798-63.812-221.49 0-229.382 186.618-416 416-416s416 186.618 416 416c0 78.692-22.066 155.282-63.81 221.49-40.66 64.484-98.114 116.584-166.15 150.67l43 85.832c83.692-41.928 154.358-106.004 204.356-185.3 51.422-81.558 78.604-175.854 78.604-272.692 0-136.76-53.258-265.334-149.96-362.040-96.706-96.702-225.28-149.96-362.040-149.96z" />
<glyph unicode="&#xe984;" glyph-name="spinner11" d="M1024 576h-384l143.53 143.53c-72.53 72.526-168.96 112.47-271.53 112.47s-199-39.944-271.53-112.47c-72.526-72.53-112.47-168.96-112.47-271.53s39.944-199 112.47-271.53c72.53-72.526 168.96-112.47 271.53-112.47s199 39.944 271.528 112.472c6.056 6.054 11.86 12.292 17.456 18.668l96.32-84.282c-93.846-107.166-231.664-174.858-385.304-174.858-282.77 0-512 229.23-512 512s229.23 512 512 512c141.386 0 269.368-57.326 362.016-149.984l149.984 149.984v-384z" />
<glyph unicode="&#xe986;" glyph-name="search" d="M992.262 88.604l-242.552 206.294c-25.074 22.566-51.89 32.926-73.552 31.926 57.256 67.068 91.842 154.078 91.842 249.176 0 212.078-171.922 384-384 384-212.076 0-384-171.922-384-384s171.922-384 384-384c95.098 0 182.108 34.586 249.176 91.844-1-21.662 9.36-48.478 31.926-73.552l206.294-242.552c35.322-39.246 93.022-42.554 128.22-7.356s31.892 92.898-7.354 128.22zM384 320c-141.384 0-256 114.616-256 256s114.616 256 256 256 256-114.616 256-256-114.614-256-256-256z" />
<glyph unicode="&#xe989;" glyph-name="enlarge" d="M1024 960h-416l160-160-192-192 96-96 192 192 160-160zM1024-64v416l-160-160-192 192-96-96 192-192-160-160zM0-64h416l-160 160 192 192-96 96-192-192-160 160zM0 960v-416l160 160 192-192 96 96-192 192 160 160z" />
<glyph unicode="&#xe98a;" glyph-name="shrink" d="M576 512h416l-160 160 192 192-96 96-192-192-160 160zM576 384v-416l160 160 192-192 96 96-192 192 160 160zM448 384.004h-416l160-160-192-192 96-96 192 192 160-160zM448 512v416l-160-160-192 192-96-96 192-192-160-160z" />
<glyph unicode="&#xe98b;" glyph-name="enlarge2" d="M1024 960v-416l-160 160-192-192-96 96 192 192-160 160zM448 288l-192-192 160-160h-416v416l160-160 192 192z" />
<glyph unicode="&#xe98c;" glyph-name="shrink2" d="M448 384v-416l-160 160-192-192-96 96 192 192-160 160zM1024 864l-192-192 160-160h-416v416l160-160 192 192z" />
<glyph unicode="&#xe98d;" glyph-name="key" d="M704 960c-176.73 0-320-143.268-320-320 0-20.026 1.858-39.616 5.376-58.624l-389.376-389.376v-192c0-35.346 28.654-64 64-64h64v64h128v128h128v128h128l83.042 83.042c34.010-12.316 70.696-19.042 108.958-19.042 176.73 0 320 143.268 320 320s-143.27 320-320 320zM799.874 639.874c-53.020 0-96 42.98-96 96s42.98 96 96 96 96-42.98 96-96-42.98-96-96-96z" />
<glyph unicode="&#xe98e;" glyph-name="key2" d="M1002.132 645.758l-101.106 101.104c-24.792 24.794-65.37 65.368-90.162 90.164l-101.106 101.104c-24.792 24.794-68.954 29.166-98.13 9.716l-276.438-184.292c-29.176-19.452-40.218-61.028-24.536-92.39l70.486-140.974c2.154-4.306 4.646-8.896 7.39-13.66l-356.53-356.53-32-224h192v64h128v128h128v128h128v71.186c6.396-3.812 12.534-7.216 18.192-10.044l140.97-70.488c31.366-15.682 72.94-4.638 92.39 24.538l184.294 276.44c19.454 29.172 15.078 73.33-9.714 98.126zM150.628 105.374l-45.254 45.254 311.572 311.57 45.254-45.254-311.572-311.57zM917.020 536.236l-45.256-45.256c-12.446-12.444-32.808-12.444-45.254 0l-271.53 271.53c-12.446 12.444-12.446 32.81 0 45.254l45.256 45.256c12.446 12.444 32.808 12.444 45.254 0l271.53-271.53c12.446-12.444 12.446-32.81 0-45.254z" />
<glyph unicode="&#xe98f;" glyph-name="lock" d="M592 512h-16v192c0 105.87-86.13 192-192 192h-128c-105.87 0-192-86.13-192-192v-192h-16c-26.4 0-48-21.6-48-48v-480c0-26.4 21.6-48 48-48h544c26.4 0 48 21.6 48 48v480c0 26.4-21.6 48-48 48zM192 704c0 35.29 28.71 64 64 64h128c35.29 0 64-28.71 64-64v-192h-256v192z" />
<glyph unicode="&#xe990;" glyph-name="unlocked" d="M768 896c105.87 0 192-86.13 192-192v-192h-128v192c0 35.29-28.71 64-64 64h-128c-35.29 0-64-28.71-64-64v-192h16c26.4 0 48-21.6 48-48v-480c0-26.4-21.6-48-48-48h-544c-26.4 0-48 21.6-48 48v480c0 26.4 21.6 48 48 48h400v192c0 105.87 86.13 192 192 192h128z" />
<glyph unicode="&#xe991;" glyph-name="wrench" d="M1002.934 142.124l-460.552 394.76c21.448 40.298 33.618 86.282 33.618 135.116 0 159.058-128.942 288-288 288-29.094 0-57.172-4.332-83.646-12.354l166.39-166.39c24.89-24.89 24.89-65.62 0-90.51l-101.49-101.49c-24.89-24.89-65.62-24.89-90.51 0l-166.39 166.39c-8.022-26.474-12.354-54.552-12.354-83.646 0-159.058 128.942-288 288-288 48.834 0 94.818 12.17 135.116 33.62l394.76-460.552c22.908-26.724 62.016-28.226 86.904-3.338l101.492 101.492c24.888 24.888 23.386 63.994-3.338 86.902z" />
<glyph unicode="&#xe992;" glyph-name="equalizer" d="M448 832v16c0 26.4-21.6 48-48 48h-160c-26.4 0-48-21.6-48-48v-16h-192v-128h192v-16c0-26.4 21.6-48 48-48h160c26.4 0 48 21.6 48 48v16h576v128h-576zM256 704v128h128v-128h-128zM832 528c0 26.4-21.6 48-48 48h-160c-26.4 0-48-21.6-48-48v-16h-576v-128h576v-16c0-26.4 21.6-48 48-48h160c26.4 0 48 21.6 48 48v16h192v128h-192v16zM640 384v128h128v-128h-128zM448 208c0 26.4-21.6 48-48 48h-160c-26.4 0-48-21.6-48-48v-16h-192v-128h192v-16c0-26.4 21.6-48 48-48h160c26.4 0 48 21.6 48 48v16h576v128h-576v16zM256 64v128h128v-128h-128z" />
<glyph unicode="&#xe993;" glyph-name="equalizer2" d="M896 512h16c26.4 0 48 21.6 48 48v160c0 26.4-21.6 48-48 48h-16v192h-128v-192h-16c-26.4 0-48-21.6-48-48v-160c0-26.4 21.6-48 48-48h16v-576h128v576zM768 704h128v-128h-128v128zM592 128c26.4 0 48 21.6 48 48v160c0 26.4-21.6 48-48 48h-16v576h-128v-576h-16c-26.4 0-48-21.6-48-48v-160c0-26.4 21.6-48 48-48h16v-192h128v192h16zM448 320h128v-128h-128v128zM272 512c26.4 0 48 21.6 48 48v160c0 26.4-21.6 48-48 48h-16v192h-128v-192h-16c-26.4 0-48-21.6-48-48v-160c0-26.4 21.6-48 48-48h16v-576h128v576h16zM128 704h128v-128h-128v128z" />
<glyph unicode="&#xe994;" glyph-name="cog" d="M933.79 349.75c-53.726 93.054-21.416 212.304 72.152 266.488l-100.626 174.292c-28.75-16.854-62.176-26.518-97.846-26.518-107.536 0-194.708 87.746-194.708 195.99h-201.258c0.266-33.41-8.074-67.282-25.958-98.252-53.724-93.056-173.156-124.702-266.862-70.758l-100.624-174.292c28.97-16.472 54.050-40.588 71.886-71.478 53.638-92.908 21.512-211.92-71.708-266.224l100.626-174.292c28.65 16.696 61.916 26.254 97.4 26.254 107.196 0 194.144-87.192 194.7-194.958h201.254c-0.086 33.074 8.272 66.57 25.966 97.218 53.636 92.906 172.776 124.594 266.414 71.012l100.626 174.29c-28.78 16.466-53.692 40.498-71.434 71.228zM512 240.668c-114.508 0-207.336 92.824-207.336 207.334 0 114.508 92.826 207.334 207.336 207.334 114.508 0 207.332-92.826 207.332-207.334-0.002-114.51-92.824-207.334-207.332-207.334z" />
<glyph unicode="&#xe997;" glyph-name="magic-wand" d="M256 768l-128 128h-64v-64l128-128zM320 960h64v-128h-64zM576 640h128v-64h-128zM640 832v64h-64l-128-128 64-64zM0 640h128v-64h-128zM320 384h64v-128h-64zM64 384v-64h64l128 128-64 64zM1010 78l-636.118 636.118c-18.668 18.668-49.214 18.668-67.882 0l-60.118-60.118c-18.668-18.668-18.668-49.214 0-67.882l636.118-636.118c18.668-18.668 49.214-18.668 67.882 0l60.118 60.118c18.668 18.668 18.668 49.214 0 67.882zM480 416l-192 192 64 64 192-192-64-64z" />
<glyph unicode="&#xe999;" glyph-name="bug" d="M1024 384v64h-193.29c-5.862 72.686-31.786 139.026-71.67 192.25h161.944l70.060 280.24-62.090 15.522-57.94-231.76h-174.68c-0.892 0.694-1.796 1.374-2.698 2.056 6.71 19.502 10.362 40.422 10.362 62.194 0.002 105.76-85.958 191.498-191.998 191.498s-192-85.738-192-191.5c0-21.772 3.65-42.692 10.362-62.194-0.9-0.684-1.804-1.362-2.698-2.056h-174.68l-57.94 231.76-62.090-15.522 70.060-280.24h161.944c-39.884-53.222-65.806-119.562-71.668-192.248h-193.29v-64h193.37c3.802-45.664 15.508-88.812 33.638-127.75h-123.992l-70.060-280.238 62.090-15.524 57.94 231.762h112.354c58.692-78.032 147.396-127.75 246.66-127.75s187.966 49.718 246.662 127.75h112.354l57.94-231.762 62.090 15.524-70.060 280.238h-123.992c18.13 38.938 29.836 82.086 33.636 127.75h193.37z" />
<glyph unicode="&#xe99a;" glyph-name="pie-chart" d="M448 384v448c-247.424 0-448-200.576-448-448s200.576-448 448-448 448 200.576 448 448c0 72.034-17.028 140.084-47.236 200.382l-400.764-200.382zM912.764 712.382c-73.552 146.816-225.374 247.618-400.764 247.618v-448l400.764 200.382z" />
<glyph unicode="&#xe99b;" glyph-name="stats-dots" d="M128 64h896v-128h-1024v1024h128zM288 128c-53.020 0-96 42.98-96 96s42.98 96 96 96c2.828 0 5.622-0.148 8.388-0.386l103.192 171.986c-9.84 15.070-15.58 33.062-15.58 52.402 0 53.020 42.98 96 96 96s96-42.98 96-96c0-19.342-5.74-37.332-15.58-52.402l103.192-171.986c2.766 0.238 5.56 0.386 8.388 0.386 2.136 0 4.248-0.094 6.35-0.23l170.356 298.122c-10.536 15.408-16.706 34.036-16.706 54.11 0 53.020 42.98 96 96 96s96-42.98 96-96c0-53.020-42.98-96-96-96-2.14 0-4.248 0.094-6.35 0.232l-170.356-298.124c10.536-15.406 16.706-34.036 16.706-54.11 0-53.020-42.98-96-96-96s-96 42.98-96 96c0 19.34 5.74 37.332 15.578 52.402l-103.19 171.984c-2.766-0.238-5.56-0.386-8.388-0.386s-5.622 0.146-8.388 0.386l-103.192-171.986c9.84-15.068 15.58-33.060 15.58-52.4 0-53.020-42.98-96-96-96z" />
<glyph unicode="&#xe99c;" glyph-name="stats-bars" d="M0 128h1024v-128h-1024zM128 384h128v-192h-128zM320 640h128v-448h-128zM512 448h128v-256h-128zM704 832h128v-640h-128z" />
<glyph unicode="&#xe99d;" glyph-name="stats-bars2" d="M288 576h-192c-17.6 0-32-14.4-32-32v-576c0-17.6 14.4-32 32-32h192c17.6 0 32 14.4 32 32v576c0 17.6-14.4 32-32 32zM288 0h-192v256h192v-256zM608 704h-192c-17.6 0-32-14.4-32-32v-704c0-17.6 14.4-32 32-32h192c17.6 0 32 14.4 32 32v704c0 17.6-14.4 32-32 32zM608 0h-192v320h192v-320zM928 832h-192c-17.6 0-32-14.4-32-32v-832c0-17.6 14.4-32 32-32h192c17.6 0 32 14.4 32 32v832c0 17.6-14.4 32-32 32zM928 0h-192v384h192v-384z" />
<glyph unicode="&#xe9a5;" glyph-name="rocket" d="M704 896l-320-320h-192l-192-256c0 0 203.416 56.652 322.066 30.084l-322.066-414.084 421.902 328.144c58.838-134.654-37.902-328.144-37.902-328.144l256 192v192l320 320 64 320-320-64z" />
<glyph unicode="&#xe9b5;" glyph-name="power" d="M384 960l-384-512h384l-256-512 896 640h-512l384 384z" />
<glyph unicode="&#xe9b6;" glyph-name="switch" d="M640 813.412v-135.958c36.206-15.804 69.5-38.408 98.274-67.18 60.442-60.44 93.726-140.8 93.726-226.274s-33.286-165.834-93.726-226.274c-60.44-60.44-140.798-93.726-226.274-93.726s-165.834 33.286-226.274 93.726c-60.44 60.44-93.726 140.8-93.726 226.274s33.286 165.834 93.726 226.274c28.774 28.774 62.068 51.378 98.274 67.182v135.956c-185.048-55.080-320-226.472-320-429.412 0-247.424 200.578-448 448-448 247.424 0 448 200.576 448 448 0 202.94-134.95 374.332-320 429.412zM448 960h128v-512h-128z" />
<glyph unicode="&#xe9ba;" glyph-name="list" d="M0 960h256v-256h-256zM384 896h640v-128h-640zM0 576h256v-256h-256zM384 512h640v-128h-640zM0 192h256v-256h-256zM384 128h640v-128h-640z" />
<glyph unicode="&#xe9bb;" glyph-name="list2" d="M384 896h640v-128h-640v128zM384 512h640v-128h-640v128zM384 128h640v-128h-640v128zM0 832c0 70.692 57.308 128 128 128s128-57.308 128-128c0-70.692-57.308-128-128-128s-128 57.308-128 128zM0 448c0 70.692 57.308 128 128 128s128-57.308 128-128c0-70.692-57.308-128-128-128s-128 57.308-128 128zM0 64c0 70.692 57.308 128 128 128s128-57.308 128-128c0-70.692-57.308-128-128-128s-128 57.308-128 128z" />
<glyph unicode="&#xe9bc;" glyph-name="tree" d="M976 192h-16v208c0 61.756-50.242 112-112 112h-272v128h16c26.4 0 48 21.6 48 48v160c0 26.4-21.6 48-48 48h-160c-26.4 0-48-21.6-48-48v-160c0-26.4 21.6-48 48-48h16v-128h-272c-61.756 0-112-50.244-112-112v-208h-16c-26.4 0-48-21.6-48-48v-160c0-26.4 21.6-48 48-48h160c26.4 0 48 21.6 48 48v160c0 26.4-21.6 48-48 48h-16v192h256v-192h-16c-26.4 0-48-21.6-48-48v-160c0-26.4 21.6-48 48-48h160c26.4 0 48 21.6 48 48v160c0 26.4-21.6 48-48 48h-16v192h256v-192h-16c-26.4 0-48-21.6-48-48v-160c0-26.4 21.6-48 48-48h160c26.4 0 48 21.6 48 48v160c0 26.4-21.6 48-48 48zM192 0h-128v128h128v-128zM576 0h-128v128h128v-128zM448 704v128h128v-128h-128zM960 0h-128v128h128v-128z" />
<glyph unicode="&#xe9bd;" glyph-name="menu" d="M64 768h896v-192h-896zM64 512h896v-192h-896zM64 256h896v-192h-896z" />
<glyph unicode="&#xe9c1;" glyph-name="cloud" d="M1024 302.458c0 82.090-56.678 150.9-132.996 169.48-3.242 128.7-108.458 232.062-237.862 232.062-75.792 0-143.266-35.494-186.854-90.732-24.442 31.598-62.69 51.96-105.708 51.96-73.81 0-133.642-59.874-133.642-133.722 0-6.436 0.48-12.76 1.364-18.954-11.222 2.024-22.766 3.138-34.57 3.138-106.998 0.002-193.732-86.786-193.732-193.842 0-107.062 86.734-193.848 193.73-193.848l656.262 0.012c96.138 0.184 174.008 78.212 174.008 174.446z" />
<glyph unicode="&#xe9c2;" glyph-name="cloud-download" d="M891.004 599.94c-3.242 128.698-108.458 232.060-237.862 232.060-75.792 0-143.266-35.494-186.854-90.732-24.442 31.598-62.69 51.96-105.708 51.96-73.81 0-133.642-59.876-133.642-133.722 0-6.436 0.48-12.76 1.364-18.954-11.222 2.024-22.766 3.138-34.57 3.138-106.998 0.002-193.732-86.786-193.732-193.842 0-107.062 86.734-193.848 193.73-193.848h91.76l226.51-234.51 226.51 234.51 111.482 0.012c96.138 0.184 174.008 78.21 174.008 174.446 0 82.090-56.678 150.9-132.996 169.482zM512 128l-192 192h128v192h128v-192h128l-192-192z" />
<glyph unicode="&#xe9c3;" glyph-name="cloud-upload" d="M892.268 573.51c2.444 11.11 3.732 22.648 3.732 34.49 0 88.366-71.634 160-160 160-14.222 0-28.014-1.868-41.132-5.352-24.798 77.352-97.29 133.352-182.868 133.352-87.348 0-161.054-58.336-184.326-138.17-22.742 6.622-46.792 10.17-71.674 10.17-141.384 0-256-114.616-256-256 0-141.388 114.616-256 256-256h128v-192h256v192h224c88.366 0 160 71.632 160 160 0 78.72-56.854 144.162-131.732 157.51zM576 320v-192h-128v192h-160l224 224 224-224h-160z" />
<glyph unicode="&#xe9c4;" glyph-name="cloud-check" d="M892.268 445.51c2.442 11.108 3.732 22.646 3.732 34.49 0 88.366-71.634 160-160 160-14.224 0-28.014-1.868-41.134-5.352-24.796 77.352-97.288 133.352-182.866 133.352-87.348 0-161.054-58.336-184.326-138.17-22.742 6.62-46.792 10.17-71.674 10.17-141.384 0-256-114.616-256-256 0-141.382 114.616-256 256-256h608c88.366 0 160 71.632 160 160 0 78.718-56.854 144.16-131.732 157.51zM416 192l-160 160 64 64 96-96 224 224 64-64-288-288z" />
<glyph unicode="&#xe9c5;" glyph-name="download2" d="M896 448h-160l-224-224-224 224h-160l-128-256v-64h1024v64l-128 256zM0 64h1024v-64h-1024v64zM576 640v256h-128v-256h-224l288-288 288 288h-224z" />
<glyph unicode="&#xe9c6;" glyph-name="upload2" d="M0 64h1024v-64h-1024zM1024 192v-64h-1024v64l128 256h256v-128h256v128h256zM224 640l288 288 288-288h-224v-256h-128v256z" />
<glyph unicode="&#xe9c7;" glyph-name="download3" d="M736 512l-256-256-256 256h160v384h192v-384zM480 256h-480v-256h960v256h-480zM896 128h-128v64h128v-64z" />
<glyph unicode="&#xe9c8;" glyph-name="upload3" d="M480 256h-480v-256h960v256h-480zM896 128h-128v64h128v-64zM224 640l256 256 256-256h-160v-320h-192v320z" />
<glyph unicode="&#xe9cb;" glyph-name="link" d="M440.236 324.234c-13.31 0-26.616 5.076-36.77 15.23-95.134 95.136-95.134 249.934 0 345.070l192 192c46.088 46.086 107.36 71.466 172.534 71.466s126.448-25.38 172.536-71.464c95.132-95.136 95.132-249.934 0-345.070l-87.766-87.766c-20.308-20.308-53.23-20.308-73.54 0-20.306 20.306-20.306 53.232 0 73.54l87.766 87.766c54.584 54.586 54.584 143.404 0 197.99-26.442 26.442-61.6 41.004-98.996 41.004s-72.552-14.562-98.996-41.006l-192-191.998c-54.586-54.586-54.586-143.406 0-197.992 20.308-20.306 20.306-53.232 0-73.54-10.15-10.152-23.462-15.23-36.768-15.23zM256-52c-65.176 0-126.45 25.38-172.534 71.464-95.134 95.136-95.134 249.934 0 345.070l87.764 87.764c20.308 20.306 53.234 20.306 73.54 0 20.308-20.306 20.308-53.232 0-73.54l-87.764-87.764c-54.586-54.586-54.586-143.406 0-197.992 26.44-26.44 61.598-41.002 98.994-41.002s72.552 14.562 98.998 41.006l192 191.998c54.584 54.586 54.584 143.406 0 197.992-20.308 20.308-20.306 53.232 0 73.54 20.306 20.306 53.232 20.306 73.54-0.002 95.132-95.134 95.132-249.932 0.002-345.068l-192.002-192c-46.090-46.088-107.364-71.466-172.538-71.466z" />
<glyph unicode="&#xe9cc;" glyph-name="flag" d="M0 960h128v-1024h-128v1024zM832 316.998c82.624 0 154.57 19.984 192 49.5v512c-37.43-29.518-109.376-49.502-192-49.502s-154.57 19.984-192 49.502v-512c37.43-29.516 109.376-49.5 192-49.5zM608 927.472c-46.906 19.94-115.52 32.528-192 32.528-96.396 0-180.334-19.984-224-49.502v-512c43.666 29.518 127.604 49.502 224 49.502 76.48 0 145.094-12.588 192-32.528v512z" />
<glyph unicode="&#xe9cd;" glyph-name="attachment" d="M665.832 632.952l-64.952 64.922-324.81-324.742c-53.814-53.792-53.814-141.048 0-194.844 53.804-53.792 141.060-53.792 194.874 0l389.772 389.708c89.714 89.662 89.714 235.062 0 324.726-89.666 89.704-235.112 89.704-324.782 0l-409.23-409.178c-0.29-0.304-0.612-0.576-0.876-0.846-125.102-125.096-125.102-327.856 0-452.906 125.054-125.056 327.868-125.056 452.988 0 0.274 0.274 0.516 0.568 0.82 0.876l0.032-0.034 279.332 279.292-64.986 64.92-279.33-279.262c-0.296-0.268-0.564-0.57-0.846-0.844-89.074-89.058-233.98-89.058-323.076 0-89.062 89.042-89.062 233.922 0 322.978 0.304 0.304 0.604 0.582 0.888 0.846l-0.046 0.060 409.28 409.166c53.712 53.738 141.144 53.738 194.886 0 53.712-53.734 53.712-141.148 0-194.84l-389.772-389.7c-17.936-17.922-47.054-17.922-64.972 0-17.894 17.886-17.894 47.032 0 64.92l324.806 324.782z" />
</font>
</defs>
</svg>
